<svg width="1176" height="101" viewBox="0 0 1176 101" fill="none" xmlns="http://www.w3.org/2000/svg">
<g filter="url(#filter0_d_154_5)">
<mask id="path-1-outside-1_154_5" maskUnits="userSpaceOnUse" x="4" y="0" width="1168" height="93" fill="black">
<rect fill="white" x="4" width="1168" height="93"/>
<path d="M6.816 69V4.96799H32.544C43.424 4.96799 51.424 7.688 56.544 13.128C61.664 18.504 64.224 26.472 64.224 37.032C64.224 47.528 61.664 55.496 56.544 60.936C51.424 66.312 43.424 69 32.544 69H6.816ZM22.368 57H30.72C36.48 57 40.832 55.4 43.776 52.2C46.784 49 48.288 43.944 48.288 37.032C48.288 29.992 46.784 24.904 43.776 21.768C40.832 18.568 36.48 16.968 30.72 16.968H22.368V57ZM96.57 70.44C91.706 70.44 87.386 69.448 83.61 67.464C79.898 65.416 76.986 62.536 74.874 58.824C72.826 55.048 71.802 50.568 71.802 45.384C71.802 36.936 73.882 30.408 78.042 25.8C82.266 21.128 88.282 18.792 96.09 18.792C101.466 18.792 105.786 19.944 109.05 22.248C112.378 24.552 114.81 27.912 116.346 32.328C117.882 36.744 118.618 42.12 118.554 48.456H81.594L80.058 39.336H106.746L104.634 43.848C104.57 38.664 103.834 35.016 102.426 32.904C101.018 30.792 98.714 29.736 95.514 29.736C93.722 29.736 92.09 30.184 90.618 31.08C89.21 31.976 88.09 33.48 87.258 35.592C86.49 37.64 86.106 40.488 86.106 44.136C86.106 48.744 87.194 52.296 89.37 54.792C91.61 57.288 95.162 58.536 100.026 58.536C101.818 58.536 103.578 58.344 105.306 57.96C107.098 57.512 108.762 57 110.298 56.424C111.834 55.848 113.146 55.336 114.234 54.888V67.176C111.93 68.136 109.338 68.904 106.458 69.48C103.642 70.12 100.346 70.44 96.57 70.44ZM142.892 70.44C139.436 70.44 136.46 70.056 133.964 69.288C131.532 68.584 129.228 67.784 127.052 66.888V54.312C128.396 55.208 129.9 56.136 131.564 57.096C133.228 57.992 135.052 58.728 137.036 59.304C139.084 59.88 141.228 60.168 143.468 60.168C145.772 60.168 147.372 59.784 148.268 59.016C149.228 58.184 149.708 57.192 149.708 56.04C149.708 54.952 149.228 54.088 148.268 53.448C147.308 52.744 146.06 52.168 144.524 51.72C142.988 51.272 141.356 50.856 139.628 50.472C138.092 50.152 136.556 49.672 135.02 49.032C133.484 48.328 132.108 47.4 130.892 46.248C129.676 45.096 128.684 43.688 127.916 42.024C127.212 40.296 126.86 38.216 126.86 35.784C126.86 32.648 127.468 30.056 128.684 28.008C129.9 25.896 131.5 24.2 133.484 22.92C135.468 21.64 137.612 20.744 139.916 20.232C142.22 19.656 144.46 19.4 146.636 19.464C150.604 19.592 153.74 20.04 156.044 20.808C158.412 21.512 160.556 22.44 162.476 23.592V34.824C160.3 33.608 158.124 32.488 155.948 31.464C153.836 30.376 151.404 29.832 148.652 29.832C146.156 29.832 144.364 30.216 143.276 30.984C142.188 31.752 141.644 32.776 141.644 34.056C141.644 35.272 141.996 36.232 142.7 36.936C143.468 37.64 144.46 38.216 145.676 38.664C146.892 39.048 148.236 39.432 149.708 39.816C151.308 40.2 152.94 40.68 154.604 41.256C156.332 41.768 157.932 42.536 159.404 43.56C160.94 44.52 162.156 45.896 163.052 47.688C164.012 49.416 164.492 51.72 164.492 54.6C164.428 58.504 163.372 61.64 161.324 64.008C159.276 66.312 156.62 67.976 153.356 69C150.156 69.96 146.668 70.44 142.892 70.44ZM175.093 69V21.096H189.397L189.493 69H175.093ZM174.805 13.8V2.75999H189.589V13.8H174.805ZM220.898 70.44C216.482 70.184 212.674 69.16 209.474 67.368C206.338 65.576 203.874 62.952 202.082 59.496C200.354 55.976 199.49 51.56 199.49 46.248C199.49 40.872 200.162 36.424 201.506 32.904C202.85 29.32 204.706 26.536 207.074 24.552C209.506 22.568 212.418 21.16 215.81 20.328C219.202 19.496 222.978 19.08 227.138 19.08C231.17 19.08 234.69 19.592 237.698 20.616C240.706 21.64 243.042 23.112 244.706 25.032C246.37 26.952 247.202 29.32 247.202 32.136V69.576C247.202 72.968 246.658 75.944 245.57 78.504C244.482 81.128 242.85 83.304 240.674 85.032C238.562 86.824 235.97 88.168 232.898 89.064C229.89 89.96 226.402 90.408 222.434 90.408C218.146 90.408 214.466 90.088 211.394 89.448C208.386 88.872 206.082 88.136 204.482 87.24V74.664C205.442 75.048 206.85 75.56 208.706 76.2C210.562 76.84 212.642 77.352 214.946 77.736C217.25 78.184 219.554 78.408 221.858 78.408C224.866 78.408 227.17 77.992 228.77 77.16C230.434 76.328 231.586 75.208 232.226 73.8C232.866 72.392 233.186 70.792 233.186 69V61.128L235.97 63.144C234.946 64.616 233.73 65.896 232.322 66.984C230.914 68.072 229.25 68.904 227.33 69.48C225.474 70.12 223.33 70.44 220.898 70.44ZM224.546 59.688C226.21 59.688 227.746 59.528 229.154 59.208C230.562 58.824 231.906 58.28 233.186 57.576V35.304C233.186 33.96 232.802 32.936 232.034 32.232C231.266 31.528 230.306 31.048 229.154 30.792C228.002 30.536 226.786 30.408 225.506 30.408C222.562 30.408 220.226 31.048 218.498 32.328C216.834 33.608 215.618 35.4 214.85 37.704C214.146 39.944 213.794 42.504 213.794 45.384C213.794 49.8 214.786 53.288 216.77 55.848C218.754 58.408 221.346 59.688 224.546 59.688ZM259.18 24.552C260.396 23.912 261.996 23.272 263.98 22.632C265.964 21.928 268.14 21.32 270.508 20.808C272.876 20.296 275.244 19.88 277.612 19.56C280.044 19.24 282.284 19.08 284.332 19.08C288.684 19.08 292.396 19.656 295.468 20.808C298.54 21.896 300.876 23.688 302.476 26.184C304.14 28.68 304.972 32.072 304.972 36.36V69H290.668V39.24C290.668 38.024 290.476 36.904 290.092 35.88C289.772 34.856 289.26 33.992 288.556 33.288C287.852 32.52 286.892 31.944 285.676 31.56C284.46 31.112 282.988 30.888 281.26 30.888C279.788 30.888 278.316 31.08 276.844 31.464C275.372 31.784 274.252 32.136 273.484 32.52V69H259.18V24.552ZM364.179 69V41.352L339.891 4.96799H358.995L377.235 35.592H370.035L386.643 4.96799H402.099L377.523 45.192L379.731 36.936V69H364.179ZM422.349 70.44C414.157 70.44 407.981 68.264 403.821 63.912C399.725 59.496 397.677 53.032 397.677 44.52C397.677 35.368 399.757 28.808 403.917 24.84C408.141 20.808 414.285 18.792 422.349 18.792C427.789 18.792 432.333 19.72 435.981 21.576C439.693 23.368 442.477 26.152 444.333 29.928C446.253 33.704 447.213 38.568 447.213 44.52C447.213 53.032 445.069 59.496 440.781 63.912C436.493 68.264 430.349 70.44 422.349 70.44ZM422.349 59.016C424.717 59.016 426.669 58.472 428.205 57.384C429.805 56.232 430.989 54.6 431.757 52.488C432.589 50.312 433.005 47.656 433.005 44.52C433.005 40.936 432.589 38.12 431.757 36.072C430.989 33.96 429.805 32.456 428.205 31.56C426.605 30.6 424.653 30.12 422.349 30.12C419.917 30.12 417.933 30.6 416.397 31.56C414.861 32.52 413.709 34.056 412.941 36.168C412.237 38.216 411.885 41 411.885 44.52C411.885 49.384 412.717 53.032 414.381 55.464C416.109 57.832 418.765 59.016 422.349 59.016ZM479.934 70.44C475.454 70.44 471.486 69.736 468.03 68.328C464.574 66.92 461.886 64.776 459.966 61.896C458.046 58.952 457.086 55.144 457.086 50.472V20.424H471.39V49.32C471.39 52.392 472.062 54.696 473.406 56.232C474.814 57.704 477.022 58.44 480.03 58.44C483.102 58.44 485.31 57.704 486.654 56.232C487.998 54.696 488.67 52.392 488.67 49.32V20.424H502.11V50.472C502.11 57.384 500.126 62.44 496.158 65.64C492.19 68.84 486.782 70.44 479.934 70.44ZM514.742 69V25.512C515.638 24.744 517.238 23.88 519.542 22.92C521.846 21.896 524.47 21 527.414 20.232C530.422 19.4 533.43 18.984 536.438 18.984C539.446 18.984 541.814 19.208 543.542 19.656C545.27 20.104 546.582 20.68 547.478 21.384V31.848C546.39 31.592 545.014 31.4 543.35 31.272C541.686 31.144 539.958 31.08 538.166 31.08C536.374 31.016 534.678 31.016 533.078 31.08C531.478 31.144 530.134 31.272 529.046 31.464V69H514.742ZM582.816 69V4.96799H608.544C619.424 4.96799 627.424 7.688 632.544 13.128C637.664 18.504 640.224 26.472 640.224 37.032C640.224 47.528 637.664 55.496 632.544 60.936C627.424 66.312 619.424 69 608.544 69H582.816ZM598.368 57H606.72C612.48 57 616.832 55.4 619.776 52.2C622.784 49 624.288 43.944 624.288 37.032C624.288 29.992 622.784 24.904 619.776 21.768C616.832 18.568 612.48 16.968 606.72 16.968H598.368V57ZM650.586 69V25.512C651.482 24.744 653.082 23.88 655.386 22.92C657.69 21.896 660.314 21 663.258 20.232C666.266 19.4 669.274 18.984 672.282 18.984C675.29 18.984 677.658 19.208 679.386 19.656C681.114 20.104 682.426 20.68 683.322 21.384V31.848C682.234 31.592 680.858 31.4 679.194 31.272C677.53 31.144 675.802 31.08 674.01 31.08C672.218 31.016 670.522 31.016 668.922 31.08C667.322 31.144 665.978 31.272 664.89 31.464V69H650.586ZM711.945 70.44C707.081 70.44 702.761 69.448 698.985 67.464C695.273 65.416 692.361 62.536 690.249 58.824C688.201 55.048 687.177 50.568 687.177 45.384C687.177 36.936 689.257 30.408 693.417 25.8C697.641 21.128 703.657 18.792 711.465 18.792C716.841 18.792 721.161 19.944 724.425 22.248C727.753 24.552 730.185 27.912 731.721 32.328C733.257 36.744 733.993 42.12 733.929 48.456H696.969L695.433 39.336H722.121L720.009 43.848C719.945 38.664 719.209 35.016 717.801 32.904C716.393 30.792 714.089 29.736 710.889 29.736C709.097 29.736 707.465 30.184 705.993 31.08C704.585 31.976 703.465 33.48 702.633 35.592C701.865 37.64 701.481 40.488 701.481 44.136C701.481 48.744 702.569 52.296 704.745 54.792C706.985 57.288 710.537 58.536 715.401 58.536C717.193 58.536 718.953 58.344 720.681 57.96C722.473 57.512 724.137 57 725.673 56.424C727.209 55.848 728.521 55.336 729.609 54.888V67.176C727.305 68.136 724.713 68.904 721.833 69.48C719.017 70.12 715.721 70.44 711.945 70.44ZM762.587 70.44C759.643 70.44 756.859 70.152 754.235 69.576C751.675 69.064 749.403 68.2 747.419 66.984C745.499 65.704 743.995 64.008 742.907 61.896C741.819 59.72 741.275 57.032 741.275 53.832C741.275 50.824 741.883 48.2 743.099 45.96C744.379 43.72 746.299 41.992 748.859 40.776C751.419 39.56 754.651 38.952 758.555 38.952C760.731 38.952 762.843 39.176 764.891 39.624C766.939 40.072 768.763 40.68 770.363 41.448C772.027 42.216 773.339 43.048 774.299 43.944L774.875 50.856C773.595 50.088 772.059 49.48 770.267 49.032C768.475 48.584 766.555 48.36 764.507 48.36C761.371 48.36 759.067 48.84 757.595 49.8C756.187 50.696 755.483 52.136 755.483 54.12C755.483 55.336 755.835 56.424 756.539 57.384C757.243 58.344 758.171 59.08 759.323 59.592C760.539 60.104 761.787 60.36 763.067 60.36C766.331 60.36 768.603 60.136 769.883 59.688C771.227 59.24 771.899 58.344 771.899 57V39.144C771.899 36.2 770.939 34.088 769.019 32.808C767.163 31.464 764.507 30.792 761.051 30.792C758.235 30.792 755.387 31.304 752.507 32.328C749.691 33.288 747.387 34.472 745.595 35.88V23.208C747.259 22.184 749.819 21.224 753.275 20.328C756.795 19.432 760.731 18.984 765.083 18.984C766.619 18.984 768.315 19.112 770.171 19.368C772.027 19.624 773.883 20.104 775.739 20.808C777.595 21.448 779.291 22.408 780.827 23.688C782.427 24.968 783.707 26.6 784.667 28.584C785.627 30.568 786.107 33.032 786.107 35.976L786.011 58.92C786.011 61.672 785.083 63.912 783.227 65.64C781.371 67.304 778.683 68.52 775.163 69.288C771.707 70.056 767.515 70.44 762.587 70.44ZM843.925 36.36V69H829.621V39.24C829.621 38.024 829.429 36.904 829.045 35.88C828.725 34.856 828.213 33.992 827.509 33.288C826.805 32.52 825.845 31.944 824.629 31.56C823.413 31.112 821.941 30.888 820.213 30.888C818.741 30.888 817.365 31.08 816.085 31.464C814.869 31.784 813.877 32.136 813.109 32.52V69H798.805V24.552C800.021 23.912 801.621 23.272 803.605 22.632C805.589 21.928 807.765 21.32 810.133 20.808C812.501 20.296 814.869 19.88 817.237 19.56C819.669 19.24 821.909 19.08 823.957 19.08C828.309 19.08 831.957 19.656 834.901 20.808C837.909 21.896 840.149 23.688 841.621 26.184C843.157 28.68 843.925 32.072 843.925 36.36ZM829.237 27.816C831.221 26.088 833.621 24.584 836.437 23.304C839.253 21.96 842.229 20.936 845.365 20.232C848.501 19.464 851.413 19.08 854.101 19.08C858.453 19.08 862.101 19.656 865.045 20.808C868.053 21.896 870.293 23.688 871.765 26.184C873.301 28.68 874.069 32.072 874.069 36.36V69H859.765V39.24C859.765 38.024 859.573 36.904 859.189 35.88C858.869 34.856 858.357 33.992 857.653 33.288C856.949 32.52 855.989 31.944 854.773 31.56C853.557 31.112 852.085 30.888 850.357 30.888C848.885 30.888 847.509 31.112 846.229 31.56C845.013 31.944 844.021 32.456 843.253 33.096L829.237 27.816ZM913.754 69V4.96799H929.306V30.888H952.826V4.96799H968.282V69H952.826V43.56H929.306V69H913.754ZM1003.32 70.44C995.126 70.44 988.95 68.264 984.79 63.912C980.694 59.496 978.646 53.032 978.646 44.52C978.646 35.368 980.726 28.808 984.886 24.84C989.11 20.808 995.254 18.792 1003.32 18.792C1008.76 18.792 1013.3 19.72 1016.95 21.576C1020.66 23.368 1023.45 26.152 1025.3 29.928C1027.22 33.704 1028.18 38.568 1028.18 44.52C1028.18 53.032 1026.04 59.496 1021.75 63.912C1017.46 68.264 1011.32 70.44 1003.32 70.44ZM1003.32 59.016C1005.69 59.016 1007.64 58.472 1009.17 57.384C1010.77 56.232 1011.96 54.6 1012.73 52.488C1013.56 50.312 1013.97 47.656 1013.97 44.52C1013.97 40.936 1013.56 38.12 1012.73 36.072C1011.96 33.96 1010.77 32.456 1009.17 31.56C1007.57 30.6 1005.62 30.12 1003.32 30.12C1000.89 30.12 998.902 30.6 997.366 31.56C995.83 32.52 994.678 34.056 993.91 36.168C993.206 38.216 992.854 41 992.854 44.52C992.854 49.384 993.686 53.032 995.35 55.464C997.078 57.832 999.734 59.016 1003.32 59.016ZM1083.17 36.36V69H1068.87V39.24C1068.87 38.024 1068.68 36.904 1068.29 35.88C1067.97 34.856 1067.46 33.992 1066.76 33.288C1066.05 32.52 1065.09 31.944 1063.88 31.56C1062.66 31.112 1061.19 30.888 1059.46 30.888C1057.99 30.888 1056.61 31.08 1055.33 31.464C1054.12 31.784 1053.13 32.136 1052.36 32.52V69H1038.05V24.552C1039.27 23.912 1040.87 23.272 1042.85 22.632C1044.84 21.928 1047.01 21.32 1049.38 20.808C1051.75 20.296 1054.12 19.88 1056.49 19.56C1058.92 19.24 1061.16 19.08 1063.21 19.08C1067.56 19.08 1071.21 19.656 1074.15 20.808C1077.16 21.896 1079.4 23.688 1080.87 26.184C1082.41 28.68 1083.17 32.072 1083.17 36.36ZM1068.49 27.816C1070.47 26.088 1072.87 24.584 1075.69 23.304C1078.5 21.96 1081.48 20.936 1084.61 20.232C1087.75 19.464 1090.66 19.08 1093.35 19.08C1097.7 19.08 1101.35 19.656 1104.29 20.808C1107.3 21.896 1109.54 23.688 1111.01 26.184C1112.55 28.68 1113.32 32.072 1113.32 36.36V69H1099.01V39.24C1099.01 38.024 1098.82 36.904 1098.44 35.88C1098.12 34.856 1097.61 33.992 1096.9 33.288C1096.2 32.52 1095.24 31.944 1094.02 31.56C1092.81 31.112 1091.33 30.888 1089.61 30.888C1088.13 30.888 1086.76 31.112 1085.48 31.56C1084.26 31.944 1083.27 32.456 1082.5 33.096L1068.49 27.816ZM1147.98 70.44C1143.11 70.44 1138.79 69.448 1135.02 67.464C1131.3 65.416 1128.39 62.536 1126.28 58.824C1124.23 55.048 1123.21 50.568 1123.21 45.384C1123.21 36.936 1125.29 30.408 1129.45 25.8C1133.67 21.128 1139.69 18.792 1147.5 18.792C1152.87 18.792 1157.19 19.944 1160.46 22.248C1163.78 24.552 1166.22 27.912 1167.75 32.328C1169.29 36.744 1170.02 42.12 1169.96 48.456H1133L1131.46 39.336H1158.15L1156.04 43.848C1155.98 38.664 1155.24 35.016 1153.83 32.904C1152.42 30.792 1150.12 29.736 1146.92 29.736C1145.13 29.736 1143.5 30.184 1142.02 31.08C1140.62 31.976 1139.5 33.48 1138.66 35.592C1137.9 37.64 1137.51 40.488 1137.51 44.136C1137.51 48.744 1138.6 52.296 1140.78 54.792C1143.02 57.288 1146.57 58.536 1151.43 58.536C1153.22 58.536 1154.98 58.344 1156.71 57.96C1158.5 57.512 1160.17 57 1161.7 56.424C1163.24 55.848 1164.55 55.336 1165.64 54.888V67.176C1163.34 68.136 1160.74 68.904 1157.86 69.48C1155.05 70.12 1151.75 70.44 1147.98 70.44Z"/>
</mask>
<path d="M6.816 69V4.96799H32.544C43.424 4.96799 51.424 7.688 56.544 13.128C61.664 18.504 64.224 26.472 64.224 37.032C64.224 47.528 61.664 55.496 56.544 60.936C51.424 66.312 43.424 69 32.544 69H6.816ZM22.368 57H30.72C36.48 57 40.832 55.4 43.776 52.2C46.784 49 48.288 43.944 48.288 37.032C48.288 29.992 46.784 24.904 43.776 21.768C40.832 18.568 36.48 16.968 30.72 16.968H22.368V57ZM96.57 70.44C91.706 70.44 87.386 69.448 83.61 67.464C79.898 65.416 76.986 62.536 74.874 58.824C72.826 55.048 71.802 50.568 71.802 45.384C71.802 36.936 73.882 30.408 78.042 25.8C82.266 21.128 88.282 18.792 96.09 18.792C101.466 18.792 105.786 19.944 109.05 22.248C112.378 24.552 114.81 27.912 116.346 32.328C117.882 36.744 118.618 42.12 118.554 48.456H81.594L80.058 39.336H106.746L104.634 43.848C104.57 38.664 103.834 35.016 102.426 32.904C101.018 30.792 98.714 29.736 95.514 29.736C93.722 29.736 92.09 30.184 90.618 31.08C89.21 31.976 88.09 33.48 87.258 35.592C86.49 37.64 86.106 40.488 86.106 44.136C86.106 48.744 87.194 52.296 89.37 54.792C91.61 57.288 95.162 58.536 100.026 58.536C101.818 58.536 103.578 58.344 105.306 57.96C107.098 57.512 108.762 57 110.298 56.424C111.834 55.848 113.146 55.336 114.234 54.888V67.176C111.93 68.136 109.338 68.904 106.458 69.48C103.642 70.12 100.346 70.44 96.57 70.44ZM142.892 70.44C139.436 70.44 136.46 70.056 133.964 69.288C131.532 68.584 129.228 67.784 127.052 66.888V54.312C128.396 55.208 129.9 56.136 131.564 57.096C133.228 57.992 135.052 58.728 137.036 59.304C139.084 59.88 141.228 60.168 143.468 60.168C145.772 60.168 147.372 59.784 148.268 59.016C149.228 58.184 149.708 57.192 149.708 56.04C149.708 54.952 149.228 54.088 148.268 53.448C147.308 52.744 146.06 52.168 144.524 51.72C142.988 51.272 141.356 50.856 139.628 50.472C138.092 50.152 136.556 49.672 135.02 49.032C133.484 48.328 132.108 47.4 130.892 46.248C129.676 45.096 128.684 43.688 127.916 42.024C127.212 40.296 126.86 38.216 126.86 35.784C126.86 32.648 127.468 30.056 128.684 28.008C129.9 25.896 131.5 24.2 133.484 22.92C135.468 21.64 137.612 20.744 139.916 20.232C142.22 19.656 144.46 19.4 146.636 19.464C150.604 19.592 153.74 20.04 156.044 20.808C158.412 21.512 160.556 22.44 162.476 23.592V34.824C160.3 33.608 158.124 32.488 155.948 31.464C153.836 30.376 151.404 29.832 148.652 29.832C146.156 29.832 144.364 30.216 143.276 30.984C142.188 31.752 141.644 32.776 141.644 34.056C141.644 35.272 141.996 36.232 142.7 36.936C143.468 37.64 144.46 38.216 145.676 38.664C146.892 39.048 148.236 39.432 149.708 39.816C151.308 40.2 152.94 40.68 154.604 41.256C156.332 41.768 157.932 42.536 159.404 43.56C160.94 44.52 162.156 45.896 163.052 47.688C164.012 49.416 164.492 51.72 164.492 54.6C164.428 58.504 163.372 61.64 161.324 64.008C159.276 66.312 156.62 67.976 153.356 69C150.156 69.96 146.668 70.44 142.892 70.44ZM175.093 69V21.096H189.397L189.493 69H175.093ZM174.805 13.8V2.75999H189.589V13.8H174.805ZM220.898 70.44C216.482 70.184 212.674 69.16 209.474 67.368C206.338 65.576 203.874 62.952 202.082 59.496C200.354 55.976 199.49 51.56 199.49 46.248C199.49 40.872 200.162 36.424 201.506 32.904C202.85 29.32 204.706 26.536 207.074 24.552C209.506 22.568 212.418 21.16 215.81 20.328C219.202 19.496 222.978 19.08 227.138 19.08C231.17 19.08 234.69 19.592 237.698 20.616C240.706 21.64 243.042 23.112 244.706 25.032C246.37 26.952 247.202 29.32 247.202 32.136V69.576C247.202 72.968 246.658 75.944 245.57 78.504C244.482 81.128 242.85 83.304 240.674 85.032C238.562 86.824 235.97 88.168 232.898 89.064C229.89 89.96 226.402 90.408 222.434 90.408C218.146 90.408 214.466 90.088 211.394 89.448C208.386 88.872 206.082 88.136 204.482 87.24V74.664C205.442 75.048 206.85 75.56 208.706 76.2C210.562 76.84 212.642 77.352 214.946 77.736C217.25 78.184 219.554 78.408 221.858 78.408C224.866 78.408 227.17 77.992 228.77 77.16C230.434 76.328 231.586 75.208 232.226 73.8C232.866 72.392 233.186 70.792 233.186 69V61.128L235.97 63.144C234.946 64.616 233.73 65.896 232.322 66.984C230.914 68.072 229.25 68.904 227.33 69.48C225.474 70.12 223.33 70.44 220.898 70.44ZM224.546 59.688C226.21 59.688 227.746 59.528 229.154 59.208C230.562 58.824 231.906 58.28 233.186 57.576V35.304C233.186 33.96 232.802 32.936 232.034 32.232C231.266 31.528 230.306 31.048 229.154 30.792C228.002 30.536 226.786 30.408 225.506 30.408C222.562 30.408 220.226 31.048 218.498 32.328C216.834 33.608 215.618 35.4 214.85 37.704C214.146 39.944 213.794 42.504 213.794 45.384C213.794 49.8 214.786 53.288 216.77 55.848C218.754 58.408 221.346 59.688 224.546 59.688ZM259.18 24.552C260.396 23.912 261.996 23.272 263.98 22.632C265.964 21.928 268.14 21.32 270.508 20.808C272.876 20.296 275.244 19.88 277.612 19.56C280.044 19.24 282.284 19.08 284.332 19.08C288.684 19.08 292.396 19.656 295.468 20.808C298.54 21.896 300.876 23.688 302.476 26.184C304.14 28.68 304.972 32.072 304.972 36.36V69H290.668V39.24C290.668 38.024 290.476 36.904 290.092 35.88C289.772 34.856 289.26 33.992 288.556 33.288C287.852 32.52 286.892 31.944 285.676 31.56C284.46 31.112 282.988 30.888 281.26 30.888C279.788 30.888 278.316 31.08 276.844 31.464C275.372 31.784 274.252 32.136 273.484 32.52V69H259.18V24.552ZM364.179 69V41.352L339.891 4.96799H358.995L377.235 35.592H370.035L386.643 4.96799H402.099L377.523 45.192L379.731 36.936V69H364.179ZM422.349 70.44C414.157 70.44 407.981 68.264 403.821 63.912C399.725 59.496 397.677 53.032 397.677 44.52C397.677 35.368 399.757 28.808 403.917 24.84C408.141 20.808 414.285 18.792 422.349 18.792C427.789 18.792 432.333 19.72 435.981 21.576C439.693 23.368 442.477 26.152 444.333 29.928C446.253 33.704 447.213 38.568 447.213 44.52C447.213 53.032 445.069 59.496 440.781 63.912C436.493 68.264 430.349 70.44 422.349 70.44ZM422.349 59.016C424.717 59.016 426.669 58.472 428.205 57.384C429.805 56.232 430.989 54.6 431.757 52.488C432.589 50.312 433.005 47.656 433.005 44.52C433.005 40.936 432.589 38.12 431.757 36.072C430.989 33.96 429.805 32.456 428.205 31.56C426.605 30.6 424.653 30.12 422.349 30.12C419.917 30.12 417.933 30.6 416.397 31.56C414.861 32.52 413.709 34.056 412.941 36.168C412.237 38.216 411.885 41 411.885 44.52C411.885 49.384 412.717 53.032 414.381 55.464C416.109 57.832 418.765 59.016 422.349 59.016ZM479.934 70.44C475.454 70.44 471.486 69.736 468.03 68.328C464.574 66.92 461.886 64.776 459.966 61.896C458.046 58.952 457.086 55.144 457.086 50.472V20.424H471.39V49.32C471.39 52.392 472.062 54.696 473.406 56.232C474.814 57.704 477.022 58.44 480.03 58.44C483.102 58.44 485.31 57.704 486.654 56.232C487.998 54.696 488.67 52.392 488.67 49.32V20.424H502.11V50.472C502.11 57.384 500.126 62.44 496.158 65.64C492.19 68.84 486.782 70.44 479.934 70.44ZM514.742 69V25.512C515.638 24.744 517.238 23.88 519.542 22.92C521.846 21.896 524.47 21 527.414 20.232C530.422 19.4 533.43 18.984 536.438 18.984C539.446 18.984 541.814 19.208 543.542 19.656C545.27 20.104 546.582 20.68 547.478 21.384V31.848C546.39 31.592 545.014 31.4 543.35 31.272C541.686 31.144 539.958 31.08 538.166 31.08C536.374 31.016 534.678 31.016 533.078 31.08C531.478 31.144 530.134 31.272 529.046 31.464V69H514.742ZM582.816 69V4.96799H608.544C619.424 4.96799 627.424 7.688 632.544 13.128C637.664 18.504 640.224 26.472 640.224 37.032C640.224 47.528 637.664 55.496 632.544 60.936C627.424 66.312 619.424 69 608.544 69H582.816ZM598.368 57H606.72C612.48 57 616.832 55.4 619.776 52.2C622.784 49 624.288 43.944 624.288 37.032C624.288 29.992 622.784 24.904 619.776 21.768C616.832 18.568 612.48 16.968 606.72 16.968H598.368V57ZM650.586 69V25.512C651.482 24.744 653.082 23.88 655.386 22.92C657.69 21.896 660.314 21 663.258 20.232C666.266 19.4 669.274 18.984 672.282 18.984C675.29 18.984 677.658 19.208 679.386 19.656C681.114 20.104 682.426 20.68 683.322 21.384V31.848C682.234 31.592 680.858 31.4 679.194 31.272C677.53 31.144 675.802 31.08 674.01 31.08C672.218 31.016 670.522 31.016 668.922 31.08C667.322 31.144 665.978 31.272 664.89 31.464V69H650.586ZM711.945 70.44C707.081 70.44 702.761 69.448 698.985 67.464C695.273 65.416 692.361 62.536 690.249 58.824C688.201 55.048 687.177 50.568 687.177 45.384C687.177 36.936 689.257 30.408 693.417 25.8C697.641 21.128 703.657 18.792 711.465 18.792C716.841 18.792 721.161 19.944 724.425 22.248C727.753 24.552 730.185 27.912 731.721 32.328C733.257 36.744 733.993 42.12 733.929 48.456H696.969L695.433 39.336H722.121L720.009 43.848C719.945 38.664 719.209 35.016 717.801 32.904C716.393 30.792 714.089 29.736 710.889 29.736C709.097 29.736 707.465 30.184 705.993 31.08C704.585 31.976 703.465 33.48 702.633 35.592C701.865 37.64 701.481 40.488 701.481 44.136C701.481 48.744 702.569 52.296 704.745 54.792C706.985 57.288 710.537 58.536 715.401 58.536C717.193 58.536 718.953 58.344 720.681 57.96C722.473 57.512 724.137 57 725.673 56.424C727.209 55.848 728.521 55.336 729.609 54.888V67.176C727.305 68.136 724.713 68.904 721.833 69.48C719.017 70.12 715.721 70.44 711.945 70.44ZM762.587 70.44C759.643 70.44 756.859 70.152 754.235 69.576C751.675 69.064 749.403 68.2 747.419 66.984C745.499 65.704 743.995 64.008 742.907 61.896C741.819 59.72 741.275 57.032 741.275 53.832C741.275 50.824 741.883 48.2 743.099 45.96C744.379 43.72 746.299 41.992 748.859 40.776C751.419 39.56 754.651 38.952 758.555 38.952C760.731 38.952 762.843 39.176 764.891 39.624C766.939 40.072 768.763 40.68 770.363 41.448C772.027 42.216 773.339 43.048 774.299 43.944L774.875 50.856C773.595 50.088 772.059 49.48 770.267 49.032C768.475 48.584 766.555 48.36 764.507 48.36C761.371 48.36 759.067 48.84 757.595 49.8C756.187 50.696 755.483 52.136 755.483 54.12C755.483 55.336 755.835 56.424 756.539 57.384C757.243 58.344 758.171 59.08 759.323 59.592C760.539 60.104 761.787 60.36 763.067 60.36C766.331 60.36 768.603 60.136 769.883 59.688C771.227 59.24 771.899 58.344 771.899 57V39.144C771.899 36.2 770.939 34.088 769.019 32.808C767.163 31.464 764.507 30.792 761.051 30.792C758.235 30.792 755.387 31.304 752.507 32.328C749.691 33.288 747.387 34.472 745.595 35.88V23.208C747.259 22.184 749.819 21.224 753.275 20.328C756.795 19.432 760.731 18.984 765.083 18.984C766.619 18.984 768.315 19.112 770.171 19.368C772.027 19.624 773.883 20.104 775.739 20.808C777.595 21.448 779.291 22.408 780.827 23.688C782.427 24.968 783.707 26.6 784.667 28.584C785.627 30.568 786.107 33.032 786.107 35.976L786.011 58.92C786.011 61.672 785.083 63.912 783.227 65.64C781.371 67.304 778.683 68.52 775.163 69.288C771.707 70.056 767.515 70.44 762.587 70.44ZM843.925 36.36V69H829.621V39.24C829.621 38.024 829.429 36.904 829.045 35.88C828.725 34.856 828.213 33.992 827.509 33.288C826.805 32.52 825.845 31.944 824.629 31.56C823.413 31.112 821.941 30.888 820.213 30.888C818.741 30.888 817.365 31.08 816.085 31.464C814.869 31.784 813.877 32.136 813.109 32.52V69H798.805V24.552C800.021 23.912 801.621 23.272 803.605 22.632C805.589 21.928 807.765 21.32 810.133 20.808C812.501 20.296 814.869 19.88 817.237 19.56C819.669 19.24 821.909 19.08 823.957 19.08C828.309 19.08 831.957 19.656 834.901 20.808C837.909 21.896 840.149 23.688 841.621 26.184C843.157 28.68 843.925 32.072 843.925 36.36ZM829.237 27.816C831.221 26.088 833.621 24.584 836.437 23.304C839.253 21.96 842.229 20.936 845.365 20.232C848.501 19.464 851.413 19.08 854.101 19.08C858.453 19.08 862.101 19.656 865.045 20.808C868.053 21.896 870.293 23.688 871.765 26.184C873.301 28.68 874.069 32.072 874.069 36.36V69H859.765V39.24C859.765 38.024 859.573 36.904 859.189 35.88C858.869 34.856 858.357 33.992 857.653 33.288C856.949 32.52 855.989 31.944 854.773 31.56C853.557 31.112 852.085 30.888 850.357 30.888C848.885 30.888 847.509 31.112 846.229 31.56C845.013 31.944 844.021 32.456 843.253 33.096L829.237 27.816ZM913.754 69V4.96799H929.306V30.888H952.826V4.96799H968.282V69H952.826V43.56H929.306V69H913.754ZM1003.32 70.44C995.126 70.44 988.95 68.264 984.79 63.912C980.694 59.496 978.646 53.032 978.646 44.52C978.646 35.368 980.726 28.808 984.886 24.84C989.11 20.808 995.254 18.792 1003.32 18.792C1008.76 18.792 1013.3 19.72 1016.95 21.576C1020.66 23.368 1023.45 26.152 1025.3 29.928C1027.22 33.704 1028.18 38.568 1028.18 44.52C1028.18 53.032 1026.04 59.496 1021.75 63.912C1017.46 68.264 1011.32 70.44 1003.32 70.44ZM1003.32 59.016C1005.69 59.016 1007.64 58.472 1009.17 57.384C1010.77 56.232 1011.96 54.6 1012.73 52.488C1013.56 50.312 1013.97 47.656 1013.97 44.52C1013.97 40.936 1013.56 38.12 1012.73 36.072C1011.96 33.96 1010.77 32.456 1009.17 31.56C1007.57 30.6 1005.62 30.12 1003.32 30.12C1000.89 30.12 998.902 30.6 997.366 31.56C995.83 32.52 994.678 34.056 993.91 36.168C993.206 38.216 992.854 41 992.854 44.52C992.854 49.384 993.686 53.032 995.35 55.464C997.078 57.832 999.734 59.016 1003.32 59.016ZM1083.17 36.36V69H1068.87V39.24C1068.87 38.024 1068.68 36.904 1068.29 35.88C1067.97 34.856 1067.46 33.992 1066.76 33.288C1066.05 32.52 1065.09 31.944 1063.88 31.56C1062.66 31.112 1061.19 30.888 1059.46 30.888C1057.99 30.888 1056.61 31.08 1055.33 31.464C1054.12 31.784 1053.13 32.136 1052.36 32.52V69H1038.05V24.552C1039.27 23.912 1040.87 23.272 1042.85 22.632C1044.84 21.928 1047.01 21.32 1049.38 20.808C1051.75 20.296 1054.12 19.88 1056.49 19.56C1058.92 19.24 1061.16 19.08 1063.21 19.08C1067.56 19.08 1071.21 19.656 1074.15 20.808C1077.16 21.896 1079.4 23.688 1080.87 26.184C1082.41 28.68 1083.17 32.072 1083.17 36.36ZM1068.49 27.816C1070.47 26.088 1072.87 24.584 1075.69 23.304C1078.5 21.96 1081.48 20.936 1084.61 20.232C1087.75 19.464 1090.66 19.08 1093.35 19.08C1097.7 19.08 1101.35 19.656 1104.29 20.808C1107.3 21.896 1109.54 23.688 1111.01 26.184C1112.55 28.68 1113.32 32.072 1113.32 36.36V69H1099.01V39.24C1099.01 38.024 1098.82 36.904 1098.44 35.88C1098.12 34.856 1097.61 33.992 1096.9 33.288C1096.2 32.52 1095.24 31.944 1094.02 31.56C1092.81 31.112 1091.33 30.888 1089.61 30.888C1088.13 30.888 1086.76 31.112 1085.48 31.56C1084.26 31.944 1083.27 32.456 1082.5 33.096L1068.49 27.816ZM1147.98 70.44C1143.11 70.44 1138.79 69.448 1135.02 67.464C1131.3 65.416 1128.39 62.536 1126.28 58.824C1124.23 55.048 1123.21 50.568 1123.21 45.384C1123.21 36.936 1125.29 30.408 1129.45 25.8C1133.67 21.128 1139.69 18.792 1147.5 18.792C1152.87 18.792 1157.19 19.944 1160.46 22.248C1163.78 24.552 1166.22 27.912 1167.75 32.328C1169.29 36.744 1170.02 42.12 1169.96 48.456H1133L1131.46 39.336H1158.15L1156.04 43.848C1155.98 38.664 1155.24 35.016 1153.83 32.904C1152.42 30.792 1150.12 29.736 1146.92 29.736C1145.13 29.736 1143.5 30.184 1142.02 31.08C1140.62 31.976 1139.5 33.48 1138.66 35.592C1137.9 37.64 1137.51 40.488 1137.51 44.136C1137.51 48.744 1138.6 52.296 1140.78 54.792C1143.02 57.288 1146.57 58.536 1151.43 58.536C1153.22 58.536 1154.98 58.344 1156.71 57.96C1158.5 57.512 1160.17 57 1161.7 56.424C1163.24 55.848 1164.55 55.336 1165.64 54.888V67.176C1163.34 68.136 1160.74 68.904 1157.86 69.48C1155.05 70.12 1151.75 70.44 1147.98 70.44Z" fill="white"/>
<path d="M6.816 69H4.816V71H6.816V69ZM6.816 4.96799V2.96799H4.816V4.96799H6.816ZM56.544 13.128L55.0876 14.4988L55.0957 14.5073L56.544 13.128ZM56.544 60.936L57.9923 62.3153L58.0004 62.3067L56.544 60.936ZM22.368 57H20.368V59H22.368V57ZM43.776 52.2L42.3187 50.8302L42.3114 50.838L42.3041 50.8459L43.776 52.2ZM43.776 21.768L42.3041 23.1221L42.3182 23.1374L42.3326 23.1525L43.776 21.768ZM22.368 16.968V14.968H20.368V16.968H22.368ZM8.816 69V4.96799H4.816V69H8.816ZM6.816 6.96799H32.544V2.96799H6.816V6.96799ZM32.544 6.96799C43.1266 6.96799 50.4901 9.61387 55.0876 14.4987L58.0004 11.7573C52.3579 5.76212 43.7214 2.96799 32.544 2.96799V6.96799ZM55.0957 14.5073C59.7357 19.3793 62.224 26.7683 62.224 37.032H66.224C66.224 26.1757 63.5923 17.6287 57.9923 11.7487L55.0957 14.5073ZM62.224 37.032C62.224 47.2258 59.7384 54.6238 55.0876 59.5653L58.0004 62.3067C63.5896 56.3682 66.224 47.8302 66.224 37.032H62.224ZM55.0957 59.5567C50.4994 64.3829 43.1327 67 32.544 67V71C43.7153 71 52.3486 68.2411 57.9923 62.3153L55.0957 59.5567ZM32.544 67H6.816V71H32.544V67ZM22.368 59H30.72V55H22.368V59ZM30.72 59C36.8488 59 41.813 57.2877 45.2479 53.5541L42.3041 50.8459C39.8511 53.5123 36.1112 55 30.72 55V59ZM45.2333 53.5698C48.7435 49.8355 50.288 44.1726 50.288 37.032H46.288C46.288 43.7154 44.8245 48.1645 42.3187 50.8302L45.2333 53.5698ZM50.288 37.032C50.288 29.7804 48.7508 24.0652 45.2194 20.3835L42.3326 23.1525C44.8172 25.7428 46.288 30.2036 46.288 37.032H50.288ZM45.2479 20.4139C41.813 16.6803 36.8488 14.968 30.72 14.968V18.968C36.1112 18.968 39.8511 20.4557 42.3041 23.1221L45.2479 20.4139ZM30.72 14.968H22.368V18.968H30.72V14.968ZM20.368 16.968V57H24.368V16.968H20.368ZM83.61 67.464L82.6438 69.2152L82.6617 69.225L82.6797 69.2345L83.61 67.464ZM74.874 58.824L73.1159 59.7775L73.1256 59.7954L73.1357 59.813L74.874 58.824ZM78.042 25.8L76.5584 24.4587L76.5575 24.4598L78.042 25.8ZM109.05 22.248L107.897 23.8819L107.904 23.8872L107.912 23.8924L109.05 22.248ZM116.346 32.328L118.235 31.671L116.346 32.328ZM118.554 48.456V50.456H120.534L120.554 48.4762L118.554 48.456ZM81.594 48.456L79.6218 48.7882L79.9027 50.456H81.594V48.456ZM80.058 39.336V37.336H77.693L78.0858 39.6682L80.058 39.336ZM106.746 39.336L108.557 40.1839L109.89 37.336H106.746V39.336ZM104.634 43.848L102.634 43.8727L106.445 44.6959L104.634 43.848ZM102.426 32.904L100.762 34.0134V34.0134L102.426 32.904ZM90.618 31.08L89.5781 29.3716L89.5611 29.382L89.5443 29.3927L90.618 31.08ZM87.258 35.592L85.3972 34.8589L85.3911 34.8743L85.3853 34.8898L87.258 35.592ZM89.37 54.792L87.8625 56.1063L87.8719 56.1171L87.8815 56.1278L89.37 54.792ZM105.306 57.96L105.74 59.9124L105.766 59.9067L105.791 59.9003L105.306 57.96ZM110.298 56.424L109.596 54.5513L110.298 56.424ZM114.234 54.888H116.234V51.9016L113.473 53.0386L114.234 54.888ZM114.234 67.176L115.003 69.0222L116.234 68.5093V67.176H114.234ZM106.458 69.48L106.066 67.5188L106.04 67.524L106.015 67.5297L106.458 69.48ZM96.57 68.44C91.9842 68.44 87.9913 67.5068 84.5403 65.6935L82.6797 69.2345C86.7807 71.3892 91.4278 72.44 96.57 72.44V68.44ZM84.5762 65.7128C81.1894 63.8443 78.5435 61.2291 76.6123 57.835L73.1357 59.813C75.4285 63.8429 78.6066 66.9877 82.6438 69.2152L84.5762 65.7128ZM76.6321 57.8705C74.7726 54.442 73.802 50.3034 73.802 45.384H69.802C69.802 50.8326 70.8794 55.654 73.1159 59.7775L76.6321 57.8705ZM73.802 45.384C73.802 37.2507 75.8021 31.2657 79.5265 27.1402L76.5575 24.4598C71.9619 29.5503 69.802 36.6213 69.802 45.384H73.802ZM79.5256 27.1413C83.2825 22.9859 88.7015 20.792 96.09 20.792V16.792C87.8625 16.792 81.2495 19.2701 76.5584 24.4587L79.5256 27.1413ZM96.09 20.792C101.193 20.792 105.069 21.8859 107.897 23.8819L110.203 20.6141C106.503 18.0021 101.739 16.792 96.09 16.792V20.792ZM107.912 23.8924C110.839 25.919 113.038 28.905 114.457 32.985L118.235 31.671C116.582 26.919 113.917 23.185 110.188 20.6036L107.912 23.8924ZM114.457 32.985C115.896 37.1213 116.617 42.2538 116.554 48.4358L120.554 48.4762C120.619 41.9862 119.868 36.3667 118.235 31.671L114.457 32.985ZM118.554 46.456H81.594V50.456H118.554V46.456ZM83.5662 48.1238L82.0302 39.0038L78.0858 39.6682L79.6218 48.7882L83.5662 48.1238ZM80.058 41.336H106.746V37.336H80.058V41.336ZM104.935 38.4881L102.823 43.0001L106.445 44.6959L108.557 40.1839L104.935 38.4881ZM106.634 43.8233C106.569 38.5815 105.842 34.4218 104.09 31.7946L100.762 34.0134C101.826 35.6102 102.571 38.7465 102.634 43.8727L106.634 43.8233ZM104.09 31.7946C102.214 28.9801 99.1857 27.736 95.514 27.736V31.736C98.2423 31.736 99.8222 32.6039 100.762 34.0134L104.09 31.7946ZM95.514 27.736C93.3705 27.736 91.3763 28.2771 89.5781 29.3716L91.6579 32.7884C92.8037 32.0909 94.0735 31.736 95.514 31.736V27.736ZM89.5443 29.3927C87.6713 30.5845 86.3293 32.4928 85.3972 34.8589L89.1188 36.325C89.8507 34.4672 90.7487 33.3675 91.6917 32.7673L89.5443 29.3927ZM85.3853 34.8898C84.4954 37.263 84.106 40.3864 84.106 44.136H88.106C88.106 40.5896 88.4846 38.017 89.1307 36.2942L85.3853 34.8898ZM84.106 44.136C84.106 49.0386 85.2637 53.1254 87.8625 56.1063L90.8775 53.4777C89.1243 51.4666 88.106 48.4494 88.106 44.136H84.106ZM87.8815 56.1278C90.6456 59.2078 94.8546 60.536 100.026 60.536V56.536C95.4694 56.536 92.5744 55.3681 90.8585 53.4562L87.8815 56.1278ZM100.026 60.536C101.962 60.536 103.868 60.3284 105.74 59.9124L104.872 56.0076C103.288 56.3596 101.674 56.536 100.026 56.536V60.536ZM105.791 59.9003C107.648 59.4361 109.385 58.9024 111 58.2967L109.596 54.5513C108.139 55.0976 106.548 55.5879 104.821 56.0197L105.791 59.9003ZM111 58.2967C112.549 57.7159 113.882 57.1959 114.995 56.7374L113.473 53.0386C112.41 53.4761 111.119 53.9801 109.596 54.5513L111 58.2967ZM112.234 54.888V67.176H116.234V54.888H112.234ZM113.465 65.3298C111.301 66.2312 108.839 66.9643 106.066 67.5188L106.85 71.4412C109.837 70.8437 112.559 70.0408 115.003 69.0222L113.465 65.3298ZM106.015 67.5297C103.381 68.1284 100.24 68.44 96.57 68.44V72.44C100.452 72.44 103.903 72.1116 106.901 71.4303L106.015 67.5297ZM133.964 69.288L134.552 67.3764L134.536 67.3715L134.52 67.3669L133.964 69.288ZM127.052 66.888H125.052V68.2274L126.291 68.7374L127.052 66.888ZM127.052 54.312L128.162 52.6479L125.052 50.575V54.312H127.052ZM131.564 57.096L130.565 58.8284L130.59 58.843L130.616 58.8569L131.564 57.096ZM137.036 59.304L136.479 61.2247L136.487 61.227L136.495 61.2293L137.036 59.304ZM148.268 59.016L149.57 60.5345L149.578 60.5274L148.268 59.016ZM148.268 53.448L147.086 55.0608L147.122 55.0873L147.159 55.1121L148.268 53.448ZM144.524 51.72L145.084 49.8L144.524 51.72ZM139.628 50.472L140.062 48.5196L140.049 48.5167L140.036 48.514L139.628 50.472ZM135.02 49.032L134.187 50.8501L134.219 50.8647L134.251 50.8782L135.02 49.032ZM127.916 42.024L126.064 42.7786L126.081 42.8208L126.1 42.8621L127.916 42.024ZM128.684 28.008L130.404 29.0291L130.411 29.0175L130.417 29.0059L128.684 28.008ZM133.484 22.92L132.4 21.2394V21.2394L133.484 22.92ZM139.916 20.232L140.35 22.1844L140.376 22.1787L140.401 22.1723L139.916 20.232ZM146.636 19.464L146.701 17.465L146.695 17.4649L146.636 19.464ZM156.044 20.808L155.412 22.7054L155.443 22.7157L155.474 22.7251L156.044 20.808ZM162.476 23.592H164.476V22.4596L163.505 21.877L162.476 23.592ZM162.476 34.824L161.501 36.5699L164.476 38.2327V34.824H162.476ZM155.948 31.464L155.032 33.2419L155.064 33.2584L155.097 33.2736L155.948 31.464ZM143.276 30.984L142.123 29.3501V29.3501L143.276 30.984ZM142.7 36.936L141.286 38.3502L141.317 38.3809L141.349 38.4103L142.7 36.936ZM145.676 38.664L144.985 40.5407L145.029 40.557L145.074 40.5712L145.676 38.664ZM149.708 39.816L149.203 41.7512L149.222 41.7562L149.242 41.7608L149.708 39.816ZM154.604 41.256L153.95 43.146L153.993 43.1608L154.036 43.1736L154.604 41.256ZM159.404 43.56L158.262 45.2018L158.303 45.2299L158.344 45.256L159.404 43.56ZM163.052 47.688L161.263 48.5824L161.283 48.6213L161.304 48.6593L163.052 47.688ZM164.492 54.6L166.492 54.6328L166.492 54.6164V54.6H164.492ZM161.324 64.008L162.819 65.3367L162.828 65.3266L162.837 65.3163L161.324 64.008ZM153.356 69L153.931 70.9156L153.943 70.912L153.955 70.9083L153.356 69ZM142.892 68.44C139.575 68.44 136.808 68.0704 134.552 67.3764L133.376 71.1996C136.113 72.0416 139.297 72.44 142.892 72.44V68.44ZM134.52 67.3669C132.153 66.6815 129.918 65.905 127.814 65.0386L126.291 68.7374C128.539 69.663 130.912 70.4865 133.408 71.2091L134.52 67.3669ZM129.052 66.888V54.312H125.052V66.888H129.052ZM125.943 55.9761C127.329 56.9 128.87 57.8507 130.565 58.8284L132.564 55.3636C130.93 54.4213 129.464 53.516 128.162 52.6479L125.943 55.9761ZM130.616 58.8569C132.415 59.8257 134.372 60.613 136.479 61.2247L137.594 57.3833C135.733 56.843 134.041 56.1583 132.512 55.3351L130.616 58.8569ZM136.495 61.2293C138.728 61.8574 141.055 62.168 143.468 62.168V58.168C141.402 58.168 139.44 57.9026 137.578 57.3787L136.495 61.2293ZM143.468 62.168C145.859 62.168 148.097 61.7972 149.57 60.5345L146.967 57.4975C146.648 57.7708 145.686 58.168 143.468 58.168V62.168ZM149.578 60.5274C150.926 59.3594 151.708 57.8358 151.708 56.04H147.708C147.708 56.5482 147.531 57.0086 146.958 57.5046L149.578 60.5274ZM151.708 56.04C151.708 54.2365 150.854 52.7681 149.378 51.7839L147.159 55.1121C147.603 55.4079 147.708 55.6675 147.708 56.04H151.708ZM149.451 51.8352C148.251 50.9549 146.772 50.2923 145.084 49.8L143.964 53.64C145.349 54.0437 146.366 54.5331 147.086 55.0608L149.451 51.8352ZM145.084 49.8C143.502 49.3386 141.828 48.9121 140.062 48.5196L139.194 52.4244C140.884 52.7999 142.474 53.2054 143.964 53.64L145.084 49.8ZM140.036 48.514C138.631 48.2213 137.216 47.7802 135.789 47.1858L134.251 50.8782C135.897 51.5638 137.553 52.0827 139.22 52.43L140.036 48.514ZM135.854 47.2139C134.515 46.6005 133.323 45.7957 132.268 44.7961L129.517 47.6999C130.894 49.0042 132.453 50.0555 134.187 50.8501L135.854 47.2139ZM132.268 44.7961C131.253 43.8346 130.404 42.641 129.732 41.1859L126.1 42.8621C126.965 44.735 128.1 46.3574 129.517 47.6999L132.268 44.7961ZM129.768 41.2694C129.187 39.8416 128.86 38.032 128.86 35.784H124.86C124.86 38.4 125.238 40.7504 126.064 42.7786L129.768 41.2694ZM128.86 35.784C128.86 32.8966 129.421 30.685 130.404 29.0291L126.965 26.9869C125.516 29.427 124.86 32.3994 124.86 35.784H128.86ZM130.417 29.0059C131.48 27.1607 132.861 25.7023 134.569 24.6006L132.4 21.2394C130.14 22.6977 128.321 24.6313 126.951 27.0101L130.417 29.0059ZM134.568 24.6006C136.354 23.4489 138.277 22.645 140.35 22.1844L139.482 18.2796C136.947 18.843 134.583 19.8311 132.4 21.2394L134.568 24.6006ZM140.401 22.1723C142.544 21.6367 144.6 21.405 146.577 21.4631L146.695 17.4649C144.32 17.395 141.897 17.6753 139.431 18.2917L140.401 22.1723ZM146.572 21.463C150.452 21.5881 153.37 22.0248 155.412 22.7054L156.677 18.9106C154.11 18.0552 150.756 17.5959 146.701 17.465L146.572 21.463ZM155.474 22.7251C157.698 23.3861 159.685 24.2497 161.447 25.307L163.505 21.877C161.427 20.6303 159.127 19.6379 156.614 18.8909L155.474 22.7251ZM160.476 23.592V34.824H164.476V23.592H160.476ZM163.452 33.0781C161.237 31.8402 159.019 30.6989 156.8 29.6544L155.097 33.2736C157.229 34.2771 159.364 35.3757 161.501 36.5699L163.452 33.0781ZM156.864 29.686C154.427 28.4306 151.672 27.832 148.652 27.832V31.832C151.136 31.832 153.245 32.3214 155.032 33.2419L156.864 29.686ZM148.652 27.832C146.053 27.832 143.735 28.2124 142.123 29.3501L144.43 32.6179C144.994 32.2196 146.26 31.832 148.652 31.832V27.832ZM142.123 29.3501C140.529 30.4749 139.644 32.0956 139.644 34.056H143.644C143.644 33.4564 143.847 33.0291 144.43 32.6179L142.123 29.3501ZM139.644 34.056C139.644 35.6775 140.127 37.1912 141.286 38.3502L144.114 35.5218C143.866 35.2728 143.644 34.8665 143.644 34.056H139.644ZM141.349 38.4103C142.349 39.3272 143.582 40.024 144.985 40.5407L146.368 36.7873C145.338 36.408 144.587 35.9528 144.052 35.4617L141.349 38.4103ZM145.074 40.5712C146.328 40.9671 147.705 41.3603 149.203 41.7512L150.213 37.8808C148.768 37.5037 147.457 37.1289 146.279 36.7568L145.074 40.5712ZM149.242 41.7608C150.774 42.1286 152.343 42.5898 153.95 43.146L155.258 39.366C153.537 38.7702 151.843 38.2714 150.175 37.8712L149.242 41.7608ZM154.036 43.1736C155.56 43.6252 156.966 44.3004 158.262 45.2018L160.546 41.9182C158.898 40.7716 157.104 39.9108 155.172 39.3384L154.036 43.1736ZM158.344 45.256C159.536 46.0007 160.514 47.0836 161.263 48.5824L164.841 46.7936C163.799 44.7084 162.345 43.0393 160.464 41.864L158.344 45.256ZM161.304 48.6593C162.04 49.985 162.492 51.915 162.492 54.6H166.492C166.492 51.525 165.984 48.847 164.801 46.7167L161.304 48.6593ZM162.493 54.5672C162.434 58.1215 161.483 60.7675 159.812 62.6997L162.837 65.3163C165.262 62.5125 166.422 58.8865 166.492 54.6328L162.493 54.5672ZM159.829 62.6793C158.048 64.6835 155.715 66.1639 152.758 67.0917L153.955 70.9083C157.526 69.7881 160.505 67.9405 162.819 65.3367L159.829 62.6793ZM152.782 67.0844C149.79 67.9817 146.499 68.44 142.892 68.44V72.44C146.838 72.44 150.522 71.9383 153.931 70.9156L152.782 67.0844ZM175.093 69H173.093V71H175.093V69ZM175.093 21.096V19.096H173.093V21.096H175.093ZM189.397 21.096L191.397 21.092L191.393 19.096H189.397V21.096ZM189.493 69V71H191.497L191.493 68.996L189.493 69ZM174.805 13.8H172.805V15.8H174.805V13.8ZM174.805 2.75999V0.759995H172.805V2.75999H174.805ZM189.589 2.75999H191.589V0.759995H189.589V2.75999ZM189.589 13.8V15.8H191.589V13.8H189.589ZM177.093 69V21.096H173.093V69H177.093ZM175.093 23.096H189.397V19.096H175.093V23.096ZM187.397 21.1L187.493 69.004L191.493 68.996L191.397 21.092L187.397 21.1ZM189.493 67H175.093V71H189.493V67ZM176.805 13.8V2.75999H172.805V13.8H176.805ZM174.805 4.75999H189.589V0.759995H174.805V4.75999ZM187.589 2.75999V13.8H191.589V2.75999H187.589ZM189.589 11.8H174.805V15.8H189.589V11.8ZM220.898 70.44L220.782 72.4366L220.84 72.44H220.898V70.44ZM209.473 67.368L208.481 69.1045L208.489 69.1088L208.496 69.113L209.473 67.368ZM202.081 59.496L200.286 60.3773L200.296 60.3971L200.306 60.4166L202.081 59.496ZM201.505 32.904L203.374 33.6174L203.378 33.6062L201.505 32.904ZM207.074 24.552L205.809 23.0023L205.799 23.0105L205.789 23.019L207.074 24.552ZM237.698 20.616L237.053 22.5093L237.698 20.616ZM244.706 25.032L243.194 26.3419L244.706 25.032ZM245.57 78.504L243.729 77.7217L243.725 77.7298L243.722 77.738L245.57 78.504ZM240.674 85.032L239.43 83.4658L239.404 83.486L239.38 83.507L240.674 85.032ZM232.898 89.064L232.337 87.144L232.327 87.1472L232.898 89.064ZM211.393 89.448L211.801 87.49L211.786 87.4867L211.77 87.4837L211.393 89.448ZM204.482 87.24H202.482V88.4122L203.504 88.985L204.482 87.24ZM204.482 74.664L205.224 72.807L202.482 71.7099V74.664H204.482ZM214.945 77.736L215.327 75.7728L215.301 75.7676L215.274 75.7632L214.945 77.736ZM228.77 77.16L227.875 75.3711L227.861 75.3782L227.847 75.3856L228.77 77.16ZM232.225 73.8L230.405 72.9724L232.225 73.8ZM233.186 61.128L234.359 59.5081L231.186 57.2104V61.128H233.186ZM235.969 63.144L237.611 64.2861L238.732 62.6751L237.143 61.5241L235.969 63.144ZM232.322 66.984L231.099 65.4014L232.322 66.984ZM227.329 69.48L226.755 67.5643L226.716 67.576L226.678 67.5893L227.329 69.48ZM229.154 59.208L229.597 61.1583L229.638 61.1488L229.68 61.1375L229.154 59.208ZM233.186 57.576L234.149 59.3284L235.186 58.7585V57.576H233.186ZM229.154 30.792L229.587 28.8396L229.154 30.792ZM218.497 32.328L217.307 30.7209L217.292 30.7317L217.278 30.7427L218.497 32.328ZM214.85 37.704L212.952 37.0715L212.947 37.0879L212.942 37.1043L214.85 37.704ZM216.77 55.848L218.35 54.6229L216.77 55.848ZM221.013 68.4434C216.838 68.2013 213.337 67.2395 210.451 65.623L208.496 69.113C212.01 71.0805 216.125 72.1667 220.782 72.4366L221.013 68.4434ZM210.466 65.6315C207.69 64.0454 205.486 61.7175 203.857 58.5754L200.306 60.4166C202.261 64.1865 204.985 67.1066 208.481 69.1045L210.466 65.6315ZM203.877 58.6147C202.322 55.4484 201.49 51.3573 201.49 46.248H197.49C197.49 51.7627 198.385 56.5036 200.286 60.3773L203.877 58.6147ZM201.49 46.248C201.49 41.0202 202.146 36.8347 203.374 33.6174L199.637 32.1906C198.177 36.0133 197.49 40.7238 197.49 46.248H201.49ZM203.378 33.6062C204.63 30.2689 206.311 27.8004 208.358 26.085L205.789 23.019C203.1 25.2716 201.069 28.3711 199.633 32.2018L203.378 33.6062ZM208.338 26.1017C210.515 24.3258 213.15 23.0397 216.286 22.2704L215.333 18.3856C211.685 19.2803 208.496 20.8102 205.809 23.0023L208.338 26.1017ZM216.286 22.2704C219.496 21.4831 223.109 21.08 227.137 21.08V17.08C222.846 17.08 218.907 17.5089 215.333 18.3856L216.286 22.2704ZM227.137 21.08C231.006 21.08 234.3 21.572 237.053 22.5093L238.342 18.7227C235.079 17.612 231.333 17.08 227.137 17.08V21.08ZM237.053 22.5093C239.809 23.4474 241.814 24.7491 243.194 26.3419L246.217 23.7221C244.269 21.4749 241.602 19.8326 238.342 18.7227L237.053 22.5093ZM243.194 26.3419C244.508 27.8581 245.202 29.7452 245.202 32.136H249.202C249.202 28.8948 248.231 26.0459 246.217 23.7221L243.194 26.3419ZM245.202 32.136V69.576H249.202V32.136H245.202ZM245.202 69.576C245.202 72.7567 244.691 75.4571 243.729 77.7217L247.41 79.2863C248.624 76.4309 249.202 73.1793 249.202 69.576H245.202ZM243.722 77.738C242.761 80.0556 241.334 81.9538 239.43 83.4658L241.917 86.5982C244.365 84.6542 246.202 82.2004 247.417 79.27L243.722 77.738ZM239.38 83.507C237.513 85.0911 235.181 86.3145 232.338 87.144L233.458 90.984C236.758 90.0215 239.61 88.5569 241.967 86.557L239.38 83.507ZM232.327 87.1472C229.545 87.9757 226.257 88.408 222.434 88.408V92.408C226.546 92.408 230.234 91.9443 233.468 90.9808L232.327 87.1472ZM222.434 88.408C218.236 88.408 214.701 88.094 211.801 87.49L210.986 91.406C214.23 92.082 218.055 92.408 222.434 92.408V88.408ZM211.77 87.4837C208.851 86.9248 206.788 86.2392 205.459 85.495L203.504 88.985C205.375 90.0328 207.92 90.8192 211.017 91.4123L211.77 87.4837ZM206.482 87.24V74.664H202.482V87.24H206.482ZM203.739 76.521C204.744 76.9232 206.189 77.4478 208.054 78.0907L209.357 74.3093C207.51 73.6722 206.139 73.1728 205.224 72.807L203.739 76.521ZM208.054 78.0907C210.032 78.7731 212.223 79.3098 214.617 79.7088L215.274 75.7632C213.06 75.3942 211.091 74.9069 209.357 74.3093L208.054 78.0907ZM214.564 79.6992C216.991 80.1712 219.423 80.408 221.857 80.408V76.408C219.684 76.408 217.508 76.1968 215.327 75.7728L214.564 79.6992ZM221.857 80.408C224.998 80.408 227.677 79.9823 229.692 78.9344L227.847 75.3856C226.662 76.0017 224.733 76.408 221.857 76.408V80.408ZM229.664 78.9489C231.651 77.9551 233.18 76.5327 234.046 74.6276L230.405 72.9724C229.991 73.8833 229.216 74.7009 227.875 75.3711L229.664 78.9489ZM234.046 74.6276C234.822 72.9216 235.186 71.0325 235.186 69H231.186C231.186 70.5515 230.909 71.8624 230.405 72.9724L234.046 74.6276ZM235.186 69V61.128H231.186V69H235.186ZM232.012 62.7479L234.796 64.7639L237.143 61.5241L234.359 59.5081L232.012 62.7479ZM234.328 62.0019C233.419 63.3079 232.344 64.439 231.099 65.4014L233.544 68.5666C235.115 67.353 236.472 65.9241 237.611 64.2861L234.328 62.0019ZM231.099 65.4014C229.907 66.3219 228.47 67.0499 226.755 67.5643L227.904 71.3957C230.029 70.7581 231.92 69.8221 233.544 68.5666L231.099 65.4014ZM226.678 67.5893C225.075 68.142 223.159 68.44 220.898 68.44V72.44C223.5 72.44 225.872 72.098 227.981 71.3707L226.678 67.5893ZM224.546 61.688C226.337 61.688 228.023 61.5159 229.597 61.1583L228.71 57.2577C227.468 57.5401 226.082 57.688 224.546 57.688V61.688ZM229.68 61.1375C231.24 60.7119 232.731 60.1085 234.149 59.3284L232.222 55.8236C231.08 56.4515 229.883 56.9361 228.627 57.2785L229.68 61.1375ZM235.186 57.576V35.304H231.186V57.576H235.186ZM235.186 35.304C235.186 33.5717 234.678 31.9431 233.385 30.7577L230.682 33.7063C230.925 33.9289 231.186 34.3483 231.186 35.304H235.186ZM233.385 30.7577C232.325 29.7865 231.036 29.1614 229.587 28.8396L228.72 32.7444C229.575 32.9345 230.206 33.2695 230.682 33.7063L233.385 30.7577ZM229.587 28.8396C228.281 28.5494 226.919 28.408 225.506 28.408V32.408C226.652 32.408 227.722 32.5226 228.72 32.7444L229.587 28.8396ZM225.506 28.408C222.288 28.408 219.486 29.1066 217.307 30.7209L219.688 33.9351C220.965 32.9894 222.835 32.408 225.506 32.408V28.408ZM217.278 30.7427C215.251 32.3021 213.826 34.4504 212.952 37.0715L216.747 38.3365C217.409 36.3496 218.416 34.9139 219.717 33.9132L217.278 30.7427ZM212.942 37.1043C212.165 39.5765 211.794 42.3449 211.794 45.384H215.794C215.794 42.6631 216.126 40.3115 216.757 38.3037L212.942 37.1043ZM211.794 45.384C211.794 50.0841 212.849 54.0545 215.189 57.0731L218.35 54.6229C216.722 52.5215 215.794 49.5159 215.794 45.384H211.794ZM215.189 57.0731C217.546 60.115 220.718 61.688 224.546 61.688V57.688C221.973 57.688 219.961 56.701 218.35 54.6229L215.189 57.0731ZM259.18 24.552L258.248 22.7822L257.18 23.3445V24.552H259.18ZM263.98 22.632L264.594 24.5354L264.621 24.5265L264.649 24.5169L263.98 22.632ZM270.508 20.808L270.93 22.7628L270.508 20.808ZM277.612 19.56L277.351 17.5771L277.344 17.578L277.612 19.56ZM295.468 20.808L294.766 22.6807L294.783 22.6871L294.8 22.6933L295.468 20.808ZM302.476 26.184L300.792 27.2633L300.802 27.2785L300.812 27.2934L302.476 26.184ZM304.972 69V71H306.972V69H304.972ZM290.668 69H288.668V71H290.668V69ZM290.092 35.88L288.183 36.4765L288.199 36.5299L288.219 36.5822L290.092 35.88ZM288.556 33.288L287.081 34.6394L287.111 34.6715L287.142 34.7022L288.556 33.288ZM285.676 31.56L284.984 33.4367L285.029 33.453L285.073 33.4672L285.676 31.56ZM276.844 31.464L277.269 33.4184L277.309 33.4096L277.349 33.3992L276.844 31.464ZM273.484 32.52L272.589 30.7311L271.484 31.2839V32.52H273.484ZM273.484 69V71H275.484V69H273.484ZM259.18 69H257.18V71H259.18V69ZM260.111 26.3218C261.188 25.7553 262.669 25.1562 264.594 24.5354L263.366 20.7286C261.322 21.3878 259.604 22.0687 258.248 22.7822L260.111 26.3218ZM264.649 24.5169C266.541 23.8453 268.634 23.2594 270.93 22.7628L270.085 18.8532C267.646 19.3806 265.386 20.0107 263.311 20.7471L264.649 24.5169ZM270.93 22.7628C273.248 22.2617 275.564 21.8549 277.88 21.542L277.344 17.578C274.923 17.9051 272.504 18.3302 270.085 18.8532L270.93 22.7628ZM277.873 21.5429C280.234 21.2321 282.386 21.08 284.332 21.08V17.08C282.181 17.08 279.853 17.2479 277.351 17.5771L277.873 21.5429ZM284.332 21.08C288.518 21.08 291.978 21.6354 294.766 22.6807L296.17 18.9353C292.813 17.6766 288.85 17.08 284.332 17.08V21.08ZM294.8 22.6933C297.497 23.6485 299.456 25.1789 300.792 27.2633L304.16 25.1047C302.296 22.1971 299.582 20.1435 296.135 18.9227L294.8 22.6933ZM300.812 27.2934C302.181 29.3479 302.972 32.3048 302.972 36.36H306.972C306.972 31.8392 306.098 28.0121 304.14 25.0746L300.812 27.2934ZM302.972 36.36V69H306.972V36.36H302.972ZM304.972 67H290.668V71H304.972V67ZM292.668 69V39.24H288.668V69H292.668ZM292.668 39.24C292.668 37.8109 292.442 36.45 291.964 35.1777L288.219 36.5822C288.51 37.358 288.668 38.2371 288.668 39.24H292.668ZM292.001 35.2834C291.592 33.9754 290.92 32.8239 289.97 31.8738L287.142 34.7022C287.599 35.1601 287.952 35.7365 288.183 36.4765L292.001 35.2834ZM290.03 31.9366C289.041 30.858 287.754 30.1189 286.278 29.6528L285.073 33.4672C286.03 33.7691 286.662 34.182 287.081 34.6394L290.03 31.9366ZM286.367 29.6833C284.87 29.1316 283.15 28.888 281.26 28.888V32.888C282.826 32.888 284.05 33.0924 284.984 33.4367L286.367 29.6833ZM281.26 28.888C279.612 28.888 277.97 29.1032 276.339 29.5288L277.349 33.3992C278.661 33.0568 279.964 32.888 281.26 32.888V28.888ZM276.419 29.5096C274.887 29.8428 273.578 30.237 272.589 30.7311L274.378 34.3089C274.926 34.035 275.857 33.7252 277.269 33.4184L276.419 29.5096ZM271.484 32.52V69H275.484V32.52H271.484ZM273.484 67H259.18V71H273.484V67ZM261.18 69V24.552H257.18V69H261.18ZM364.179 69H362.179V71H364.179V69ZM364.179 41.352H366.179V40.7458L365.842 40.2416L364.179 41.352ZM339.891 4.96799V2.96799H336.151L338.228 6.07841L339.891 4.96799ZM358.995 4.96799L360.713 3.94455L360.132 2.96799H358.995V4.96799ZM377.235 35.592V37.592H380.754L378.953 34.5686L377.235 35.592ZM370.035 35.592L368.277 34.6385L366.675 37.592H370.035V35.592ZM386.643 4.96799V2.96799H385.452L384.885 4.01454L386.643 4.96799ZM402.099 4.96799L403.806 6.01073L405.665 2.96799H402.099V4.96799ZM377.523 45.192L375.591 44.6753L379.23 46.2347L377.523 45.192ZM379.731 36.936H381.731L377.799 36.4193L379.731 36.936ZM379.731 69V71H381.731V69H379.731ZM366.179 69V41.352H362.179V69H366.179ZM365.842 40.2416L341.554 3.85758L338.228 6.07841L362.516 42.4624L365.842 40.2416ZM339.891 6.96799H358.995V2.96799H339.891V6.96799ZM357.277 5.99144L375.517 36.6154L378.953 34.5686L360.713 3.94455L357.277 5.99144ZM377.235 33.592H370.035V37.592H377.235V33.592ZM371.793 36.5455L388.401 5.92145L384.885 4.01454L368.277 34.6385L371.793 36.5455ZM386.643 6.96799H402.099V2.96799H386.643V6.96799ZM400.392 3.92526L375.816 44.1493L379.23 46.2347L403.806 6.01073L400.392 3.92526ZM379.455 45.7087L381.663 37.4527L377.799 36.4193L375.591 44.6753L379.455 45.7087ZM377.731 36.936V69H381.731V36.936H377.731ZM379.731 67H364.179V71H379.731V67ZM403.821 63.912L402.355 65.2721L402.365 65.2831L402.375 65.294L403.821 63.912ZM403.917 24.84L405.297 26.2872L405.298 26.2867L403.917 24.84ZM435.981 21.576L435.074 23.3586L435.093 23.368L435.112 23.3771L435.981 21.576ZM444.333 29.928L442.538 30.8102L442.544 30.8224L442.55 30.8345L444.333 29.928ZM440.781 63.912L442.206 65.3157L442.211 65.3105L442.216 65.3053L440.781 63.912ZM428.205 57.384L429.361 59.016L429.367 59.0116L429.374 59.0071L428.205 57.384ZM431.757 52.488L429.889 51.7737L429.883 51.7891L429.877 51.8045L431.757 52.488ZM431.757 36.072L429.877 36.7555L429.89 36.7904L429.904 36.8248L431.757 36.072ZM428.205 31.56L427.176 33.275L427.202 33.2904L427.228 33.305L428.205 31.56ZM416.397 31.56L417.457 33.256V33.256L416.397 31.56ZM412.941 36.168L411.061 35.4845L411.055 35.5011L411.05 35.5178L412.941 36.168ZM414.381 55.464L412.73 56.5934L412.748 56.6184L412.765 56.6429L414.381 55.464ZM422.349 68.44C414.5 68.44 408.929 66.3611 405.267 62.53L402.375 65.294C407.033 70.1669 413.814 72.44 422.349 72.44V68.44ZM405.287 62.5519C401.654 58.6345 399.677 52.736 399.677 44.52H395.677C395.677 53.328 397.796 60.3575 402.355 65.2721L405.287 62.5519ZM399.677 44.52C399.677 35.6004 401.714 29.7052 405.297 26.2872L402.537 23.3928C397.8 27.9108 395.677 35.1356 395.677 44.52H399.677ZM405.298 26.2867C409.028 22.7266 414.601 20.792 422.349 20.792V16.792C413.969 16.792 407.254 18.8894 402.536 23.3933L405.298 26.2867ZM422.349 20.792C427.573 20.792 431.784 21.6846 435.074 23.3586L436.888 19.7934C432.882 17.7554 428.005 16.792 422.349 16.792V20.792ZM435.112 23.3771C438.412 24.9705 440.875 27.4263 442.538 30.8102L446.128 29.0458C444.079 24.8777 440.974 21.7655 436.85 19.7749L435.112 23.3771ZM442.55 30.8345C444.282 34.2394 445.213 38.7632 445.213 44.52H449.213C449.213 38.3728 448.224 33.1686 446.116 29.0215L442.55 30.8345ZM445.213 44.52C445.213 52.7139 443.152 58.5995 439.346 62.5187L442.216 65.3053C446.986 60.3925 449.213 53.3501 449.213 44.52H445.213ZM439.356 62.5083C435.55 66.3712 429.986 68.44 422.349 68.44V72.44C430.712 72.44 437.436 70.1568 442.206 65.3157L439.356 62.5083ZM422.349 61.016C425.024 61.016 427.409 60.3989 429.361 59.016L427.049 55.752C425.929 56.5451 424.41 57.016 422.349 57.016V61.016ZM429.374 59.0071C431.344 57.5886 432.751 55.6064 433.637 53.1715L429.877 51.8045C429.227 53.5936 428.266 54.8754 427.036 55.7609L429.374 59.0071ZM433.625 53.2023C434.569 50.7343 435.005 47.8208 435.005 44.52H431.005C431.005 47.4911 430.609 49.8897 429.889 51.7737L433.625 53.2023ZM435.005 44.52C435.005 40.8185 434.581 37.709 433.61 35.3192L429.904 36.8248C430.597 38.531 431.005 41.0535 431.005 44.52H435.005ZM433.637 35.3885C432.743 32.9316 431.289 30.9949 429.182 29.815L427.228 33.305C428.321 33.9171 429.235 34.9884 429.877 36.7555L433.637 35.3885ZM429.234 29.845C427.258 28.6593 424.931 28.12 422.349 28.12V32.12C424.375 32.12 425.952 32.5407 427.176 33.275L429.234 29.845ZM422.349 28.12C419.667 28.12 417.282 28.6482 415.337 29.864L417.457 33.256C418.584 32.5518 420.167 32.12 422.349 32.12V28.12ZM415.337 29.864C413.339 31.1129 411.944 33.0563 411.061 35.4845L414.821 36.8515C415.474 35.0557 416.383 33.9271 417.457 33.256L415.337 29.864ZM411.05 35.5178C410.243 37.8646 409.885 40.8991 409.885 44.52H413.885C413.885 41.1009 414.231 38.5674 414.832 36.8182L411.05 35.5178ZM409.885 44.52C409.885 49.5498 410.734 53.6757 412.73 56.5934L416.032 54.3346C414.7 52.3883 413.885 49.2182 413.885 44.52H409.885ZM412.765 56.6429C414.955 59.6436 418.286 61.016 422.349 61.016V57.016C419.244 57.016 417.263 56.0204 415.997 54.2851L412.765 56.6429ZM459.966 61.896L458.291 62.9885L458.296 62.997L458.302 63.0054L459.966 61.896ZM457.086 20.424V18.424H455.086V20.424H457.086ZM471.39 20.424H473.39V18.424H471.39V20.424ZM473.406 56.232L471.901 57.549L471.93 57.5824L471.961 57.6144L473.406 56.232ZM486.654 56.232L488.131 57.5805L488.145 57.5649L488.159 57.549L486.654 56.232ZM488.67 20.424V18.424H486.67V20.424H488.67ZM502.11 20.424H504.11V18.424H502.11V20.424ZM496.158 65.64L494.902 64.0832L496.158 65.64ZM479.934 68.44C475.662 68.44 471.958 67.7687 468.785 66.4758L467.275 70.1802C471.014 71.7033 475.246 72.44 479.934 72.44V68.44ZM468.785 66.4758C465.669 65.2064 463.311 63.3073 461.63 60.7866L458.302 63.0054C460.461 66.2447 463.479 68.6336 467.275 70.1802L468.785 66.4758ZM461.641 60.8035C459.992 58.2754 459.086 54.8811 459.086 50.472H455.086C455.086 55.4069 456.1 59.6286 458.291 62.9885L461.641 60.8035ZM459.086 50.472V20.424H455.086V50.472H459.086ZM457.086 22.424H471.39V18.424H457.086V22.424ZM469.39 20.424V49.32H473.39V20.424H469.39ZM469.39 49.32C469.39 52.6396 470.11 55.5028 471.901 57.549L474.911 54.915C474.014 53.8892 473.39 52.1444 473.39 49.32H469.39ZM471.961 57.6144C473.895 59.6362 476.737 60.44 480.03 60.44V56.44C477.307 56.44 475.733 55.7718 474.851 54.8496L471.961 57.6144ZM480.03 60.44C483.362 60.44 486.244 59.6475 488.131 57.5805L485.177 54.8835C484.376 55.7605 482.842 56.44 480.03 56.44V60.44ZM488.159 57.549C489.95 55.5028 490.67 52.6396 490.67 49.32H486.67C486.67 52.1444 486.046 53.8892 485.149 54.915L488.159 57.549ZM490.67 49.32V20.424H486.67V49.32H490.67ZM488.67 22.424H502.11V18.424H488.67V22.424ZM500.11 20.424V50.472H504.11V20.424H500.11ZM500.11 50.472C500.11 57.0083 498.246 61.3865 494.902 64.0832L497.414 67.1968C502.006 63.4935 504.11 57.7597 504.11 50.472H500.11ZM494.902 64.0832C491.395 66.9114 486.482 68.44 479.934 68.44V72.44C487.082 72.44 492.985 70.7686 497.414 67.1968L494.902 64.0832ZM514.742 69H512.742V71H514.742V69ZM514.742 25.512L513.441 23.9935L512.742 24.5921V25.512H514.742ZM519.542 22.92L520.311 24.7662L520.333 24.7571L520.355 24.7476L519.542 22.92ZM527.414 20.232L527.919 22.1672L527.933 22.1635L527.947 22.1596L527.414 20.232ZM543.542 19.656L543.04 21.592L543.542 19.656ZM547.478 21.384H549.478V20.4119L548.714 19.8114L547.478 21.384ZM547.478 31.848L547.02 33.7948L549.478 34.3732V31.848H547.478ZM543.35 31.272L543.197 33.2661L543.35 31.272ZM538.166 31.08L538.095 33.0787L538.131 33.08H538.166V31.08ZM533.078 31.08L533.158 33.0784L533.078 31.08ZM529.046 31.464L528.699 29.4944L527.046 29.786V31.464H529.046ZM529.046 69V71H531.046V69H529.046ZM516.742 69V25.512H512.742V69H516.742ZM516.044 27.0305C516.685 26.4805 518.035 25.7147 520.311 24.7662L518.773 21.0738C516.442 22.0453 514.591 23.0075 513.441 23.9935L516.044 27.0305ZM520.355 24.7476C522.541 23.7757 525.06 22.9132 527.919 22.1672L526.909 18.2968C523.881 19.0868 521.151 20.0163 518.73 21.0924L520.355 24.7476ZM527.947 22.1596C530.788 21.3738 533.617 20.984 536.438 20.984V16.984C533.243 16.984 530.056 17.4262 526.881 18.3044L527.947 22.1596ZM536.438 20.984C539.375 20.984 541.55 21.2056 543.04 21.592L544.044 17.72C542.078 17.2104 539.517 16.984 536.438 16.984V20.984ZM543.04 21.592C544.636 22.0058 545.651 22.4921 546.243 22.9566L548.714 19.8114C547.513 18.8679 545.904 18.2022 544.044 17.72L543.04 21.592ZM545.478 21.384V31.848H549.478V21.384H545.478ZM547.936 29.9012C546.712 29.6131 545.225 29.4103 543.504 29.2779L543.197 33.2661C544.803 33.3897 546.068 33.5708 547.02 33.7948L547.936 29.9012ZM543.504 29.2779C541.785 29.1457 540.006 29.08 538.166 29.08V33.08C539.911 33.08 541.587 33.1423 543.197 33.2661L543.504 29.2779ZM538.238 29.0813C536.401 29.0157 534.654 29.0154 532.998 29.0816L533.158 33.0784C534.702 33.0166 536.347 33.0163 538.095 33.0787L538.238 29.0813ZM532.998 29.0816C531.345 29.1477 529.905 29.2816 528.699 29.4944L529.394 33.4336C530.364 33.2624 531.612 33.1403 533.158 33.0784L532.998 29.0816ZM527.046 31.464V69H531.046V31.464H527.046ZM529.046 67H514.742V71H529.046V67ZM582.816 69H580.816V71H582.816V69ZM582.816 4.96799V2.96799H580.816V4.96799H582.816ZM632.544 13.128L631.088 14.4988L631.096 14.5073L632.544 13.128ZM632.544 60.936L633.992 62.3153L634 62.3067L632.544 60.936ZM598.368 57H596.368V59H598.368V57ZM619.776 52.2L618.319 50.8302L618.311 50.838L618.304 50.8459L619.776 52.2ZM619.776 21.768L618.304 23.1221L618.318 23.1374L618.333 23.1525L619.776 21.768ZM598.368 16.968V14.968H596.368V16.968H598.368ZM584.816 69V4.96799H580.816V69H584.816ZM582.816 6.96799H608.544V2.96799H582.816V6.96799ZM608.544 6.96799C619.127 6.96799 626.49 9.61387 631.088 14.4987L634 11.7573C628.358 5.76212 619.721 2.96799 608.544 2.96799V6.96799ZM631.096 14.5073C635.736 19.3793 638.224 26.7683 638.224 37.032H642.224C642.224 26.1757 639.592 17.6287 633.992 11.7487L631.096 14.5073ZM638.224 37.032C638.224 47.2258 635.738 54.6238 631.088 59.5653L634 62.3067C639.59 56.3682 642.224 47.8302 642.224 37.032H638.224ZM631.096 59.5567C626.499 64.3829 619.133 67 608.544 67V71C619.715 71 628.349 68.2411 633.992 62.3153L631.096 59.5567ZM608.544 67H582.816V71H608.544V67ZM598.368 59H606.72V55H598.368V59ZM606.72 59C612.849 59 617.813 57.2877 621.248 53.5541L618.304 50.8459C615.851 53.5123 612.111 55 606.72 55V59ZM621.233 53.5698C624.744 49.8355 626.288 44.1726 626.288 37.032H622.288C622.288 43.7154 620.824 48.1645 618.319 50.8302L621.233 53.5698ZM626.288 37.032C626.288 29.7804 624.751 24.0652 621.219 20.3835L618.333 23.1525C620.817 25.7428 622.288 30.2036 622.288 37.032H626.288ZM621.248 20.4139C617.813 16.6803 612.849 14.968 606.72 14.968V18.968C612.111 18.968 615.851 20.4557 618.304 23.1221L621.248 20.4139ZM606.72 14.968H598.368V18.968H606.72V14.968ZM596.368 16.968V57H600.368V16.968H596.368ZM650.586 69H648.586V71H650.586V69ZM650.586 25.512L649.284 23.9935L648.586 24.5921V25.512H650.586ZM655.386 22.92L656.155 24.7662L656.177 24.7571L656.198 24.7476L655.386 22.92ZM663.258 20.232L663.763 22.1672L663.777 22.1635L663.791 22.1596L663.258 20.232ZM679.386 19.656L678.884 21.592L679.386 19.656ZM683.322 21.384H685.322V20.4119L684.558 19.8114L683.322 21.384ZM683.322 31.848L682.864 33.7948L685.322 34.3732V31.848H683.322ZM679.194 31.272L679.041 33.2661L679.194 31.272ZM674.01 31.08L673.939 33.0787L673.974 33.08H674.01V31.08ZM668.922 31.08L669.002 33.0784L668.922 31.08ZM664.89 31.464L664.542 29.4944L662.89 29.786V31.464H664.89ZM664.89 69V71H666.89V69H664.89ZM652.586 69V25.512H648.586V69H652.586ZM651.888 27.0305C652.529 26.4805 653.879 25.7147 656.155 24.7662L654.617 21.0738C652.285 22.0453 650.435 23.0075 649.284 23.9935L651.888 27.0305ZM656.198 24.7476C658.385 23.7757 660.903 22.9132 663.763 22.1672L662.753 18.2968C659.725 19.0868 656.995 20.0163 654.574 21.0924L656.198 24.7476ZM663.791 22.1596C666.632 21.3738 669.461 20.984 672.282 20.984V16.984C669.087 16.984 665.9 17.4262 662.725 18.3044L663.791 22.1596ZM672.282 20.984C675.219 20.984 677.394 21.2056 678.884 21.592L679.888 17.72C677.922 17.2104 675.361 16.984 672.282 16.984V20.984ZM678.884 21.592C680.48 22.0058 681.495 22.4921 682.086 22.9566L684.558 19.8114C683.357 18.8679 681.748 18.2022 679.888 17.72L678.884 21.592ZM681.322 21.384V31.848H685.322V21.384H681.322ZM683.78 29.9012C682.556 29.6131 681.069 29.4103 679.347 29.2779L679.041 33.2661C680.647 33.3897 681.912 33.5708 682.864 33.7948L683.78 29.9012ZM679.347 29.2779C677.629 29.1457 675.849 29.08 674.01 29.08V33.08C675.755 33.08 677.431 33.1423 679.041 33.2661L679.347 29.2779ZM674.081 29.0813C672.245 29.0157 670.498 29.0154 668.842 29.0816L669.002 33.0784C670.546 33.0166 672.191 33.0163 673.939 33.0787L674.081 29.0813ZM668.842 29.0816C667.188 29.1477 665.748 29.2816 664.542 29.4944L665.238 33.4336C666.208 33.2624 667.456 33.1403 669.002 33.0784L668.842 29.0816ZM662.89 31.464V69H666.89V31.464H662.89ZM664.89 67H650.586V71H664.89V67ZM698.985 67.464L698.019 69.2152L698.037 69.225L698.055 69.2345L698.985 67.464ZM690.249 58.824L688.491 59.7775L688.501 59.7954L688.511 59.813L690.249 58.824ZM693.417 25.8L691.933 24.4587L691.932 24.4598L693.417 25.8ZM724.425 22.248L723.272 23.8819L723.279 23.8872L723.287 23.8924L724.425 22.248ZM731.721 32.328L733.61 31.671L731.721 32.328ZM733.929 48.456V50.456H735.909L735.929 48.4762L733.929 48.456ZM696.969 48.456L694.997 48.7882L695.278 50.456H696.969V48.456ZM695.433 39.336V37.336H693.068L693.461 39.6682L695.433 39.336ZM722.121 39.336L723.932 40.1839L725.265 37.336H722.121V39.336ZM720.009 43.848L718.009 43.8727L721.82 44.6959L720.009 43.848ZM717.801 32.904L716.137 34.0134V34.0134L717.801 32.904ZM705.993 31.08L704.953 29.3716L704.936 29.382L704.919 29.3927L705.993 31.08ZM702.633 35.592L700.772 34.8589L700.766 34.8743L700.76 34.8898L702.633 35.592ZM704.745 54.792L703.237 56.1063L703.247 56.1171L703.257 56.1278L704.745 54.792ZM720.681 57.96L721.115 59.9124L721.141 59.9067L721.166 59.9003L720.681 57.96ZM725.673 56.424L724.971 54.5513L725.673 56.424ZM729.609 54.888H731.609V51.9016L728.848 53.0386L729.609 54.888ZM729.609 67.176L730.378 69.0222L731.609 68.5093V67.176H729.609ZM721.833 69.48L721.441 67.5188L721.415 67.524L721.39 67.5297L721.833 69.48ZM711.945 68.44C707.359 68.44 703.366 67.5068 699.915 65.6935L698.055 69.2345C702.156 71.3892 706.803 72.44 711.945 72.44V68.44ZM699.951 65.7128C696.564 63.8443 693.919 61.2291 691.987 57.835L688.511 59.813C690.804 63.8429 693.982 66.9877 698.019 69.2152L699.951 65.7128ZM692.007 57.8705C690.148 54.442 689.177 50.3034 689.177 45.384H685.177C685.177 50.8326 686.254 55.654 688.491 59.7775L692.007 57.8705ZM689.177 45.384C689.177 37.2507 691.177 31.2657 694.902 27.1402L691.932 24.4598C687.337 29.5503 685.177 36.6213 685.177 45.384H689.177ZM694.901 27.1413C698.657 22.9859 704.077 20.792 711.465 20.792V16.792C703.237 16.792 696.625 19.2701 691.933 24.4587L694.901 27.1413ZM711.465 20.792C716.568 20.792 720.444 21.8859 723.272 23.8819L725.578 20.6141C721.878 18.0021 717.114 16.792 711.465 16.792V20.792ZM723.287 23.8924C726.214 25.919 728.413 28.905 729.832 32.985L733.61 31.671C731.957 26.919 729.292 23.185 725.563 20.6036L723.287 23.8924ZM729.832 32.985C731.271 37.1213 731.992 42.2538 731.929 48.4358L735.929 48.4762C735.994 41.9862 735.243 36.3667 733.61 31.671L729.832 32.985ZM733.929 46.456H696.969V50.456H733.929V46.456ZM698.941 48.1238L697.405 39.0038L693.461 39.6682L694.997 48.7882L698.941 48.1238ZM695.433 41.336H722.121V37.336H695.433V41.336ZM720.31 38.4881L718.198 43.0001L721.82 44.6959L723.932 40.1839L720.31 38.4881ZM722.009 43.8233C721.944 38.5815 721.217 34.4218 719.465 31.7946L716.137 34.0134C717.201 35.6102 717.946 38.7465 718.009 43.8727L722.009 43.8233ZM719.465 31.7946C717.589 28.9801 714.561 27.736 710.889 27.736V31.736C713.617 31.736 715.197 32.6039 716.137 34.0134L719.465 31.7946ZM710.889 27.736C708.746 27.736 706.751 28.2771 704.953 29.3716L707.033 32.7884C708.179 32.0909 709.448 31.736 710.889 31.736V27.736ZM704.919 29.3927C703.046 30.5845 701.704 32.4928 700.772 34.8589L704.494 36.325C705.226 34.4672 706.124 33.3675 707.067 32.7673L704.919 29.3927ZM700.76 34.8898C699.87 37.263 699.481 40.3864 699.481 44.136H703.481C703.481 40.5896 703.86 38.017 704.506 36.2942L700.76 34.8898ZM699.481 44.136C699.481 49.0386 700.639 53.1254 703.237 56.1063L706.253 53.4777C704.499 51.4666 703.481 48.4494 703.481 44.136H699.481ZM703.257 56.1278C706.021 59.2078 710.23 60.536 715.401 60.536V56.536C710.844 56.536 707.949 55.3681 706.233 53.4562L703.257 56.1278ZM715.401 60.536C717.337 60.536 719.243 60.3284 721.115 59.9124L720.247 56.0076C718.663 56.3596 717.049 56.536 715.401 56.536V60.536ZM721.166 59.9003C723.023 59.4361 724.76 58.9024 726.375 58.2967L724.971 54.5513C723.514 55.0976 721.923 55.5879 720.196 56.0197L721.166 59.9003ZM726.375 58.2967C727.924 57.7159 729.257 57.1959 730.37 56.7374L728.848 53.0386C727.785 53.4761 726.494 53.9801 724.971 54.5513L726.375 58.2967ZM727.609 54.888V67.176H731.609V54.888H727.609ZM728.84 65.3298C726.676 66.2312 724.214 66.9643 721.441 67.5188L722.225 71.4412C725.212 70.8437 727.934 70.0408 730.378 69.0222L728.84 65.3298ZM721.39 67.5297C718.756 68.1284 715.615 68.44 711.945 68.44V72.44C715.827 72.44 719.278 72.1116 722.276 71.4303L721.39 67.5297ZM754.235 69.576L754.664 67.6225L754.646 67.6185L754.628 67.6148L754.235 69.576ZM747.419 66.984L746.31 68.6481L746.342 68.6693L746.374 68.6892L747.419 66.984ZM742.907 61.896L741.118 62.7904L741.124 62.8012L741.129 62.8119L742.907 61.896ZM743.099 45.96L741.363 44.9677L741.352 44.9867L741.342 45.0058L743.099 45.96ZM748.859 40.776L749.717 42.5826L748.859 40.776ZM764.891 39.624L765.319 37.6702L764.891 39.624ZM770.363 41.448L769.498 43.251L769.511 43.2576L769.525 43.2639L770.363 41.448ZM774.299 43.944L776.292 43.7779L776.228 43.0086L775.664 42.4819L774.299 43.944ZM774.875 50.856L773.846 52.571L777.192 54.5787L776.868 50.6899L774.875 50.856ZM757.595 49.8L758.669 51.4873L758.678 51.4813L758.688 51.4752L757.595 49.8ZM756.539 57.384L758.152 56.2013L756.539 57.384ZM759.323 59.592L758.511 61.4196L758.529 61.4276L758.547 61.4353L759.323 59.592ZM769.883 59.688L769.251 57.7906L769.237 57.7953L769.223 57.8003L769.883 59.688ZM769.019 32.808L767.846 34.4279L767.878 34.4506L767.91 34.4721L769.019 32.808ZM752.507 32.328L753.153 34.221L753.165 34.2168L753.177 34.2124L752.507 32.328ZM745.595 35.88H743.595V39.9949L746.831 37.4526L745.595 35.88ZM745.595 23.208L744.547 21.5047L743.595 22.0904V23.208H745.595ZM753.275 20.328L752.782 18.3898L752.773 18.392L753.275 20.328ZM770.171 19.368L769.898 21.3492L770.171 19.368ZM775.739 20.808L775.03 22.678L775.058 22.6888L775.087 22.6987L775.739 20.808ZM780.827 23.688L779.547 25.2244L779.562 25.2372L779.578 25.2497L780.827 23.688ZM784.667 28.584L786.468 27.7129L784.667 28.584ZM786.107 35.976L788.107 35.9844V35.976H786.107ZM786.011 58.92L784.011 58.9116V58.92H786.011ZM783.227 65.64L784.562 67.1291L784.576 67.1166L784.59 67.1038L783.227 65.64ZM775.163 69.288L774.737 67.334L774.729 67.3356L775.163 69.288ZM762.587 68.44C759.774 68.44 757.135 68.1648 754.664 67.6225L753.806 71.5295C756.584 72.1392 759.513 72.44 762.587 72.44V68.44ZM754.628 67.6148C752.271 67.1434 750.225 66.3576 748.464 65.2788L746.374 68.6892C748.582 70.0424 751.08 70.9846 753.843 71.5372L754.628 67.6148ZM748.529 65.3199C746.9 64.2342 745.622 62.7992 744.685 60.9801L741.129 62.8119C742.368 65.2168 744.098 67.1738 746.31 68.6481L748.529 65.3199ZM744.696 61.0016C743.784 59.1767 743.275 56.8156 743.275 53.832H739.275C739.275 57.2485 739.855 60.2633 741.118 62.7904L744.696 61.0016ZM743.275 53.832C743.275 51.0972 743.826 48.8126 744.857 46.9142L741.342 45.0058C739.94 47.5874 739.275 50.5508 739.275 53.832H743.275ZM744.836 46.9523C745.893 45.102 747.488 43.6413 749.717 42.5826L748.001 38.9694C745.11 40.3427 742.865 42.338 741.363 44.9677L744.836 46.9523ZM749.717 42.5826C751.928 41.5325 754.843 40.952 758.555 40.952V36.952C754.46 36.952 750.911 37.5875 748.001 38.9694L749.717 42.5826ZM758.555 40.952C760.593 40.952 762.561 41.1617 764.464 41.5778L765.319 37.6702C763.125 37.1903 760.87 36.952 758.555 36.952V40.952ZM764.464 41.5778C766.387 41.9985 768.06 42.5609 769.498 43.251L771.229 39.645C769.467 38.7991 767.492 38.1455 765.319 37.6702L764.464 41.5778ZM769.525 43.2639C771.066 43.9752 772.178 44.7001 772.935 45.4061L775.664 42.4819C774.5 41.3959 772.988 40.4568 771.201 39.6321L769.525 43.2639ZM772.306 44.1101L772.882 51.0221L776.868 50.6899L776.292 43.7779L772.306 44.1101ZM775.904 49.141C774.42 48.2508 772.692 47.5767 770.752 47.0917L769.782 50.9723C771.426 51.3833 772.77 51.9252 773.846 52.571L775.904 49.141ZM770.752 47.0917C768.786 46.6 766.701 46.36 764.507 46.36V50.36C766.409 50.36 768.165 50.568 769.782 50.9723L770.752 47.0917ZM764.507 46.36C761.248 46.36 758.467 46.8438 756.503 48.1248L758.688 51.4752C759.668 50.8362 761.494 50.36 764.507 50.36V46.36ZM756.521 48.1127C754.42 49.4497 753.483 51.6023 753.483 54.12H757.483C757.483 52.6697 757.954 51.9423 758.669 51.4873L756.521 48.1127ZM753.483 54.12C753.483 55.7516 753.965 57.2559 754.926 58.5667L758.152 56.2013C757.705 55.5921 757.483 54.9204 757.483 54.12H753.483ZM754.926 58.5667C755.849 59.8245 757.06 60.7747 758.511 61.4196L760.135 57.7644C759.283 57.3853 758.638 56.8635 758.152 56.2013L754.926 58.5667ZM758.547 61.4353C760.001 62.0475 761.512 62.36 763.067 62.36V58.36C762.062 58.36 761.077 58.1605 760.099 57.7487L758.547 61.4353ZM763.067 62.36C766.328 62.36 768.91 62.1477 770.544 61.5757L769.223 57.8003C768.297 58.1243 766.335 58.36 763.067 58.36V62.36ZM770.516 61.5854C771.471 61.2669 772.358 60.7303 772.995 59.88C773.64 59.0208 773.899 58.0157 773.899 57H769.899C769.899 57.3283 769.823 57.4432 769.795 57.48C769.761 57.5257 769.639 57.6611 769.251 57.7906L770.516 61.5854ZM773.899 57V39.144H769.899V57H773.899ZM773.899 39.144C773.899 35.7389 772.758 32.8968 770.129 31.1439L767.91 34.4721C769.12 35.2792 769.899 36.6611 769.899 39.144H773.899ZM770.192 31.1881C767.861 29.5002 764.726 28.792 761.051 28.792V32.792C764.288 32.792 766.465 33.4278 767.846 34.4279L770.192 31.1881ZM761.051 28.792C757.988 28.792 754.914 29.3496 751.837 30.4436L753.177 34.2124C755.861 33.2584 758.482 32.792 761.051 32.792V28.792ZM751.862 30.435C748.894 31.4467 746.374 32.7248 744.36 34.3074L746.831 37.4526C748.401 36.2192 750.488 35.1293 753.153 34.221L751.862 30.435ZM747.595 35.88V23.208H743.595V35.88H747.595ZM746.643 24.9113C748.052 24.0446 750.383 23.1441 753.777 22.264L752.773 18.392C749.256 19.3039 746.467 20.3234 744.547 21.5047L746.643 24.9113ZM753.769 22.2662C757.099 21.4184 760.866 20.984 765.083 20.984V16.984C760.597 16.984 756.491 17.4456 752.782 18.3898L753.769 22.2662ZM765.083 20.984C766.511 20.984 768.114 21.1031 769.898 21.3492L770.445 17.3868C768.517 17.1209 766.728 16.984 765.083 16.984V20.984ZM769.898 21.3492C771.596 21.5835 773.306 22.0242 775.03 22.678L776.449 18.938C774.46 18.1838 772.458 17.6645 770.445 17.3868L769.898 21.3492ZM775.087 22.6987C776.71 23.2582 778.194 24.0967 779.547 25.2244L782.108 22.1516C780.389 20.7193 778.481 19.6378 776.391 18.9173L775.087 22.6987ZM779.578 25.2497C780.928 26.3296 782.027 27.7188 782.867 29.4551L786.468 27.7129C785.388 25.4812 783.927 23.6064 782.077 22.1263L779.578 25.2497ZM782.867 29.4551C783.659 31.0923 784.107 33.2372 784.107 35.976H788.107C788.107 32.8268 787.595 30.0437 786.468 27.7129L782.867 29.4551ZM784.107 35.9676L784.011 58.9116L788.011 58.9284L788.107 35.9844L784.107 35.9676ZM784.011 58.92C784.011 61.1696 783.277 62.8611 781.864 64.1762L784.59 67.1038C786.89 64.9629 788.011 62.1744 788.011 58.92H784.011ZM781.892 64.1509C780.383 65.5036 778.06 66.6089 774.737 67.334L775.59 71.242C779.306 70.4311 782.359 69.1044 784.562 67.1291L781.892 64.1509ZM774.729 67.3356C771.459 68.0624 767.422 68.44 762.587 68.44V72.44C767.609 72.44 771.955 72.0496 775.597 71.2404L774.729 67.3356ZM843.925 69V71H845.925V69H843.925ZM829.621 69H827.621V71H829.621V69ZM829.045 35.88L827.136 36.4765L827.152 36.5299L827.172 36.5822L829.045 35.88ZM827.509 33.288L826.034 34.6395L826.064 34.6715L826.095 34.7022L827.509 33.288ZM824.629 31.56L823.937 33.4367L823.982 33.453L824.026 33.4672L824.629 31.56ZM816.085 31.464L816.594 33.3981L816.627 33.3895L816.659 33.3797L816.085 31.464ZM813.109 32.52L812.214 30.7311L811.109 31.2839V32.52H813.109ZM813.109 69V71H815.109V69H813.109ZM798.805 69H796.805V71H798.805V69ZM798.805 24.552L797.873 22.7822L796.805 23.3445V24.552H798.805ZM803.605 22.632L804.219 24.5354L804.246 24.5265L804.274 24.5169L803.605 22.632ZM810.133 20.808L810.555 22.7628L810.133 20.808ZM817.237 19.56L816.976 17.5771L816.969 17.578L817.237 19.56ZM834.901 20.808L834.172 22.6705L834.196 22.6799L834.22 22.6887L834.901 20.808ZM841.621 26.184L839.898 27.2L839.908 27.2162L839.917 27.2322L841.621 26.184ZM829.237 27.816L827.923 26.3078L825.398 28.5071L828.532 29.6876L829.237 27.816ZM836.437 23.304L837.264 25.1247L837.281 25.117L837.298 25.109L836.437 23.304ZM845.365 20.232L845.803 22.1834L845.822 22.1792L845.841 22.1746L845.365 20.232ZM865.045 20.808L864.316 22.6705L864.34 22.6799L864.365 22.6887L865.045 20.808ZM871.765 26.184L870.042 27.2L870.052 27.2162L870.061 27.2322L871.765 26.184ZM874.069 69V71H876.069V69H874.069ZM859.765 69H857.765V71H859.765V69ZM859.189 35.88L857.28 36.4765L857.296 36.5299L857.316 36.5822L859.189 35.88ZM857.653 33.288L856.178 34.6394L856.208 34.6715L856.239 34.7022L857.653 33.288ZM854.773 31.56L854.081 33.4367L854.126 33.453L854.17 33.4672L854.773 31.56ZM846.229 31.56L846.831 33.4672L846.86 33.4579L846.889 33.4477L846.229 31.56ZM843.253 33.096L842.548 34.9676L843.638 35.3783L844.533 34.6324L843.253 33.096ZM841.925 36.36V69H845.925V36.36H841.925ZM843.925 67H829.621V71H843.925V67ZM831.621 69V39.24H827.621V69H831.621ZM831.621 39.24C831.621 37.8109 831.395 36.45 830.917 35.1777L827.172 36.5822C827.463 37.358 827.621 38.2371 827.621 39.24H831.621ZM830.954 35.2834C830.545 33.9754 829.873 32.8239 828.923 31.8738L826.095 34.7022C826.552 35.1601 826.905 35.7365 827.136 36.4765L830.954 35.2834ZM828.983 31.9366C827.994 30.858 826.707 30.1189 825.231 29.6528L824.026 33.4672C824.983 33.7691 825.615 34.182 826.034 34.6395L828.983 31.9366ZM825.32 29.6833C823.823 29.1316 822.103 28.888 820.213 28.888V32.888C821.779 32.888 823.003 33.0924 823.937 33.4367L825.32 29.6833ZM820.213 28.888C818.566 28.888 816.994 29.1031 815.51 29.5483L816.659 33.3797C817.735 33.0569 818.916 32.888 820.213 32.888V28.888ZM815.576 29.5299C814.282 29.8703 813.148 30.2644 812.214 30.7311L814.003 34.3089C814.606 34.0076 815.456 33.6977 816.594 33.3981L815.576 29.5299ZM811.109 32.52V69H815.109V32.52H811.109ZM813.109 67H798.805V71H813.109V67ZM800.805 69V24.552H796.805V69H800.805ZM799.736 26.3218C800.813 25.7553 802.294 25.1562 804.219 24.5354L802.991 20.7286C800.947 21.3878 799.229 22.0687 797.873 22.7822L799.736 26.3218ZM804.274 24.5169C806.166 23.8453 808.259 23.2594 810.555 22.7628L809.71 18.8532C807.271 19.3806 805.011 20.0107 802.936 20.7471L804.274 24.5169ZM810.555 22.7628C812.873 22.2617 815.189 21.8549 817.505 21.542L816.969 17.578C814.548 17.9051 812.129 18.3302 809.71 18.8532L810.555 22.7628ZM817.498 21.5429C819.859 21.2321 822.011 21.08 823.957 21.08V17.08C821.806 17.08 819.478 17.2479 816.976 17.5771L817.498 21.5429ZM823.957 21.08C828.147 21.08 831.53 21.6366 834.172 22.6705L835.63 18.9455C832.384 17.6754 828.471 17.08 823.957 17.08V21.08ZM834.22 22.6887C836.839 23.6361 838.687 25.147 839.898 27.2L843.344 25.168C841.61 22.229 838.978 20.1559 835.581 18.9272L834.22 22.6887ZM839.917 27.2322C841.19 29.2993 841.925 32.281 841.925 36.36H845.925C845.925 31.863 845.124 28.0607 843.324 25.1358L839.917 27.2322ZM830.55 29.3242C832.365 27.7433 834.595 26.3383 837.264 25.1247L835.609 21.4833C832.647 22.8297 830.076 24.4327 827.923 26.3078L830.55 29.3242ZM837.298 25.109C839.975 23.8314 842.809 22.8556 845.803 22.1834L844.927 18.2806C841.649 19.0164 838.531 20.0886 835.575 21.499L837.298 25.109ZM845.841 22.1746C848.851 21.4374 851.601 21.08 854.101 21.08V17.08C851.224 17.08 848.151 17.4906 844.889 18.2894L845.841 22.1746ZM854.101 21.08C858.291 21.08 861.674 21.6366 864.316 22.6705L865.774 18.9455C862.528 17.6754 858.615 17.08 854.101 17.08V21.08ZM864.365 22.6887C866.984 23.6361 868.831 25.147 870.042 27.2L873.487 25.168C871.754 22.229 869.122 20.1559 865.725 18.9272L864.365 22.6887ZM870.061 27.2322C871.333 29.2993 872.069 32.281 872.069 36.36H876.069C876.069 31.863 875.268 28.0607 873.468 25.1358L870.061 27.2322ZM872.069 36.36V69H876.069V36.36H872.069ZM874.069 67H859.765V71H874.069V67ZM861.765 69V39.24H857.765V69H861.765ZM861.765 39.24C861.765 37.8109 861.539 36.45 861.061 35.1778L857.316 36.5822C857.607 37.358 857.765 38.2371 857.765 39.24H861.765ZM861.098 35.2834C860.689 33.9754 860.017 32.8239 859.067 31.8738L856.239 34.7022C856.696 35.1601 857.049 35.7365 857.28 36.4765L861.098 35.2834ZM859.127 31.9366C858.138 30.858 856.851 30.1189 855.375 29.6528L854.17 33.4672C855.127 33.7691 855.759 34.182 856.178 34.6394L859.127 31.9366ZM855.464 29.6833C853.967 29.1316 852.247 28.888 850.357 28.888V32.888C851.923 32.888 853.147 33.0924 854.081 33.4367L855.464 29.6833ZM850.357 28.888C848.679 28.888 847.078 29.1439 845.568 29.6723L846.889 33.4477C847.94 33.0801 849.091 32.888 850.357 32.888V28.888ZM845.626 29.6528C844.228 30.0945 842.987 30.7141 841.972 31.5596L844.533 34.6324C845.055 34.1979 845.797 33.7935 846.831 33.4672L845.626 29.6528ZM843.958 31.2244L829.942 25.9444L828.532 29.6876L842.548 34.9676L843.958 31.2244ZM913.753 69H911.753V71H913.753V69ZM913.753 4.96799V2.96799H911.753V4.96799H913.753ZM929.305 4.96799H931.305V2.96799H929.305V4.96799ZM929.305 30.888H927.305V32.888H929.305V30.888ZM952.826 30.888V32.888H954.826V30.888H952.826ZM952.826 4.96799V2.96799H950.826V4.96799H952.826ZM968.281 4.96799H970.281V2.96799H968.281V4.96799ZM968.281 69V71H970.281V69H968.281ZM952.826 69H950.826V71H952.826V69ZM952.826 43.56H954.826V41.56H952.826V43.56ZM929.305 43.56V41.56H927.305V43.56H929.305ZM929.305 69V71H931.305V69H929.305ZM915.753 69V4.96799H911.753V69H915.753ZM913.753 6.96799H929.305V2.96799H913.753V6.96799ZM927.305 4.96799V30.888H931.305V4.96799H927.305ZM929.305 32.888H952.826V28.888H929.305V32.888ZM954.826 30.888V4.96799H950.826V30.888H954.826ZM952.826 6.96799H968.281V2.96799H952.826V6.96799ZM966.281 4.96799V69H970.281V4.96799H966.281ZM968.281 67H952.826V71H968.281V67ZM954.826 69V43.56H950.826V69H954.826ZM952.826 41.56H929.305V45.56H952.826V41.56ZM927.305 43.56V69H931.305V43.56H927.305ZM929.305 67H913.753V71H929.305V67ZM984.79 63.912L983.323 65.2721L983.334 65.2831L983.344 65.294L984.79 63.912ZM984.886 24.84L986.266 26.2872L986.267 26.2867L984.886 24.84ZM1016.95 21.576L1016.04 23.3586L1016.06 23.368L1016.08 23.3771L1016.95 21.576ZM1025.3 29.928L1023.51 30.8102L1023.51 30.8224L1023.52 30.8345L1025.3 29.928ZM1021.75 63.912L1023.17 65.3157L1023.18 65.3105L1023.18 65.3053L1021.75 63.912ZM1009.17 57.384L1010.33 59.016L1010.34 59.0116L1010.34 59.0071L1009.17 57.384ZM1012.73 52.488L1010.86 51.7737L1010.85 51.7891L1010.85 51.8045L1012.73 52.488ZM1012.73 36.072L1010.85 36.7555L1010.86 36.7904L1010.87 36.8248L1012.73 36.072ZM1009.17 31.56L1008.14 33.275L1008.17 33.2904L1008.2 33.305L1009.17 31.56ZM997.366 31.56L998.426 33.256V33.256L997.366 31.56ZM993.91 36.168L992.03 35.4845L992.024 35.5011L992.018 35.5178L993.91 36.168ZM995.35 55.464L993.699 56.5934L993.716 56.6184L993.734 56.6429L995.35 55.464ZM1003.32 68.44C995.468 68.44 989.898 66.3611 986.235 62.53L983.344 65.294C988.002 70.1669 994.783 72.44 1003.32 72.44V68.44ZM986.256 62.5519C982.623 58.6345 980.646 52.736 980.646 44.52H976.646C976.646 53.328 978.765 60.3575 983.323 65.2721L986.256 62.5519ZM980.646 44.52C980.646 35.6004 982.683 29.7052 986.266 26.2872L983.505 23.3928C978.769 27.9108 976.646 35.1356 976.646 44.52H980.646ZM986.267 26.2867C989.996 22.7266 995.57 20.792 1003.32 20.792V16.792C994.938 16.792 988.223 18.8894 983.505 23.3933L986.267 26.2867ZM1003.32 20.792C1008.54 20.792 1012.75 21.6846 1016.04 23.3586L1017.86 19.7934C1013.85 17.7554 1008.97 16.792 1003.32 16.792V20.792ZM1016.08 23.3771C1019.38 24.9705 1021.84 27.4263 1023.51 30.8102L1027.1 29.0458C1025.05 24.8777 1021.94 21.7655 1017.82 19.7749L1016.08 23.3771ZM1023.52 30.8345C1025.25 34.2394 1026.18 38.7632 1026.18 44.52H1030.18C1030.18 38.3728 1029.19 33.1686 1027.08 29.0215L1023.52 30.8345ZM1026.18 44.52C1026.18 52.7139 1024.12 58.5995 1020.31 62.5187L1023.18 65.3053C1027.95 60.3925 1030.18 53.3501 1030.18 44.52H1026.18ZM1020.33 62.5083C1016.52 66.3712 1010.95 68.44 1003.32 68.44V72.44C1011.68 72.44 1018.4 70.1568 1023.17 65.3157L1020.33 62.5083ZM1003.32 61.016C1005.99 61.016 1008.38 60.3989 1010.33 59.016L1008.02 55.752C1006.9 56.5451 1005.38 57.016 1003.32 57.016V61.016ZM1010.34 59.0071C1012.31 57.5886 1013.72 55.6064 1014.61 53.1715L1010.85 51.8045C1010.2 53.5936 1009.24 54.8754 1008.01 55.7609L1010.34 59.0071ZM1014.59 53.2023C1015.54 50.7343 1015.97 47.8208 1015.97 44.52H1011.97C1011.97 47.4911 1011.58 49.8897 1010.86 51.7737L1014.59 53.2023ZM1015.97 44.52C1015.97 40.8185 1015.55 37.709 1014.58 35.3192L1010.87 36.8248C1011.57 38.531 1011.97 41.0535 1011.97 44.52H1015.97ZM1014.61 35.3885C1013.71 32.9316 1012.26 30.9949 1010.15 29.815L1008.2 33.305C1009.29 33.9171 1010.2 34.9884 1010.85 36.7555L1014.61 35.3885ZM1010.2 29.845C1008.23 28.6593 1005.9 28.12 1003.32 28.12V32.12C1005.34 32.12 1006.92 32.5407 1008.14 33.275L1010.2 29.845ZM1003.32 28.12C1000.64 28.12 998.251 28.6482 996.306 29.864L998.426 33.256C999.552 32.5518 1001.14 32.12 1003.32 32.12V28.12ZM996.306 29.864C994.308 31.1129 992.913 33.0563 992.03 35.4845L995.789 36.8515C996.442 35.0557 997.352 33.9271 998.426 33.256L996.306 29.864ZM992.018 35.5178C991.212 37.8646 990.854 40.8991 990.854 44.52H994.854C994.854 41.1009 995.2 38.5674 995.801 36.8182L992.018 35.5178ZM990.854 44.52C990.854 49.5498 991.703 53.6757 993.699 56.5934L997 54.3346C995.669 52.3883 994.854 49.2182 994.854 44.52H990.854ZM993.734 56.6429C995.924 59.6436 999.255 61.016 1003.32 61.016V57.016C1000.21 57.016 998.232 56.0204 996.965 54.2851L993.734 56.6429ZM1083.17 69V71H1085.17V69H1083.17ZM1068.87 69H1066.87V71H1068.87V69ZM1068.29 35.88L1066.39 36.4765L1066.4 36.5299L1066.42 36.5822L1068.29 35.88ZM1066.76 33.288L1065.28 34.6395L1065.31 34.6715L1065.34 34.7022L1066.76 33.288ZM1063.88 31.56L1063.19 33.4367L1063.23 33.453L1063.28 33.4672L1063.88 31.56ZM1055.33 31.464L1055.84 33.3981L1055.88 33.3895L1055.91 33.3797L1055.33 31.464ZM1052.36 32.52L1051.46 30.7311L1050.36 31.2839V32.52H1052.36ZM1052.36 69V71H1054.36V69H1052.36ZM1038.05 69H1036.05V71H1038.05V69ZM1038.05 24.552L1037.12 22.7822L1036.05 23.3445V24.552H1038.05ZM1042.85 22.632L1043.47 24.5354L1043.5 24.5265L1043.52 24.5169L1042.85 22.632ZM1049.38 20.808L1049.81 22.7628L1049.38 20.808ZM1056.49 19.56L1056.23 17.5771L1056.22 17.578L1056.49 19.56ZM1074.15 20.808L1073.42 22.6705L1073.45 22.6799L1073.47 22.6887L1074.15 20.808ZM1080.87 26.184L1079.15 27.2L1079.16 27.2162L1079.17 27.2322L1080.87 26.184ZM1068.49 27.816L1067.17 26.3078L1064.65 28.5071L1067.78 29.6876L1068.49 27.816ZM1075.69 23.304L1076.51 25.1247L1076.53 25.117L1076.55 25.109L1075.69 23.304ZM1084.61 20.232L1085.05 22.1834L1085.07 22.1792L1085.09 22.1746L1084.61 20.232ZM1104.29 20.808L1103.57 22.6705L1103.59 22.6799L1103.61 22.6887L1104.29 20.808ZM1111.01 26.184L1109.29 27.2L1109.3 27.2162L1109.31 27.2322L1111.01 26.184ZM1113.32 69V71H1115.32V69H1113.32ZM1099.01 69H1097.01V71H1099.01V69ZM1098.44 35.88L1096.53 36.4765L1096.55 36.5299L1096.57 36.5822L1098.44 35.88ZM1096.9 33.288L1095.43 34.6394L1095.46 34.6715L1095.49 34.7022L1096.9 33.288ZM1094.02 31.56L1093.33 33.4367L1093.38 33.453L1093.42 33.4672L1094.02 31.56ZM1085.48 31.56L1086.08 33.4672L1086.11 33.4579L1086.14 33.4477L1085.48 31.56ZM1082.5 33.096L1081.8 34.9676L1082.89 35.3783L1083.78 34.6324L1082.5 33.096ZM1081.17 36.36V69H1085.17V36.36H1081.17ZM1083.17 67H1068.87V71H1083.17V67ZM1070.87 69V39.24H1066.87V69H1070.87ZM1070.87 39.24C1070.87 37.8109 1070.64 36.45 1070.17 35.1777L1066.42 36.5822C1066.71 37.358 1066.87 38.2371 1066.87 39.24H1070.87ZM1070.2 35.2834C1069.79 33.9754 1069.12 32.8239 1068.17 31.8738L1065.34 34.7022C1065.8 35.1601 1066.15 35.7365 1066.39 36.4765L1070.2 35.2834ZM1068.23 31.9366C1067.24 30.858 1065.96 30.1189 1064.48 29.6528L1063.28 33.4672C1064.23 33.7691 1064.87 34.182 1065.28 34.6395L1068.23 31.9366ZM1064.57 29.6833C1063.07 29.1316 1061.35 28.888 1059.46 28.888V32.888C1061.03 32.888 1062.25 33.0924 1063.19 33.4367L1064.57 29.6833ZM1059.46 28.888C1057.82 28.888 1056.24 29.1031 1054.76 29.5483L1055.91 33.3797C1056.99 33.0569 1058.17 32.888 1059.46 32.888V28.888ZM1054.83 29.5299C1053.53 29.8703 1052.4 30.2644 1051.46 30.7311L1053.25 34.3089C1053.86 34.0076 1054.71 33.6977 1055.84 33.3981L1054.83 29.5299ZM1050.36 32.52V69H1054.36V32.52H1050.36ZM1052.36 67H1038.05V71H1052.36V67ZM1040.05 69V24.552H1036.05V69H1040.05ZM1038.99 26.3218C1040.06 25.7553 1041.54 25.1562 1043.47 24.5354L1042.24 20.7286C1040.2 21.3878 1038.48 22.0687 1037.12 22.7822L1038.99 26.3218ZM1043.52 24.5169C1045.42 23.8453 1047.51 23.2594 1049.81 22.7628L1048.96 18.8532C1046.52 19.3806 1044.26 20.0107 1042.19 20.7471L1043.52 24.5169ZM1049.81 22.7628C1052.12 22.2617 1054.44 21.8549 1056.75 21.542L1056.22 17.578C1053.8 17.9051 1051.38 18.3302 1048.96 18.8532L1049.81 22.7628ZM1056.75 21.5429C1059.11 21.2321 1061.26 21.08 1063.21 21.08V17.08C1061.06 17.08 1058.73 17.2479 1056.23 17.5771L1056.75 21.5429ZM1063.21 21.08C1067.4 21.08 1070.78 21.6366 1073.42 22.6705L1074.88 18.9455C1071.63 17.6754 1067.72 17.08 1063.21 17.08V21.08ZM1073.47 22.6887C1076.09 23.6361 1077.94 25.147 1079.15 27.2L1082.59 25.168C1080.86 22.229 1078.23 20.1559 1074.83 18.9272L1073.47 22.6887ZM1079.17 27.2322C1080.44 29.2993 1081.17 32.281 1081.17 36.36H1085.17C1085.17 31.863 1084.37 28.0607 1082.57 25.1358L1079.17 27.2322ZM1069.8 29.3242C1071.62 27.7433 1073.84 26.3383 1076.51 25.1247L1074.86 21.4833C1071.9 22.8297 1069.33 24.4327 1067.17 26.3078L1069.8 29.3242ZM1076.55 25.109C1079.22 23.8314 1082.06 22.8556 1085.05 22.1834L1084.18 18.2806C1080.9 19.0164 1077.78 20.0886 1074.83 21.499L1076.55 25.109ZM1085.09 22.1746C1088.1 21.4374 1090.85 21.08 1093.35 21.08V17.08C1090.47 17.08 1087.4 17.4906 1084.14 18.2894L1085.09 22.1746ZM1093.35 21.08C1097.54 21.08 1100.92 21.6366 1103.57 22.6705L1105.02 18.9455C1101.78 17.6754 1097.86 17.08 1093.35 17.08V21.08ZM1103.61 22.6887C1106.23 23.6361 1108.08 25.147 1109.29 27.2L1112.74 25.168C1111 22.229 1108.37 20.1559 1104.97 18.9272L1103.61 22.6887ZM1109.31 27.2322C1110.58 29.2993 1111.32 32.281 1111.32 36.36H1115.32C1115.32 31.863 1114.52 28.0607 1112.72 25.1358L1109.31 27.2322ZM1111.32 36.36V69H1115.32V36.36H1111.32ZM1113.32 67H1099.01V71H1113.32V67ZM1101.01 69V39.24H1097.01V69H1101.01ZM1101.01 39.24C1101.01 37.8109 1100.79 36.45 1100.31 35.1778L1096.57 36.5822C1096.86 37.358 1097.01 38.2371 1097.01 39.24H1101.01ZM1100.35 35.2834C1099.94 33.9754 1099.27 32.8239 1098.32 31.8738L1095.49 34.7022C1095.95 35.1601 1096.3 35.7365 1096.53 36.4765L1100.35 35.2834ZM1098.38 31.9366C1097.39 30.858 1096.1 30.1189 1094.62 29.6528L1093.42 33.4672C1094.38 33.7691 1095.01 34.182 1095.43 34.6394L1098.38 31.9366ZM1094.71 29.6833C1093.22 29.1316 1091.5 28.888 1089.61 28.888V32.888C1091.17 32.888 1092.4 33.0924 1093.33 33.4367L1094.71 29.6833ZM1089.61 28.888C1087.93 28.888 1086.33 29.1439 1084.82 29.6723L1086.14 33.4477C1087.19 33.0801 1088.34 32.888 1089.61 32.888V28.888ZM1084.88 29.6528C1083.48 30.0945 1082.24 30.7141 1081.22 31.5596L1083.78 34.6324C1084.3 34.1979 1085.05 33.7935 1086.08 33.4672L1084.88 29.6528ZM1083.21 31.2244L1069.19 25.9444L1067.78 29.6876L1081.8 34.9676L1083.21 31.2244ZM1135.02 67.464L1134.05 69.2152L1134.07 69.225L1134.09 69.2345L1135.02 67.464ZM1126.28 58.824L1124.52 59.7775L1124.53 59.7954L1124.54 59.813L1126.28 58.824ZM1129.45 25.8L1127.96 24.4587L1127.96 24.4598L1129.45 25.8ZM1160.46 22.248L1159.3 23.8819L1159.31 23.8872L1159.32 23.8924L1160.46 22.248ZM1167.75 32.328L1169.64 31.671L1167.75 32.328ZM1169.96 48.456V50.456H1171.94L1171.96 48.4762L1169.96 48.456ZM1133 48.456L1131.03 48.7882L1131.31 50.456H1133V48.456ZM1131.46 39.336V37.336H1129.1L1129.49 39.6682L1131.46 39.336ZM1158.15 39.336L1159.96 40.1839L1161.3 37.336H1158.15V39.336ZM1156.04 43.848L1154.04 43.8727L1157.85 44.6959L1156.04 43.848ZM1153.83 32.904L1152.17 34.0134V34.0134L1153.83 32.904ZM1142.02 31.08L1140.98 29.3716L1140.97 29.382L1140.95 29.3927L1142.02 31.08ZM1138.66 35.592L1136.8 34.8589L1136.8 34.8743L1136.79 34.8898L1138.66 35.592ZM1140.78 54.792L1139.27 56.1063L1139.28 56.1171L1139.29 56.1278L1140.78 54.792ZM1156.71 57.96L1157.15 59.9124L1157.17 59.9067L1157.2 59.9003L1156.71 57.96ZM1161.7 56.424L1161 54.5513L1161.7 56.424ZM1165.64 54.888H1167.64V51.9016L1164.88 53.0386L1165.64 54.888ZM1165.64 67.176L1166.41 69.0222L1167.64 68.5093V67.176H1165.64ZM1157.86 69.48L1157.47 67.5188L1157.45 67.524L1157.42 67.5297L1157.86 69.48ZM1147.98 68.44C1143.39 68.44 1139.4 67.5068 1135.95 65.6935L1134.09 69.2345C1138.19 71.3892 1142.83 72.44 1147.98 72.44V68.44ZM1135.98 65.7128C1132.6 63.8443 1129.95 61.2291 1128.02 57.835L1124.54 59.813C1126.83 63.8429 1130.01 66.9877 1134.05 69.2152L1135.98 65.7128ZM1128.04 57.8705C1126.18 54.442 1125.21 50.3034 1125.21 45.384H1121.21C1121.21 50.8326 1122.29 55.654 1124.52 59.7775L1128.04 57.8705ZM1125.21 45.384C1125.21 37.2507 1127.21 31.2657 1130.93 27.1402L1127.96 24.4598C1123.37 29.5503 1121.21 36.6213 1121.21 45.384H1125.21ZM1130.93 27.1413C1134.69 22.9859 1140.11 20.792 1147.5 20.792V16.792C1139.27 16.792 1132.66 19.2701 1127.96 24.4587L1130.93 27.1413ZM1147.5 20.792C1152.6 20.792 1156.48 21.8859 1159.3 23.8819L1161.61 20.6141C1157.91 18.0021 1153.15 16.792 1147.5 16.792V20.792ZM1159.32 23.8924C1162.25 25.919 1164.44 28.905 1165.86 32.985L1169.64 31.671C1167.99 26.919 1165.32 23.185 1161.59 20.6036L1159.32 23.8924ZM1165.86 32.985C1167.3 37.1213 1168.02 42.2538 1167.96 48.4358L1171.96 48.4762C1172.03 41.9862 1171.27 36.3667 1169.64 31.671L1165.86 32.985ZM1169.96 46.456H1133V50.456H1169.96V46.456ZM1134.97 48.1238L1133.44 39.0038L1129.49 39.6682L1131.03 48.7882L1134.97 48.1238ZM1131.46 41.336H1158.15V37.336H1131.46V41.336ZM1156.34 38.4881L1154.23 43.0001L1157.85 44.6959L1159.96 40.1839L1156.34 38.4881ZM1158.04 43.8233C1157.98 38.5815 1157.25 34.4218 1155.5 31.7946L1152.17 34.0134C1153.23 35.6102 1153.98 38.7465 1154.04 43.8727L1158.04 43.8233ZM1155.5 31.7946C1153.62 28.9801 1150.59 27.736 1146.92 27.736V31.736C1149.65 31.736 1151.23 32.6039 1152.17 34.0134L1155.5 31.7946ZM1146.92 27.736C1144.78 27.736 1142.78 28.2771 1140.98 29.3716L1143.06 32.7884C1144.21 32.0909 1145.48 31.736 1146.92 31.736V27.736ZM1140.95 29.3927C1139.08 30.5845 1137.74 32.4928 1136.8 34.8589L1140.53 36.325C1141.26 34.4672 1142.15 33.3675 1143.1 32.7673L1140.95 29.3927ZM1136.79 34.8898C1135.9 37.263 1135.51 40.3864 1135.51 44.136H1139.51C1139.51 40.5896 1139.89 38.017 1140.54 36.2942L1136.79 34.8898ZM1135.51 44.136C1135.51 49.0386 1136.67 53.1254 1139.27 56.1063L1142.28 53.4777C1140.53 51.4666 1139.51 48.4494 1139.51 44.136H1135.51ZM1139.29 56.1278C1142.05 59.2078 1146.26 60.536 1151.43 60.536V56.536C1146.88 56.536 1143.98 55.3681 1142.26 53.4562L1139.29 56.1278ZM1151.43 60.536C1153.37 60.536 1155.27 60.3284 1157.15 59.9124L1156.28 56.0076C1154.69 56.3596 1153.08 56.536 1151.43 56.536V60.536ZM1157.2 59.9003C1159.05 59.4361 1160.79 58.9024 1162.41 58.2967L1161 54.5513C1159.55 55.0976 1157.95 55.5879 1156.23 56.0197L1157.2 59.9003ZM1162.41 58.2967C1163.96 57.7159 1165.29 57.1959 1166.4 56.7374L1164.88 53.0386C1163.82 53.4761 1162.53 53.9801 1161 54.5513L1162.41 58.2967ZM1163.64 54.888V67.176H1167.64V54.888H1163.64ZM1164.87 65.3298C1162.71 66.2312 1160.24 66.9643 1157.47 67.5188L1158.26 71.4412C1161.24 70.8437 1163.96 70.0408 1166.41 69.0222L1164.87 65.3298ZM1157.42 67.5297C1154.79 68.1284 1151.65 68.44 1147.98 68.44V72.44C1151.86 72.44 1155.31 72.1116 1158.31 71.4303L1157.42 67.5297Z" fill="black" mask="url(#path-1-outside-1_154_5)"/>
</g>
<defs>
<filter id="filter0_d_154_5" x="0.81601" y="0.76001" width="1175.15" height="99.648" filterUnits="userSpaceOnUse" color-interpolation-filters="sRGB">
<feFlood flood-opacity="0" result="BackgroundImageFix"/>
<feColorMatrix in="SourceAlpha" type="matrix" values="0 0 0 0 0 0 0 0 0 0 0 0 0 0 0 0 0 0 127 0" result="hardAlpha"/>
<feOffset dy="4"/>
<feGaussianBlur stdDeviation="2"/>
<feComposite in2="hardAlpha" operator="out"/>
<feColorMatrix type="matrix" values="0 0 0 0 0 0 0 0 0 0 0 0 0 0 0 0 0 0 0.25 0"/>
<feBlend mode="normal" in2="BackgroundImageFix" result="effect1_dropShadow_154_5"/>
<feBlend mode="normal" in="SourceGraphic" in2="effect1_dropShadow_154_5" result="shape"/>
</filter>
</defs>
</svg>
