<svg width="292" height="305" viewBox="0 0 292 305" fill="none" xmlns="http://www.w3.org/2000/svg">
<path d="M146 298.384L286.384 212.016L146 125.647L5.616 212.016L146 298.384Z" fill="#360ECA"/>
<g opacity="0.8">
<path d="M146 298.384L286.384 212.016L146 125.647L5.616 212.016L146 298.384Z" fill="white"/>
</g>
<path d="M146 304.781V298.384L286.384 212.016V93.6545L291.581 90.4559V215.214L146 304.781Z" fill="#455A64"/>
<path d="M146 304.781V298.384L5.61601 212.016V93.6545L0.412811 90.4559V215.214L146 304.781Z" fill="#37474F"/>
<path d="M0.412811 90.456L146 0.888916V7.28608L5.61601 93.6546L0.412811 90.456Z" fill="#455A64"/>
<path d="M146 7.28613V125.647L5.616 212.016V93.6546L146 7.28613Z" fill="white"/>
<path d="M291.581 90.456L146 0.888916V7.28608L286.384 93.6546L291.581 90.456Z" fill="#37474F"/>
<path d="M146 125.647V7.28613L286.384 93.6546V212.016L146 125.647Z" fill="#360ECA"/>
<path opacity="0.6" d="M146 125.647V7.28613L286.384 93.6546V212.016L146 125.647Z" fill="white"/>
<path d="M286.384 212.016V205.83L146 119.461V125.647L286.384 212.016Z" fill="#FAFAFA"/>
<path d="M9.90399 203.218V197.953L141.725 116.836V122.101L9.90399 203.218Z" fill="#F0F0F0"/>
<path d="M137.45 119.468L141.725 122.101V16.0975L137.443 18.7301L137.45 119.468Z" fill="#E0E0E0"/>
<path d="M104.918 63.8513V139.471L109.194 142.104V61.2188L104.918 63.8513ZM69.6544 161.186L73.936 163.819V82.9336L69.6544 85.5661V161.186ZM36.7072 181.462L40.9824 184.095V103.209L36.7008 105.842L36.7072 181.462Z" fill="#E0E0E0"/>
<path d="M9.90399 119.393V114.149L137.443 35.6642L141.725 38.2762L9.90399 119.393Z" fill="#F0F0F0"/>
<path d="M104.918 38.7468V55.6535L109.194 58.2861V36.1074L104.918 38.7468ZM69.6544 77.3684L73.936 80.0009V57.8223L69.6544 60.4616V77.3684ZM36.7072 97.6443L40.9824 100.304V78.0982L36.7008 80.7375L36.7072 97.6443Z" fill="#E0E0E0"/>
<path opacity="0.25" d="M141.725 122.101V16.0975L9.90399 97.1873V203.218L141.725 122.101Z" fill="black"/>
<path opacity="0.2" d="M41.0912 184.026L63.824 170.039L122.563 27.8894L99.824 41.8772L41.0912 184.026Z" fill="white"/>
<path opacity="0.2" d="M9.9104 144.109V199.712L66.7104 62.2485L35.9008 81.2013L9.9104 144.109Z" fill="white"/>
<path opacity="0.2" d="M141.725 122.101V20.251L85.296 156.828L141.725 122.101Z" fill="white"/>
<path opacity="0.2" d="M97.904 116.672C96.8416 119.352 95.7792 122.033 94.7808 124.74L93.2896 128.832C92.8224 130.196 92.3232 131.56 91.888 132.924C92.528 131.628 93.0976 130.312 93.7056 129.01L95.4336 125.054C96.5856 122.415 97.6736 119.741 98.7552 117.075C99.8368 114.408 100.88 111.721 101.878 109.006C102.877 106.292 103.875 103.591 104.771 100.822C103.491 103.421 102.365 106.053 101.226 108.7C100.086 111.346 98.9856 113.992 97.904 116.672ZM84.2464 110.493C85.3984 107.854 86.4864 105.187 87.568 102.521C88.6496 99.854 89.6928 97.1601 90.6912 94.4526C91.6896 91.745 92.688 89.0375 93.584 86.2686C92.336 88.8602 91.1776 91.4995 90.0384 94.1389C88.8992 96.7782 87.7984 99.4448 86.7168 102.118C85.6352 104.792 84.592 107.472 83.5936 110.179L82.1024 114.271C81.6352 115.635 81.136 116.999 80.7008 118.363C81.3408 117.075 81.9104 115.758 82.5184 114.449L84.2464 110.493ZM97.904 97.4124C99.5232 93.1772 101.104 88.9352 102.646 84.6522C100.778 88.7442 99.0048 92.9454 97.2512 97.1124C95.4976 101.279 93.808 105.494 92.0864 109.682C90.3648 113.869 88.7328 118.111 87.1136 122.346L84.7008 128.703C83.9264 130.837 83.12 132.965 82.3776 135.107C83.3184 133.061 84.2016 130.967 85.1168 128.894L87.7728 122.646C89.5264 118.473 91.2096 114.265 92.9376 110.07C94.6656 105.876 96.2848 101.668 97.904 97.3988V97.4124ZM117.142 89.7127C118.294 87.0733 119.376 84.4067 120.464 81.7333C121.552 79.0598 122.589 76.3796 123.581 73.6652C124.573 70.9509 125.578 68.2501 126.48 65.4812C125.232 68.0728 124.074 70.7053 122.928 73.3515C121.782 75.9976 120.694 78.6574 119.606 81.3241C118.518 83.9907 117.482 86.6641 116.483 89.3921L114.992 93.4841C114.525 94.8481 114.032 96.2121 113.59 97.5761C114.23 96.2803 114.8 94.9641 115.408 93.6614L117.142 89.7127ZM134.115 87.9122C132.963 90.5515 131.882 93.2182 130.794 95.8848C129.706 98.5514 128.669 101.245 127.67 103.953L126.179 108.045C125.712 109.409 125.219 110.773 124.778 112.137C125.418 110.848 125.987 109.525 126.595 108.222L128.33 104.267C129.482 101.627 130.563 98.9606 131.645 96.2871C132.726 93.6137 133.776 90.9334 134.768 88.2259C135.76 85.5184 136.765 82.8108 137.667 80.0419C136.4 82.6199 135.261 85.2592 134.115 87.8985V87.9122ZM130.794 76.6319C132.419 72.3899 133.994 68.1478 135.536 63.8649C133.674 67.9569 131.901 72.158 130.141 76.3318C128.381 80.5057 126.704 84.7136 124.976 88.9011C123.248 93.0886 121.629 97.3238 120.01 101.559L117.59 107.922C116.816 110.057 116.016 112.178 115.267 114.326C116.208 112.28 117.098 110.179 118.013 108.113L120.662 101.859C122.422 97.6852 124.106 93.4773 125.827 89.2898C127.549 85.1024 129.174 80.8535 130.794 76.6183V76.6319ZM30.2496 139.178C31.8752 134.943 33.4496 130.701 34.992 126.418C33.1296 130.51 31.3568 134.711 29.5968 138.885C27.8368 143.059 26.16 147.273 24.432 151.454C22.704 155.635 21.0848 159.877 19.4656 164.112L17.0464 170.468C16.272 172.61 15.472 174.731 14.7232 176.872C15.664 174.826 16.5536 172.733 17.4688 170.659L20.1184 164.412C21.8784 160.238 23.5616 156.03 25.2832 151.836C27.0048 147.642 28.6304 143.427 30.2496 139.178ZM30.2496 158.438C29.1872 161.118 28.1248 163.798 27.1264 166.506L25.6352 170.598C25.168 171.962 24.6752 173.326 24.2336 174.69C24.8736 173.394 25.4432 172.078 26.0512 170.775L27.7856 166.82C28.9376 164.18 30.0192 161.507 31.1072 158.84C32.1952 156.174 33.232 153.5 34.224 150.772C35.216 148.044 36.2208 145.357 37.1232 142.588C35.8752 145.18 34.7168 147.812 33.5712 150.458C32.4256 153.105 31.3376 155.785 30.2496 158.451V158.438ZM16.5984 152.273C17.7504 149.633 18.832 146.967 19.92 144.3C21.008 141.633 22.0448 138.939 23.0368 136.232C24.0288 133.524 25.0336 130.817 25.936 128.048C24.688 130.646 23.5296 133.279 22.384 135.918C21.2384 138.558 20.1504 141.231 19.0624 143.898C17.9744 146.564 16.9376 149.251 15.9392 151.959L14.448 156.051C13.9808 157.415 13.488 158.779 13.0464 160.143C13.6864 158.854 14.256 157.538 14.864 156.228L16.5984 152.273ZM63.1456 118.411C64.7648 114.169 66.3456 109.927 67.888 105.644C66.0192 109.736 64.2464 113.937 62.4928 118.111C60.7392 122.285 59.0496 126.493 57.328 130.68C55.6064 134.868 53.9744 139.103 52.3552 143.338L49.9424 149.701C49.168 151.836 48.3616 153.957 47.6192 156.105C48.56 154.059 49.4432 151.959 50.3584 149.892L53.0144 143.638C54.768 139.465 56.4512 135.257 58.1792 131.069C59.9072 126.882 61.52 122.646 63.1456 118.411ZM63.1456 137.671C62.0832 140.344 61.0208 143.025 60.0224 145.732L58.5312 149.824C58.064 151.188 57.5648 152.552 57.1296 153.916C57.7696 152.627 58.3392 151.304 58.9472 150.001L60.6752 146.046C61.8272 143.407 62.9152 140.74 63.9968 138.066C65.0784 135.393 66.1216 132.713 67.12 130.005C68.1184 127.298 69.1168 124.59 70.0128 121.821C68.7328 124.413 67.6064 127.052 66.4672 129.692C65.328 132.331 64.2272 134.997 63.1456 137.671ZM49.488 131.492C50.64 128.853 51.728 126.186 52.8096 123.513C53.8912 120.839 54.9344 118.159 55.9328 115.445C56.9312 112.73 57.9296 110.029 58.8256 107.261C57.5456 109.852 56.4192 112.485 55.28 115.131C54.1408 117.777 53.04 120.437 51.9584 123.103C50.8768 125.77 49.8336 128.464 48.8352 131.171L47.344 135.263C46.8768 136.627 46.3776 137.991 45.9424 139.355C46.5824 138.06 47.152 136.743 47.76 135.441L49.488 131.492Z" fill="white"/>
<path d="M109.2 142.104L100.97 147.171L109.2 142.104Z" fill="#FAFAFA"/>
<path d="M141.725 38.2762L111.082 57.1335V34.948L109.2 36.1074V58.2929L75.8176 78.8415V56.6424L73.936 57.8018V80.0009L42.864 99.1174V76.9183L40.9824 78.0777V100.277L9.90399 119.386V122.305L40.9824 103.196V184.095L42.864 182.935V102.036L73.936 82.9199V163.819L75.8176 162.659V81.7605L109.2 61.2186V142.117L111.082 140.958V60.0661L141.725 41.2088V38.2762Z" fill="#FAFAFA"/>
<path d="M5.62881 93.6478V212.016L146 125.64V7.28613L5.62881 93.6478ZM141.725 122.128L9.91042 203.218V97.1874L141.75 16.0976L141.725 122.128Z" fill="#FAFAFA"/>
<path opacity="0.3" d="M28.4448 214.989L146.39 142.424L266.147 216.565L148.579 288.904L28.4448 214.989Z" fill="#360ECA"/>
<path d="M148.598 287.186L265.584 215.214L146.371 141.408L29.0144 213.612L148.598 287.186Z" fill="white"/>
<path d="M266.8 131.015L266.205 131.397L253.962 123.867L254.563 123.485L266.8 131.015Z" fill="#455A64"/>
<path d="M254.563 123.485L266.205 130.646V97.0373L254.563 89.8763V123.485Z" fill="white"/>
<path d="M252.842 124.556L267.331 133.477V96.3417L252.842 87.428V124.556ZM253.968 89.5013L266.205 97.0374V131.397L253.968 123.895V89.5013Z" fill="#360ECA"/>
<path d="M253.962 123.867L254.563 123.485V89.8763L253.962 89.5012V123.867Z" fill="#37474F"/>
<path d="M252.842 87.4279L253.443 87.0529L267.939 95.9734L267.331 96.3417L252.842 87.4279Z" fill="#455A64"/>
<path d="M267.939 95.9734L267.331 96.3417V133.477L267.939 133.101V95.9734Z" fill="#37474F"/>
<path d="M255.434 122.742L265.334 128.832V98.1558L255.434 92.0656V122.742Z" fill="#F5F5F5"/>
<path d="M255.434 122.742L265.334 128.832V98.1558L255.434 92.0656V122.742Z" fill="#360ECA"/>
<g opacity="0.7">
<path d="M255.434 122.742L265.334 128.832V98.1558L255.434 92.0656V122.742Z" fill="white"/>
</g>
<path opacity="0.6" d="M265.334 118.602C264.864 118.643 264.391 118.643 263.92 118.602C262.271 118.472 260.647 118.098 259.094 117.491C257.898 117.013 256.701 116.406 255.434 116.365V122.756L256.778 123.581C257.301 123.069 257.93 122.698 258.614 122.496C260.534 121.958 262.454 122.981 264.438 123.219C264.736 123.256 265.035 123.272 265.334 123.267V118.602Z" fill="white"/>
<path opacity="0.6" d="M265.334 110.964C263.12 110.282 260.854 109.688 259.267 107.956C257.987 106.558 257.392 104.628 256.976 102.732C256.56 100.836 256.266 98.8787 255.459 97.1328V97.0782V111.216C255.587 111.414 255.709 111.612 255.843 111.803C257.296 113.903 259.44 115.656 261.885 115.792C263.03 115.854 264.221 115.567 265.36 115.574L265.334 110.964Z" fill="white"/>
<path opacity="0.6" d="M265.334 103.946C264.479 103.143 263.829 102.121 263.445 100.977C263.061 99.8336 262.956 98.6047 263.139 97.4056C263.173 97.2283 263.212 97.051 263.254 96.8737L259.446 94.5344C259.446 94.8004 259.446 95.0664 259.478 95.3324C259.438 96.8832 259.543 98.4345 259.792 99.9631C260.07 101.233 260.601 102.424 261.35 103.455C262.099 104.486 263.048 105.332 264.131 105.937C264.519 106.149 264.921 106.329 265.334 106.476V103.946Z" fill="white"/>
<path d="M266.8 151.468L266.205 151.843L253.962 144.314L254.563 143.938L266.8 151.468Z" fill="#455A64"/>
<path d="M254.563 143.939L266.205 151.1V138.107L254.563 130.946V143.939Z" fill="white"/>
<path d="M252.842 145.009L267.331 153.923V137.412L252.842 128.491V145.009ZM253.968 130.571L266.205 138.073V151.822L253.968 144.314V130.571Z" fill="#360ECA"/>
<path d="M253.962 144.314L254.563 143.938V130.946L253.962 130.571V144.314Z" fill="#37474F"/>
<path d="M252.842 128.498L253.443 128.123L267.939 137.043L267.331 137.412L252.842 128.498Z" fill="#455A64"/>
<path d="M267.939 137.043L267.331 137.412V153.923L267.939 153.555V137.043Z" fill="#37474F"/>
<path d="M263.069 140.242L261.398 141.906L262 144.634L258.288 136.191L255.018 140.215V143.523L265.75 150.124V146.823L263.069 140.242ZM261.494 139.008C261.936 139.281 262.288 139.062 262.288 138.523C262.274 138.23 262.195 137.943 262.057 137.688C261.919 137.433 261.726 137.217 261.494 137.057C261.059 136.784 260.701 137.003 260.701 137.541C260.715 137.835 260.795 138.121 260.933 138.376C261.071 138.631 261.263 138.847 261.494 139.008Z" fill="#360ECA"/>
<path opacity="0.6" d="M263.069 140.242L261.398 141.906L262 144.634L258.288 136.191L255.018 140.215V143.523L265.75 150.124V146.823L263.069 140.242ZM261.494 139.008C261.936 139.281 262.288 139.062 262.288 138.523C262.274 138.23 262.195 137.943 262.057 137.688C261.919 137.433 261.726 137.217 261.494 137.057C261.059 136.784 260.701 137.003 260.701 137.541C260.715 137.835 260.795 138.121 260.933 138.376C261.071 138.631 261.263 138.847 261.494 139.008Z" fill="white"/>
<path d="M178.41 97.0851L177.814 97.467L165.571 89.9309L166.166 89.5558L178.41 97.0851Z" fill="#455A64"/>
<path d="M166.166 89.5557L177.814 96.7167V63.101L166.166 55.9468V89.5557Z" fill="white"/>
<path d="M164.445 90.6265L178.941 99.5402V62.4121L164.445 53.4916V90.6265ZM165.571 55.5717L177.814 63.0737V97.4397L165.571 89.9036V55.5717Z" fill="#360ECA"/>
<path d="M165.571 89.9308L166.166 89.5557V55.9468L165.571 55.5717V89.9308Z" fill="#37474F"/>
<path d="M164.445 53.4916L165.053 53.1233L179.542 62.037L178.941 62.4121L164.445 53.4916Z" fill="#455A64"/>
<path d="M179.542 62.037L178.941 62.4121V99.5402L179.542 99.1719V62.037Z" fill="#37474F"/>
<path d="M167.043 88.8123L176.938 94.9026V64.2262L167.043 58.136V88.8123Z" fill="#F5F5F5"/>
<path d="M167.043 88.8123L176.938 94.9026V64.2262L167.043 58.136V88.8123Z" fill="#360ECA"/>
<g opacity="0.7">
<path d="M167.043 88.8123L176.938 94.9026V64.2262L167.043 58.136V88.8123Z" fill="white"/>
</g>
<path opacity="0.6" d="M176.938 84.6726C176.467 84.7101 175.994 84.7101 175.523 84.6726C173.876 84.5401 172.254 84.1637 170.704 83.5541C169.507 83.0836 168.31 82.4698 167.043 82.4357V88.826L168.381 89.6512C168.905 89.1405 169.534 88.7669 170.218 88.56C172.138 88.0281 174.058 89.0511 176.042 89.2898C176.339 89.3227 176.638 89.3386 176.938 89.3375V84.6726Z" fill="white"/>
<path opacity="0.6" d="M176.938 77.0342C174.723 76.3522 172.458 75.752 170.87 74.0198C169.59 72.6558 168.995 70.6916 168.579 68.7956C168.163 66.8997 167.869 64.9492 167.069 63.1964C167.067 63.1806 167.067 63.1645 167.069 63.1487V77.2524C167.19 77.4502 167.312 77.648 167.446 77.839C168.899 79.9395 171.043 81.6923 173.488 81.8287C174.64 81.8969 175.824 81.6104 176.963 81.6104L176.938 77.0342Z" fill="white"/>
<path opacity="0.6" d="M176.938 70.0164C176.084 69.2109 175.435 68.188 175.052 67.0432C174.669 65.8983 174.565 64.6687 174.749 63.4692C174.776 63.2922 174.812 63.1169 174.858 62.9441L171.05 60.598C171.05 60.8708 171.05 61.1368 171.082 61.4028C171.048 62.9535 171.153 64.5041 171.395 66.0336C171.675 67.3023 172.207 68.4923 172.956 69.5229C173.704 70.5536 174.652 71.401 175.734 72.0079C176.122 72.2188 176.524 72.3967 176.938 72.5398V70.0164Z" fill="white"/>
<path d="M178.416 56.015L177.814 56.3969L165.578 48.8608L166.173 48.4857L178.416 56.015Z" fill="#455A64"/>
<path d="M166.173 48.4857L177.814 55.6467V42.6547L166.173 35.4937V48.4857Z" fill="white"/>
<path d="M164.451 49.5565L178.941 58.4703V41.959L164.451 33.0453V49.5565ZM165.578 35.1186L177.814 42.6206V56.3629L165.578 48.8609V35.1186Z" fill="#360ECA"/>
<path d="M165.578 48.8608L166.173 48.4857V35.4936L165.578 35.1185V48.8608Z" fill="#37474F"/>
<path d="M164.451 33.0453L165.053 32.6702L179.549 41.5907L178.941 41.959L164.451 33.0453Z" fill="#455A64"/>
<path d="M179.549 41.5907L178.941 41.959V58.4702L179.549 58.1019V41.5907Z" fill="#37474F"/>
<path d="M174.678 44.7961L173.008 46.4261L173.61 49.195L169.898 40.745L166.627 44.7756V48.0765L177.36 54.6987V51.3978L174.678 44.7961ZM173.104 43.5548C173.546 43.8276 173.904 43.6094 173.904 43.0706C173.889 42.7762 173.809 42.4897 173.67 42.2348C173.531 41.9798 173.337 41.7638 173.104 41.6043C172.669 41.3315 172.31 41.5498 172.31 42.0954C172.326 42.388 172.405 42.6727 172.543 42.9264C172.681 43.18 172.873 43.3953 173.104 43.5548Z" fill="#360ECA"/>
<path opacity="0.6" d="M174.678 44.7961L173.008 46.4261L173.61 49.195L169.898 40.745L166.627 44.7756V48.0765L177.36 54.6987V51.3978L174.678 44.7961ZM173.104 43.5548C173.546 43.8276 173.904 43.6094 173.904 43.0706C173.889 42.7762 173.809 42.4897 173.67 42.2348C173.531 41.9798 173.337 41.7638 173.104 41.6043C172.669 41.3315 172.31 41.5498 172.31 42.0954C172.326 42.388 172.405 42.6727 172.543 42.9264C172.681 43.18 172.873 43.3953 173.104 43.5548Z" fill="white"/>
<path d="M244.157 129.521L244.259 129.453C244.468 129.308 244.641 129.112 244.766 128.882C244.89 128.653 244.962 128.395 244.976 128.13V85.6411C244.962 85.3761 244.89 85.1183 244.766 84.8884C244.641 84.6586 244.468 84.4632 244.259 84.318L189.52 50.7977C189.298 50.6768 189.052 50.6138 188.803 50.6138C188.554 50.6138 188.308 50.6768 188.086 50.7977C187.878 50.9429 187.704 51.1383 187.58 51.3681C187.455 51.598 187.383 51.8558 187.37 52.1208V94.6094C187.383 94.8745 187.455 95.1326 187.579 95.3625C187.704 95.5925 187.878 95.7878 188.086 95.9325L242.685 129.528C242.913 129.651 243.166 129.715 243.422 129.714C243.678 129.713 243.93 129.647 244.157 129.521Z" fill="#37474F"/>
<path d="M242.48 86.2958L244.771 84.8909C244.898 85.1183 244.969 85.3765 244.976 85.6411V128.13C244.962 128.395 244.89 128.653 244.766 128.882C244.641 129.112 244.468 129.308 244.259 129.453L244.157 129.521C243.934 129.639 243.689 129.7 243.44 129.7C243.191 129.7 242.946 129.639 242.723 129.521L242.48 129.371V86.2958Z" fill="#263238"/>
<path d="M243.44 129.078V86.5891C243.426 86.3241 243.354 86.0662 243.23 85.8364C243.105 85.6065 242.932 85.4111 242.723 85.266L188.125 51.6775C187.728 51.432 187.408 51.6297 187.408 52.114V94.6026C187.421 94.8677 187.493 95.1257 187.618 95.3557C187.742 95.5856 187.916 95.7809 188.125 95.9257L242.723 129.521C243.12 129.76 243.44 129.562 243.44 129.078Z" fill="#455A64"/>
<path d="M187.408 52.114L187.504 66.02V79.9328L187.542 93.8388C187.542 94.1184 187.542 94.4321 187.542 94.6913C187.575 94.9386 187.665 95.1732 187.805 95.3733C187.953 95.59 188.151 95.7616 188.381 95.8711L189.085 96.3008L191.914 98.0331L197.578 101.498L220.144 115.465L231.434 122.449L242.685 129.494L231.376 122.653L220.054 115.731L197.418 101.886L191.773 98.3945L188.95 96.6486L188.24 96.2121C187.973 96.0738 187.743 95.8677 187.568 95.612C187.389 95.3514 187.277 95.046 187.242 94.7254C187.242 94.398 187.242 94.132 187.242 93.8388L187.274 79.9328L187.306 66.02L187.408 52.114Z" fill="#455A64"/>
<path d="M215.018 110.732L212.906 109.436C212.746 109.334 212.618 109.436 212.618 109.586C212.624 109.689 212.654 109.788 212.704 109.876C212.754 109.964 212.823 110.038 212.906 110.091L215.018 111.393C215.171 111.489 215.299 111.393 215.299 111.237C215.291 111.135 215.261 111.038 215.212 110.95C215.163 110.863 215.097 110.788 215.018 110.732Z" fill="#E0E0E0"/>
<path d="M241.603 86.3299L189.328 54.1054C189.098 53.9622 188.918 54.1054 188.918 54.3578V92.3656C188.926 92.5173 188.967 92.665 189.038 92.7966C189.109 92.9282 189.209 93.0399 189.328 93.1227L241.603 125.286C241.834 125.422 242.013 125.286 242.013 125.033V87.087C242.005 86.9354 241.964 86.7879 241.893 86.6564C241.822 86.5249 241.722 86.4131 241.603 86.3299Z" fill="#263238"/>
<path opacity="0.3" d="M198.71 95.7279C198.719 96.737 198.633 97.7445 198.454 98.7355L189.328 93.1159C189.208 93.0335 189.108 92.9219 189.037 92.7902C188.966 92.6585 188.925 92.5107 188.918 92.3588V78.1801C189.762 78.248 190.578 78.5285 191.299 78.9985C195.389 81.515 198.71 89.0102 198.71 95.7279Z" fill="#360ECA"/>
<path opacity="0.3" d="M237.456 90.5856V90.6948C237.456 94.9095 235.747 97.4534 233.424 97.3101C232.755 97.2445 232.11 97.0108 231.542 96.6281C228.266 94.5821 225.616 88.6351 225.616 83.2678C225.616 80.608 226.256 78.5961 227.318 77.498L235.766 82.7017C236.849 85.1719 237.425 87.8596 237.456 90.5856Z" fill="#360ECA"/>
<path opacity="0.3" d="M217.772 102.671C221.323 101.509 222.549 94.8288 220.511 87.7495C218.472 80.6703 213.94 75.8729 210.389 77.0342C206.838 78.1956 205.611 84.876 207.65 91.9552C209.689 99.0345 214.22 103.832 217.772 102.671Z" fill="#360ECA"/>
<path opacity="0.3" d="M242 92.4066V116.372C241.552 116.232 241.122 116.032 240.72 115.779C240.066 115.368 239.46 114.875 238.915 114.312C237.009 112.215 235.56 109.696 234.672 106.933C233.797 104.41 233.336 101.746 233.309 99.0561C233.309 98.4422 233.309 97.8557 233.386 97.3101C233.75 93.5319 235.306 91.1244 237.418 90.6947C238.568 90.5136 239.741 90.7825 240.72 91.4518C241.171 91.7311 241.599 92.0505 242 92.4066Z" fill="#360ECA"/>
<path opacity="0.3" d="M211.28 74.8519C211.28 80.0147 208.72 82.6336 205.584 80.6967C202.448 78.7598 199.882 73.0037 199.882 67.841C199.882 64.9425 200.688 62.8419 201.955 61.9008L209.213 66.3747C210.529 68.9832 211.238 71.8905 211.28 74.8519Z" fill="#360ECA"/>
<path opacity="0.3" d="M239.664 119.243C239.706 120.738 239.424 122.222 238.838 123.581L229.085 117.579C228.557 115.852 228.281 114.049 228.266 112.232C228.266 107.07 230.826 104.457 233.962 106.388C234.225 106.547 234.475 106.73 234.71 106.933C236.547 108.447 238.102 111.237 238.954 114.312C239.41 115.911 239.649 117.572 239.664 119.243Z" fill="#360ECA"/>
<path opacity="0.3" d="M195.581 63.6603C195.581 68.8162 193.021 71.4351 189.878 69.505C189.539 69.2919 189.218 69.0477 188.918 68.7753V54.3578C188.918 54.0713 189.104 53.9691 189.328 54.1055L194.39 57.229C195.155 59.2766 195.558 61.4568 195.581 63.6603Z" fill="#360ECA"/>
<path opacity="0.3" d="M199.907 85.0137C199.907 88.1236 198.365 89.699 196.47 88.5328C194.576 87.3666 193.04 83.902 193.04 80.7921C193.04 77.6822 194.576 76.0999 196.47 77.2662C198.365 78.4324 199.907 81.8901 199.907 85.0137Z" fill="#360ECA"/>
<path opacity="0.3" d="M226.275 102.548C226.275 105.658 224.739 107.233 222.845 106.067C220.95 104.901 219.408 101.429 219.408 98.3195C219.408 95.2095 220.95 93.6341 222.845 94.8003C224.739 95.9666 226.275 99.4379 226.275 102.548Z" fill="#360ECA"/>
<path opacity="0.1" d="M219.805 80.949C219.805 84.0589 218.269 85.6343 216.374 84.4681C214.48 83.3019 212.938 79.8305 212.938 76.7206C212.938 73.6107 214.474 72.0352 216.374 73.2015C218.275 74.3677 219.805 77.8391 219.805 80.949Z" fill="#360ECA"/>
<path opacity="0.1" d="M223.882 110.595C223.906 111.774 223.732 112.947 223.37 114.06L213.45 107.956C213.119 106.62 212.947 105.246 212.938 103.864C212.938 98.9128 215.389 96.3963 218.41 98.2513C221.43 100.106 223.882 105.644 223.882 110.595Z" fill="#360ECA"/>
<path opacity="0.1" d="M230.799 106.449C233.418 105.593 234.321 100.663 232.817 95.438C231.312 90.2132 227.969 86.6718 225.35 87.5282C222.732 88.3846 221.828 93.3144 223.333 98.5392C224.838 103.764 228.18 107.305 230.799 106.449Z" fill="#360ECA"/>
<path opacity="0.1" d="M199.875 81.2323C202.494 80.3759 203.397 75.4461 201.892 70.2213C200.388 64.9965 197.045 61.4552 194.426 62.3116C191.807 63.1679 190.904 68.0977 192.409 73.3226C193.913 78.5474 197.256 82.0887 199.875 81.2323Z" fill="#360ECA"/>
<path opacity="0.1" d="M208.08 98.5582C208.08 100.925 207.53 102.718 206.614 103.762L198.602 98.8309C197.666 96.6284 197.168 94.2441 197.136 91.8268C197.136 86.8619 199.587 84.3589 202.608 86.2139C205.629 88.069 208.08 93.6 208.08 98.5582Z" fill="#360ECA"/>
<path opacity="0.3" d="M227.28 87.5098C227.28 89.699 226.192 90.8107 224.854 89.9923C223.517 89.1739 222.435 86.7255 222.435 84.5363C222.435 82.3471 223.523 81.2354 224.854 82.0538C226.186 82.8722 227.28 85.3001 227.28 87.5098Z" fill="#360ECA"/>
<path opacity="0.3" d="M206.89 96.785C206.89 98.9742 205.808 100.086 204.47 99.2674C203.133 98.449 202.051 96.0007 202.051 93.8114C202.051 91.6222 203.133 90.5106 204.47 91.329C205.808 92.1474 206.89 94.5889 206.89 96.785Z" fill="#360ECA"/>
</svg>
