<svg width="438" height="399" viewBox="0 0 438 399" fill="none" xmlns="http://www.w3.org/2000/svg">
<path d="M196.789 390.845L430.166 259.766L241.295 153.673L7.92871 284.762L196.789 390.845Z" fill="#F5F5F5"/>
<path d="M196.79 398.71V390.845L430.167 259.766L430.156 114.388L437.157 110.461V263.694L196.79 398.71Z" fill="#455A64"/>
<path d="M196.789 398.71V390.845L7.92888 284.762V139.394L0.938965 135.467V288.689L196.789 398.71Z" fill="#37474F"/>
<path d="M0.938965 135.467L241.295 0.450378V8.30518L7.92888 139.394L0.938965 135.467Z" fill="#455A64"/>
<path d="M241.295 8.30518V153.673L7.92871 284.762V139.394L241.295 8.30518Z" fill="white"/>
<path d="M437.157 110.461L241.295 0.450378V8.30518L430.156 114.388L437.157 110.461Z" fill="#37474F"/>
<path d="M241.295 153.673V8.30518L430.156 114.388L430.167 259.766L241.295 153.673Z" fill="#905BE3"/>
<path d="M241.295 153.673V8.30518L430.156 114.388L430.167 259.766L241.295 153.673Z" fill="#F5F5F5"/>
<path d="M430.167 259.766V252.159L241.306 146.076L241.295 153.673L430.167 259.766Z" fill="#FAFAFA"/>
<path d="M13.7021 273.959V267.492L191.049 167.865V174.332L13.7021 273.959Z" fill="#F0F0F0"/>
<path d="M185.287 171.093L191.049 174.332V44.136L185.287 47.364V171.093Z" fill="#E0E0E0"/>
<path d="M141.523 102.789V195.669L147.274 198.897V99.55L141.523 102.789ZM94.0866 222.332L99.8378 225.56V126.224L94.0866 129.452V222.332ZM49.7581 247.242L55.5093 250.47V151.123L49.7471 154.351L49.7581 247.242Z" fill="#E0E0E0"/>
<path d="M13.7021 171.007V164.562L185.287 68.163L191.049 71.3695L13.7021 171.007Z" fill="#F0F0F0"/>
<path d="M141.523 71.9505V92.7066L147.274 95.9346V68.7118L141.523 71.9505ZM94.0866 119.381L99.8378 122.609V95.3858L94.0866 98.6138V119.381ZM49.7581 144.29L55.5093 147.518V120.284L49.7471 123.512L49.7581 144.29Z" fill="#E0E0E0"/>
<path opacity="0.15" d="M191.049 174.332V44.136L13.7021 143.731V273.959L191.049 174.332Z" fill="#905BE3"/>
<path opacity="0.5" d="M55.6528 250.384L86.2448 233.2L165.268 58.619L134.677 75.7919L55.6528 250.384Z" fill="white"/>
<path opacity="0.5" d="M191.049 174.332V49.2362L115.123 216.985L191.049 174.332Z" fill="white"/>
<path opacity="0.2" d="M132.089 167.65C130.662 170.932 129.224 174.224 127.886 177.549L125.884 182.542C125.253 184.22 124.59 185.888 123.993 187.588C124.844 185.996 125.618 184.36 126.437 182.779L128.771 177.915C130.319 174.687 131.779 171.459 133.195 168.123C134.61 164.788 136.048 161.538 137.386 158.214C138.725 154.889 140.074 151.564 141.29 148.185C139.609 151.413 138.05 154.641 136.513 157.869C134.975 161.097 133.548 164.368 132.089 167.65ZM113.718 160.053C115.266 156.825 116.726 153.544 118.142 150.262C119.558 146.98 121.006 143.677 122.345 140.352C123.683 137.027 125.032 133.702 126.238 130.324C124.557 133.552 122.997 136.78 121.46 140.008C119.923 143.236 118.452 146.528 117.036 149.81C115.62 153.092 114.182 156.384 112.833 159.709L110.831 164.702C110.201 166.38 109.537 168.048 108.94 169.748C109.792 168.156 110.577 166.52 111.395 164.939L113.718 160.053ZM132.089 143.989C134.301 138.792 136.435 133.573 138.47 128.311C135.96 133.379 133.571 138.501 131.215 143.623C128.859 148.745 126.581 153.92 124.258 159.064C121.935 164.207 119.757 169.404 117.622 174.612L114.37 182.424C113.331 185.049 112.247 187.653 111.24 190.289C112.512 187.76 113.696 185.2 114.935 182.66L118.496 174.978C120.863 169.856 123.13 164.68 125.453 159.537C127.775 154.394 129.91 149.197 132.089 143.989ZM157.969 134.531C159.517 131.303 160.977 128.01 162.393 124.728C163.809 121.447 165.258 118.154 166.596 114.829C167.934 111.504 169.283 108.169 170.489 104.79C168.808 108.018 167.248 111.246 165.711 114.474C164.174 117.702 162.703 120.984 161.287 124.266C159.871 127.548 158.433 130.84 157.084 134.176L155.082 139.136C154.452 140.815 153.788 142.482 153.191 144.172C154.043 142.59 154.828 140.944 155.646 139.362L157.969 134.531ZM180.808 132.325C179.259 135.553 177.8 138.835 176.384 142.117C174.968 145.398 173.519 148.691 172.181 152.027L170.179 157.019C169.549 158.698 168.885 160.366 168.288 162.055C169.14 160.473 169.914 158.827 170.732 157.245L173.066 152.392C174.614 149.164 176.074 145.872 177.49 142.59C178.906 139.308 180.343 136.016 181.682 132.691C183.02 129.366 184.369 126.03 185.586 122.652C183.905 125.837 182.345 129.075 180.808 132.325ZM176.384 118.466C178.596 113.258 180.73 108.05 182.766 102.789C180.255 107.846 177.866 112.968 175.51 118.1C173.154 123.233 170.876 128.387 168.553 133.53C166.231 138.673 164.052 143.881 161.917 149.078L158.666 156.89C157.626 159.515 156.542 162.119 155.536 164.756C156.808 162.227 157.991 159.677 159.23 157.127L162.791 149.444C165.158 144.322 167.425 139.158 169.748 134.014C172.07 128.871 174.161 123.663 176.34 118.466H176.384ZM41.0758 195.325C43.2878 190.117 45.4224 184.909 47.4574 179.647C44.9468 184.715 42.5579 189.826 40.2021 194.959C37.8463 200.091 35.5679 205.245 33.2453 210.4C30.9227 215.554 28.7439 220.74 26.6093 225.948L23.3577 233.759C22.3181 236.374 21.2342 238.989 20.2277 241.625C21.4996 239.096 22.683 236.536 23.9218 233.985L27.4388 226.292C29.8057 221.16 32.073 215.995 34.3956 210.851C36.7182 205.708 38.897 200.522 41.0758 195.325ZM41.0758 218.997C39.638 222.289 38.2113 225.582 36.873 228.907L34.9043 233.878C34.285 235.556 33.6214 237.224 33.0241 238.914C33.8758 237.332 34.65 235.686 35.4684 234.115L37.8021 229.251C39.3505 226.023 40.8104 222.73 42.2261 219.459C43.6417 216.188 45.0795 212.874 46.4178 209.549C47.7561 206.225 49.1054 202.9 50.322 199.51C48.6409 202.738 47.0814 205.966 45.5441 209.194C44.0067 212.422 42.5357 215.704 41.0758 218.975V218.997ZM22.7052 211.465C24.2536 208.237 25.7135 204.944 27.1292 201.673C28.5448 198.402 29.9826 195.088 31.332 191.763C32.6813 188.438 34.0195 185.114 35.2251 181.724C33.544 184.952 31.9845 188.18 30.4472 191.408C28.9098 194.636 27.4388 197.929 26.0232 201.2C24.6075 204.471 23.1586 207.785 21.8204 211.11L19.8185 216.102C19.1881 217.781 18.5245 219.449 17.9272 221.138C18.7789 219.556 19.5641 217.91 20.3826 216.339L22.7052 211.465ZM85.3269 169.867C87.5389 164.67 89.6735 159.451 91.7085 154.189C89.1979 159.257 86.8089 164.379 84.4532 169.501C82.0974 174.623 79.819 179.798 77.4964 184.941C75.1738 190.085 72.995 195.282 70.8604 200.49L67.6088 208.301C66.5691 210.927 65.4852 213.531 64.4788 216.167C65.7507 213.638 66.9341 211.077 68.1728 208.538L71.7341 200.855C74.101 195.734 76.3683 190.569 78.6909 185.415C81.0135 180.261 83.1481 174.999 85.3269 169.791V169.867ZM85.3269 193.539C83.9001 196.82 82.4623 200.113 81.1241 203.438L79.1443 208.344C78.5139 210.023 77.8503 211.691 77.2531 213.391C78.1047 211.798 78.8789 210.163 79.6973 208.581L82.031 203.718C83.5794 200.49 85.0393 197.208 86.455 193.926C87.8707 190.644 89.3085 187.341 90.6467 184.016C91.985 180.691 93.3343 177.366 94.5509 173.988C92.8698 177.216 91.3103 180.444 89.773 183.672C88.2357 186.9 86.7868 190.171 85.3269 193.453V193.539ZM66.9783 185.856C68.5267 182.628 69.9867 179.4 71.4023 176.064C72.818 172.729 74.2669 169.479 75.6052 166.154C76.9434 162.83 78.2927 159.505 79.4983 156.126C77.8171 159.354 76.2577 162.582 74.7203 165.81C73.183 169.038 71.712 172.331 70.2963 175.612C68.8807 178.894 67.4429 182.187 66.0935 185.512L64.0917 190.504C63.4613 192.194 62.7977 193.851 62.2004 195.551C63.052 193.958 63.8373 192.323 64.6558 190.741L66.9783 185.856Z" fill="#905BE3"/>
<path d="M147.285 198.897L136.214 205.116L147.285 198.897Z" fill="#FAFAFA"/>
<path d="M191.049 71.3695L149.818 94.5358V67.2915L147.285 68.7118V95.9561L102.381 121.199V93.9333L99.8485 95.3536V122.619L58.0417 146.098V118.832L55.5089 120.252V147.518L13.7021 170.996V174.579L55.5089 151.101V250.47L58.0417 249.049V149.681L99.8485 126.202V225.571L102.381 224.151V124.782L147.285 99.55V198.919L149.818 197.487V98.1297L191.049 74.9741V71.3695Z" fill="#FAFAFA"/>
<path d="M7.95117 139.383V284.762L241.317 153.673V8.30518L7.95117 139.383ZM191.049 174.332L13.7024 273.959V143.763L191.049 44.136V174.332Z" fill="#FAFAFA"/>
<path d="M382.874 132.153L382.044 131.69C381.713 131.481 381.332 131.358 380.938 131.335C380.663 131.326 380.392 131.401 380.164 131.55V131.131C380.164 130.991 380.125 130.853 380.053 130.732C379.996 130.61 379.904 130.505 379.788 130.431L378.173 129.527C378.137 129.5 378.092 129.486 378.046 129.486C378 129.486 377.955 129.5 377.919 129.527C377.876 129.56 377.842 129.603 377.821 129.652C377.799 129.701 377.791 129.754 377.797 129.807V138.211C377.801 138.355 377.843 138.495 377.919 138.62C377.97 138.74 378.059 138.842 378.173 138.91L379.932 139.9C379.971 139.926 380.017 139.94 380.064 139.94C380.112 139.94 380.158 139.926 380.197 139.9C380.236 139.864 380.266 139.821 380.285 139.772C380.304 139.724 380.312 139.672 380.308 139.62V135.187C380.308 134.111 380.728 133.756 381.591 134.24L382.851 134.95C382.89 134.977 382.937 134.991 382.984 134.991C383.032 134.991 383.078 134.977 383.117 134.95C383.157 134.914 383.189 134.868 383.208 134.818C383.227 134.767 383.234 134.713 383.228 134.66V132.841C383.226 132.698 383.188 132.558 383.117 132.433C383.063 132.32 382.979 132.223 382.874 132.153ZM364.658 125.008C364.862 125.451 364.963 125.932 364.956 126.418V130.991C364.958 131.13 364.996 131.267 365.067 131.389C365.119 131.512 365.212 131.615 365.332 131.679L367.08 132.669C367.119 132.696 367.165 132.71 367.213 132.71C367.26 132.71 367.306 132.696 367.345 132.669C367.386 132.635 367.418 132.592 367.437 132.543C367.457 132.494 367.463 132.441 367.456 132.389V127.429C367.46 126.767 367.385 126.106 367.235 125.46C367.103 124.894 366.894 124.348 366.615 123.835C366.359 123.366 366.039 122.931 365.664 122.544C365.299 122.184 364.886 121.873 364.437 121.619C364.21 121.482 363.964 121.377 363.707 121.307C363.528 121.254 363.34 121.235 363.154 121.253C363.013 121.261 362.877 121.302 362.755 121.371C362.654 121.436 362.562 121.512 362.479 121.597V121.188C362.473 121.046 362.436 120.906 362.368 120.779C362.31 120.66 362.218 120.559 362.103 120.489L360.422 119.542C360.384 119.514 360.337 119.499 360.289 119.499C360.241 119.499 360.195 119.514 360.156 119.542C360.116 119.576 360.085 119.62 360.066 119.669C360.046 119.717 360.04 119.77 360.046 119.822V128.236C360.047 128.379 360.085 128.52 360.156 128.645C360.208 128.769 360.302 128.871 360.422 128.936L362.169 129.925C362.208 129.952 362.255 129.966 362.302 129.966C362.349 129.966 362.396 129.952 362.435 129.925C362.475 129.891 362.506 129.848 362.525 129.799C362.545 129.75 362.552 129.698 362.545 129.646V125.073C362.507 124.692 362.609 124.311 362.833 123.997C363.021 123.781 363.32 123.803 363.74 123.997C364.156 124.222 364.48 124.579 364.658 125.008ZM341.62 115.464L337.373 113.086V103.822C337.372 103.682 337.334 103.545 337.262 103.424C337.201 103.303 337.11 103.2 336.997 103.122L335.172 102.1C335.133 102.074 335.087 102.06 335.039 102.06C334.992 102.06 334.945 102.074 334.906 102.1C334.868 102.136 334.838 102.18 334.819 102.228C334.8 102.276 334.792 102.328 334.796 102.38V114.044C334.802 114.183 334.84 114.318 334.906 114.442C334.965 114.561 335.057 114.662 335.172 114.732L341.62 118.358C341.659 118.385 341.705 118.399 341.753 118.399C341.8 118.399 341.846 118.385 341.885 118.358C341.924 118.322 341.953 118.279 341.972 118.23C341.991 118.182 341.999 118.13 341.996 118.079V116.163C341.99 116.024 341.952 115.888 341.885 115.765C341.824 115.645 341.733 115.541 341.62 115.464ZM349.561 122.673C349.601 122.639 349.632 122.595 349.652 122.547C349.671 122.498 349.678 122.445 349.671 122.393V116.927C349.67 116.402 349.607 115.879 349.483 115.367C349.351 114.848 349.147 114.348 348.875 113.882C348.592 113.397 348.242 112.952 347.836 112.559C347.399 112.135 346.904 111.773 346.365 111.483C345.957 111.25 345.512 111.086 345.048 110.999C344.707 110.92 344.351 110.92 344.009 110.999C343.733 111.066 343.487 111.222 343.312 111.44C343.148 111.644 343.052 111.891 343.035 112.15C343.029 112.266 343.056 112.381 343.113 112.483C343.173 112.577 343.252 112.658 343.345 112.72L345.115 113.71C345.196 113.76 345.286 113.797 345.38 113.818C345.455 113.847 345.538 113.847 345.612 113.818C345.692 113.779 345.778 113.757 345.867 113.753C346.045 113.759 346.218 113.815 346.365 113.915C346.64 114.054 346.861 114.277 346.995 114.549C347.111 114.804 347.171 115.078 347.172 115.356L345.546 114.808C345.194 114.636 344.81 114.535 344.417 114.509C344.024 114.483 343.63 114.533 343.257 114.657C343 114.829 342.797 115.067 342.672 115.344C342.547 115.622 342.504 115.928 342.549 116.228C342.55 117.069 342.775 117.896 343.201 118.627C343.41 119.017 343.67 119.379 343.976 119.703C344.303 120.022 344.676 120.294 345.082 120.51C345.468 120.766 345.92 120.911 346.387 120.93C346.705 120.905 347.002 120.763 347.216 120.532V121.038C347.216 121.181 347.254 121.322 347.327 121.447C347.385 121.566 347.477 121.667 347.592 121.737L349.34 122.727C349.377 122.739 349.417 122.741 349.456 122.733C349.495 122.726 349.531 122.709 349.561 122.684V122.673ZM347.061 118.1C346.999 118.253 346.891 118.384 346.752 118.477C346.617 118.561 346.458 118.602 346.298 118.595C346.093 118.576 345.896 118.51 345.723 118.401C345.532 118.297 345.363 118.158 345.225 117.993C345.109 117.821 345.051 117.617 345.059 117.412C345.047 117.326 345.061 117.239 345.1 117.162C345.14 117.085 345.203 117.022 345.281 116.981C345.478 116.919 345.691 116.919 345.889 116.981L347.172 117.455C347.179 117.678 347.141 117.901 347.061 118.111V118.1ZM391.777 137.275C391.727 137.168 391.646 137.079 391.545 137.016L389.709 135.94C389.67 135.912 389.624 135.897 389.576 135.897C389.528 135.897 389.482 135.912 389.443 135.94C389.379 136 389.33 136.074 389.299 136.155L387.773 139.986L386.225 134.423C386.195 134.297 386.151 134.174 386.092 134.057C386.034 133.938 385.942 133.837 385.827 133.767L384.002 132.691C383.968 132.667 383.927 132.654 383.886 132.654C383.844 132.654 383.803 132.667 383.769 132.691C383.734 132.724 383.707 132.764 383.69 132.809C383.673 132.854 383.666 132.901 383.67 132.949C383.664 132.992 383.664 133.035 383.67 133.078L386.479 143.128L385.428 145.764C385.421 145.803 385.421 145.843 385.428 145.883C385.43 146.007 385.464 146.129 385.528 146.238C385.575 146.346 385.656 146.436 385.76 146.496L387.585 147.572C387.696 147.626 387.784 147.636 387.851 147.572C387.915 147.512 387.964 147.438 387.994 147.357L391.876 137.673C391.883 137.633 391.883 137.593 391.876 137.554C391.862 137.459 391.828 137.368 391.777 137.285V137.275ZM375.828 137.576C375.867 137.602 375.914 137.616 375.961 137.616C376.009 137.616 376.055 137.602 376.094 137.576C376.134 137.541 376.165 137.498 376.185 137.449C376.204 137.4 376.211 137.348 376.204 137.296V125.46C376.205 125.317 376.166 125.176 376.094 125.051C376.042 124.928 375.949 124.825 375.828 124.761L374.081 123.771C374.042 123.744 373.996 123.73 373.948 123.73C373.901 123.73 373.854 123.744 373.815 123.771C373.775 123.805 373.744 123.849 373.725 123.897C373.705 123.946 373.699 123.999 373.705 124.05V127.892C373.629 127.726 373.544 127.565 373.45 127.408C373.345 127.206 373.219 127.015 373.074 126.837C372.917 126.634 372.743 126.443 372.555 126.267C372.335 126.073 372.094 125.903 371.836 125.761C371.473 125.55 371.071 125.411 370.652 125.352C370.31 125.305 369.962 125.386 369.679 125.578C369.368 125.809 369.133 126.123 369.004 126.482C368.814 127.022 368.72 127.59 368.728 128.161C368.728 128.344 368.728 128.58 368.728 128.892C368.728 129.205 368.728 129.441 368.728 129.624C368.736 130.3 368.829 130.972 369.004 131.626C369.165 132.204 369.391 132.764 369.679 133.293C369.946 133.769 370.273 134.21 370.652 134.606C371.007 134.954 371.404 135.258 371.836 135.51C372.078 135.653 372.338 135.765 372.61 135.843C372.785 135.879 372.966 135.879 373.141 135.843C373.273 135.828 373.398 135.78 373.506 135.704C373.602 135.637 373.691 135.561 373.771 135.478V135.908C373.778 136.05 373.816 136.19 373.882 136.317C373.94 136.436 374.032 136.537 374.147 136.607L375.828 137.576ZM373.705 132.314C373.688 132.472 373.65 132.628 373.594 132.777C373.546 132.905 373.466 133.02 373.362 133.11C373.261 133.197 373.131 133.243 372.997 133.24C372.807 133.23 372.624 133.171 372.466 133.067C372.056 132.842 371.731 132.495 371.537 132.077C371.351 131.673 371.243 131.239 371.216 130.797C371.183 130.461 371.183 130.122 371.216 129.786C371.213 129.451 371.326 129.125 371.537 128.86C371.725 128.656 372.035 128.667 372.466 128.86C372.662 128.976 372.84 129.117 372.997 129.28C373.139 129.449 373.261 129.633 373.362 129.829C373.458 130.015 373.536 130.209 373.594 130.41C373.646 130.604 373.683 130.802 373.705 131.001C373.717 131.216 373.717 131.432 373.705 131.647C373.72 131.873 373.72 132.099 373.705 132.325V132.314ZM355.389 125.923C355.531 125.918 355.668 125.877 355.788 125.804C355.892 125.74 355.985 125.66 356.064 125.568V125.977C356.064 126.12 356.102 126.261 356.175 126.385C356.23 126.507 356.323 126.608 356.44 126.676L358.055 127.591C358.094 127.617 358.14 127.631 358.188 127.631C358.235 127.631 358.281 127.617 358.32 127.591C358.359 127.555 358.388 127.511 358.408 127.463C358.427 127.414 358.435 127.362 358.431 127.311V118.907C358.425 118.768 358.388 118.632 358.32 118.509C358.259 118.389 358.168 118.285 358.055 118.208L356.296 117.229C356.258 117.201 356.212 117.186 356.164 117.186C356.116 117.186 356.069 117.201 356.031 117.229C355.993 117.265 355.963 117.308 355.944 117.357C355.925 117.405 355.917 117.457 355.92 117.508V122.081C355.949 122.457 355.86 122.832 355.666 123.157C355.489 123.373 355.201 123.373 354.792 123.157C354.398 122.944 354.09 122.606 353.919 122.2C353.734 121.756 353.644 121.28 353.653 120.801V116.239C353.652 116.096 353.614 115.955 353.542 115.83C353.481 115.712 353.39 115.612 353.277 115.539L351.53 114.56C351.491 114.532 351.445 114.517 351.397 114.517C351.349 114.517 351.302 114.532 351.264 114.56C351.224 114.595 351.193 114.638 351.173 114.687C351.154 114.736 351.147 114.788 351.154 114.84V119.768C351.113 121.004 351.387 122.231 351.95 123.34C352.446 124.238 353.189 124.983 354.095 125.492C354.331 125.631 354.584 125.739 354.848 125.815C355.022 125.879 355.204 125.919 355.389 125.933V125.923Z" fill="#905BE3"/>
<path d="M400.703 160.591C397.562 158.851 394.152 157.619 390.605 156.944C384.19 155.685 378.007 155.072 371.703 152.952C370.133 152.414 368.551 151.876 366.947 151.123C366.162 150.8 365.355 150.402 364.547 150.047C363.74 149.692 362.955 149.261 362.158 148.842C358.817 147.047 355.596 145.049 352.514 142.859C351.718 142.299 350.921 141.675 350.125 141.094C349.329 140.513 348.544 139.846 347.758 139.179C346.177 137.888 344.628 136.424 343.091 134.875C341.554 133.326 340.049 131.712 338.567 129.99C337.085 128.268 335.659 126.385 334.232 124.449C335.338 126.665 336.665 128.806 338.014 130.905C339.364 133.003 340.857 134.897 342.361 136.769C345.276 140.274 348.511 143.516 352.027 146.453C355.205 149.092 358.597 151.478 362.169 153.587C365.403 155.477 368.823 157.049 372.378 158.278C374.059 158.805 375.696 159.279 377.366 159.634C379.036 159.989 380.629 160.247 382.21 160.43C385.395 160.817 388.481 161.011 391.567 161.226C394.745 161.402 397.877 162.044 400.857 163.131C404.333 164.442 407.626 166.173 410.657 168.285C407.737 165.268 404.384 162.676 400.703 160.591Z" fill="#905BE3"/>
<path d="M396.411 146.776C396.139 146.671 395.843 146.635 395.553 146.673C395.262 146.71 394.987 146.82 394.752 146.991C394.422 147.317 394.181 147.718 394.05 148.157C393.919 148.597 393.902 149.061 394 149.509C394.078 150.37 394.377 151.199 394.87 151.919C395.362 152.639 396.033 153.228 396.82 153.63C397.038 153.701 397.266 153.738 397.495 153.737C397.851 153.741 398.198 153.627 398.479 153.415C398.813 153.09 399.057 152.69 399.191 152.25C399.324 151.81 399.342 151.345 399.243 150.897C399.163 150.034 398.862 149.205 398.367 148.485C397.872 147.765 397.2 147.177 396.411 146.776ZM397.904 152.715C397.795 152.795 397.664 152.844 397.528 152.858C397.392 152.871 397.254 152.848 397.13 152.79C396.506 152.443 395.978 151.953 395.593 151.362C395.208 150.771 394.976 150.098 394.918 149.401C394.844 149.104 394.844 148.794 394.917 148.497C394.99 148.199 395.135 147.923 395.338 147.69C395.456 147.595 395.606 147.546 395.759 147.55C395.879 147.553 395.999 147.575 396.113 147.615C396.737 147.962 397.264 148.453 397.65 149.043C398.035 149.634 398.267 150.307 398.325 151.004C398.398 151.301 398.399 151.611 398.326 151.909C398.253 152.206 398.108 152.482 397.904 152.715ZM404.197 142.848C403.832 139.792 401.797 136.801 399.563 136.026C399.15 135.858 398.699 135.798 398.254 135.853C397.809 135.907 397.388 136.075 397.031 136.338C396.501 136.86 396.115 137.503 395.908 138.209C395.701 138.914 395.68 139.658 395.847 140.373C396.212 143.418 398.247 146.41 400.492 147.184C400.825 147.306 401.177 147.368 401.532 147.367C402.07 147.376 402.595 147.201 403.014 146.872C403.547 146.355 403.935 145.714 404.142 145.01C404.35 144.305 404.368 143.561 404.197 142.848ZM402.45 146.173C402.215 146.344 401.937 146.45 401.645 146.48C401.353 146.51 401.058 146.464 400.791 146.345C398.889 145.689 397.075 142.967 396.754 140.266C396.62 139.701 396.626 139.114 396.772 138.553C396.919 137.991 397.2 137.472 397.595 137.038C397.858 136.832 398.186 136.722 398.524 136.726C398.774 136.727 399.021 136.775 399.254 136.866C401.156 137.522 402.97 140.255 403.291 142.945C403.428 143.509 403.424 144.097 403.278 144.659C403.131 145.222 402.847 145.741 402.45 146.173ZM409.55 155.265C409.263 152.877 407.67 150.531 405.901 149.885C405.566 149.751 405.201 149.705 404.842 149.75C404.484 149.795 404.143 149.931 403.855 150.143C403.43 150.56 403.119 151.074 402.953 151.639C402.787 152.203 402.77 152.799 402.903 153.371C403.191 155.749 404.795 158.106 406.553 158.751C406.819 158.846 407.1 158.897 407.383 158.902C407.825 158.907 408.254 158.762 408.599 158.493C409.024 158.079 409.334 157.566 409.501 157.004C409.667 156.441 409.684 155.847 409.55 155.276V155.265ZM408.035 157.762C407.871 157.887 407.674 157.964 407.467 157.985C407.259 158.006 407.05 157.97 406.863 157.88C405.447 157.396 404.054 155.287 403.81 153.275C403.709 152.856 403.711 152.421 403.817 152.004C403.923 151.586 404.129 151.2 404.419 150.875C404.607 150.738 404.836 150.662 405.071 150.66C405.253 150.663 405.432 150.696 405.602 150.757C407.007 151.252 408.4 153.361 408.644 155.362C408.745 155.78 408.742 156.216 408.637 156.633C408.531 157.05 408.325 157.437 408.035 157.762Z" fill="#905BE3"/>
<path d="M349.428 126.332C349.393 126.284 349.352 126.241 349.307 126.202L349.063 126.063C349.045 126.052 349.024 126.047 349.002 126.047C348.981 126.047 348.96 126.052 348.942 126.063C348.922 126.078 348.906 126.097 348.896 126.12C348.886 126.143 348.883 126.167 348.886 126.192V128.042C348.793 127.832 348.674 127.633 348.532 127.451C348.356 127.233 348.138 127.05 347.891 126.913C347.724 126.803 347.529 126.739 347.327 126.73C347.164 126.723 347.003 126.773 346.873 126.87C346.727 126.988 346.62 127.145 346.564 127.322C346.48 127.565 346.432 127.818 346.42 128.075V128.613C346.439 128.918 346.487 129.22 346.564 129.517C346.633 129.793 346.737 130.061 346.873 130.313C346.989 130.549 347.142 130.767 347.327 130.958C347.49 131.139 347.68 131.295 347.891 131.421C348.075 131.547 348.296 131.611 348.521 131.604C348.592 131.597 348.661 131.576 348.724 131.543C348.786 131.509 348.842 131.464 348.886 131.41V131.669C348.884 131.737 348.903 131.805 348.942 131.862C348.967 131.917 349.01 131.962 349.063 131.991L349.307 132.131C349.325 132.142 349.346 132.147 349.367 132.147C349.389 132.147 349.41 132.142 349.428 132.131C349.443 132.089 349.443 132.044 349.428 132.002V126.525C349.437 126.461 349.437 126.396 349.428 126.332ZM348.886 130.087C348.898 130.218 348.88 130.35 348.832 130.473C348.784 130.596 348.708 130.707 348.61 130.797C348.507 130.848 348.391 130.87 348.276 130.861C348.16 130.851 348.05 130.811 347.957 130.743C347.662 130.57 347.427 130.315 347.283 130.012C347.121 129.673 347.027 129.308 347.006 128.936V128.473C346.994 128.183 347.092 127.9 347.283 127.677C347.449 127.526 347.67 127.537 347.957 127.677C348.239 127.84 348.465 128.079 348.61 128.365C348.791 128.697 348.886 129.066 348.886 129.441V130.087Z" fill="#455A64"/>
<path d="M352.138 129.377L351.806 129.194C351.665 129.101 351.501 129.049 351.331 129.043C351.268 129.051 351.207 129.073 351.154 129.106C351.1 129.14 351.055 129.184 351.021 129.237V128.979C351.035 128.918 351.035 128.856 351.021 128.796C350.993 128.74 350.951 128.692 350.899 128.656L350.656 128.527C350.64 128.511 350.618 128.503 350.595 128.503C350.573 128.503 350.551 128.511 350.534 128.527C350.525 128.547 350.52 128.569 350.52 128.591C350.52 128.614 350.525 128.636 350.534 128.656V132.54C350.52 132.604 350.52 132.67 350.534 132.734C350.56 132.788 350.602 132.834 350.656 132.863L350.899 133.003C350.918 133.013 350.939 133.019 350.96 133.019C350.982 133.019 351.003 133.013 351.021 133.003C351.021 133.003 351.021 132.938 351.021 132.874V130.431C351.021 129.796 351.275 129.613 351.762 129.893L352.138 130.098C352.155 130.113 352.176 130.121 352.199 130.121C352.222 130.121 352.243 130.113 352.26 130.098C352.279 130.082 352.294 130.062 352.304 130.04C352.313 130.017 352.317 129.993 352.315 129.968V129.699C352.311 129.635 352.292 129.573 352.26 129.517C352.231 129.461 352.19 129.413 352.138 129.377Z" fill="#455A64"/>
<path d="M344.518 129.183L343.832 127.956C344 127.737 344.124 127.489 344.197 127.225C344.261 126.974 344.302 126.718 344.318 126.461C344.326 126.414 344.326 126.367 344.318 126.321C344.318 126.267 344.263 126.224 344.208 126.202L343.909 126.03H343.81C343.81 126.03 343.81 126.03 343.743 126.127C343.697 126.47 343.588 126.801 343.423 127.106L342.438 125.299C342.672 125.228 342.885 125.102 343.058 124.933C343.23 124.719 343.313 124.45 343.29 124.18C343.291 123.963 343.254 123.749 343.179 123.545C343.11 123.342 343.017 123.147 342.903 122.964C342.796 122.789 342.67 122.627 342.527 122.48C342.314 122.226 342.017 122.055 341.686 121.995C341.555 121.974 341.419 121.992 341.299 122.049C341.175 122.104 341.071 122.194 341 122.307C340.927 122.474 340.893 122.654 340.901 122.835C340.89 122.953 340.89 123.072 340.901 123.19C340.922 123.313 340.952 123.436 340.989 123.556C341.039 123.713 341.098 123.867 341.166 124.018C341.244 124.19 341.343 124.384 341.465 124.621C341.345 124.642 341.229 124.682 341.122 124.739C340.9 124.849 340.73 125.038 340.647 125.266C340.598 125.42 340.576 125.58 340.58 125.74C340.578 125.988 340.615 126.235 340.691 126.471C340.768 126.71 340.876 126.937 341.011 127.149C341.148 127.356 341.308 127.547 341.487 127.72C341.662 127.887 341.859 128.032 342.073 128.15C342.307 128.296 342.572 128.388 342.847 128.419C343.056 128.44 343.265 128.394 343.445 128.29L343.81 128.957V129.043C343.836 129.082 343.875 129.112 343.92 129.129L344.385 129.409H344.473C344.473 129.409 344.473 129.409 344.473 129.323C344.499 129.28 344.514 129.232 344.518 129.183ZM341.653 122.845C341.72 122.812 341.794 122.795 341.869 122.795C341.944 122.795 342.017 122.812 342.084 122.845C342.166 122.897 342.24 122.958 342.306 123.028C342.374 123.11 342.437 123.196 342.494 123.287C342.494 123.373 342.571 123.448 342.604 123.545C342.617 123.627 342.617 123.71 342.604 123.792C342.607 123.896 342.584 124 342.538 124.094C342.502 124.169 342.449 124.235 342.383 124.287C342.318 124.331 342.247 124.368 342.173 124.395C342.094 124.422 342.012 124.44 341.929 124.449L341.697 124.007C341.631 123.868 341.587 123.76 341.542 123.652C341.499 123.568 341.473 123.477 341.465 123.383C341.455 123.301 341.455 123.218 341.465 123.136C341.476 122.996 341.531 122.899 341.653 122.845ZM342.549 127.58C342.375 127.552 342.21 127.49 342.062 127.397C341.947 127.343 341.842 127.27 341.753 127.182C341.646 127.092 341.549 126.991 341.465 126.88C341.38 126.759 341.309 126.63 341.255 126.493C341.206 126.358 341.18 126.216 341.177 126.073C341.177 125.985 341.196 125.897 341.233 125.815C341.275 125.741 341.332 125.676 341.399 125.621C341.467 125.574 341.542 125.534 341.62 125.503L341.874 125.417L342.98 127.494C342.849 127.564 342.698 127.594 342.549 127.58Z" fill="#455A64"/>
<path d="M381.912 146.184C381.901 146.153 381.883 146.124 381.86 146.1C381.837 146.076 381.81 146.057 381.779 146.044L381.547 145.915C381.491 145.915 381.458 145.915 381.425 145.915C381.392 145.915 381.37 145.979 381.37 146.044V146.302C381.277 146.088 381.158 145.886 381.016 145.7C380.838 145.486 380.621 145.307 380.374 145.172C380.207 145.062 380.012 144.999 379.81 144.989C379.646 144.978 379.484 145.028 379.357 145.129C379.209 145.241 379.1 145.396 379.047 145.57C378.962 145.817 378.918 146.075 378.914 146.334C378.908 146.424 378.908 146.514 378.914 146.603C378.909 146.697 378.909 146.79 378.914 146.883C378.925 147.185 378.97 147.484 379.047 147.776C379.12 148.055 379.224 148.326 379.357 148.583C379.478 148.814 379.631 149.027 379.81 149.218C379.973 149.399 380.164 149.555 380.374 149.681C380.563 149.798 380.781 149.861 381.005 149.864C381.147 149.845 381.276 149.776 381.37 149.67V150.187C381.378 150.347 381.355 150.507 381.303 150.66C381.283 150.709 381.253 150.753 381.215 150.79C381.177 150.827 381.132 150.856 381.082 150.875C380.978 150.908 380.866 150.908 380.761 150.875C380.625 150.834 380.495 150.776 380.374 150.703C380.233 150.637 380.105 150.545 379.998 150.434C379.901 150.348 379.815 150.251 379.744 150.143C379.689 150.067 379.644 149.984 379.611 149.896L379.556 149.724C379.533 149.645 379.5 149.569 379.456 149.498C379.431 149.449 379.387 149.411 379.335 149.39L379.147 149.283C379.127 149.27 379.104 149.264 379.08 149.264C379.057 149.264 379.034 149.27 379.014 149.283C379.014 149.283 379.014 149.347 379.014 149.412C379.029 149.568 379.059 149.723 379.102 149.874C379.175 150.068 379.263 150.255 379.368 150.434C379.508 150.629 379.659 150.816 379.821 150.994C380.022 151.179 380.245 151.342 380.485 151.478C380.983 151.757 381.37 151.801 381.591 151.596C381.737 151.441 381.846 151.256 381.911 151.056C381.976 150.855 381.995 150.643 381.967 150.434V146.377C381.962 146.31 381.943 146.244 381.912 146.184ZM381.37 148.282C381.37 148.669 381.27 148.917 381.093 149.035C380.998 149.103 380.884 149.139 380.767 149.139C380.65 149.139 380.535 149.103 380.441 149.035C380.147 148.866 379.911 148.615 379.766 148.314C379.601 147.978 379.511 147.611 379.501 147.238C379.489 147.084 379.489 146.93 379.501 146.776C379.488 146.632 379.505 146.488 379.55 146.351C379.596 146.215 379.669 146.088 379.766 145.979C379.932 145.829 380.164 145.839 380.441 145.979C380.722 146.147 380.949 146.39 381.093 146.679C381.276 147.01 381.371 147.379 381.37 147.755C381.37 147.841 381.37 147.948 381.37 148.067C381.37 148.185 381.37 148.196 381.37 148.282Z" fill="#455A64"/>
<path d="M358.022 134.003C358.072 133.9 358.148 133.811 358.243 133.745C358.324 133.691 358.423 133.668 358.52 133.681C358.633 133.697 358.741 133.734 358.841 133.788C359.047 133.903 359.227 134.057 359.371 134.24C359.527 134.448 359.643 134.681 359.714 134.929C359.73 135.012 359.759 135.092 359.803 135.166C359.835 135.209 359.876 135.246 359.924 135.273L360.112 135.381C360.132 135.393 360.155 135.4 360.179 135.4C360.202 135.4 360.225 135.393 360.245 135.381C360.264 135.336 360.264 135.286 360.245 135.241C360.238 135.072 360.205 134.905 360.146 134.746C360.075 134.54 359.982 134.342 359.869 134.154C359.739 133.939 359.587 133.737 359.416 133.552C359.235 133.358 359.026 133.191 358.796 133.057C358.61 132.942 358.397 132.875 358.177 132.863C358.008 132.855 357.842 132.909 357.712 133.014C357.579 133.134 357.479 133.286 357.425 133.455C357.343 133.672 357.299 133.901 357.292 134.133C357.286 134.244 357.286 134.355 357.292 134.466C357.292 134.595 357.292 134.714 357.292 134.8C357.316 135.352 357.455 135.894 357.701 136.392C357.83 136.634 357.986 136.861 358.166 137.07C358.35 137.264 358.562 137.431 358.796 137.565C358.982 137.685 359.194 137.759 359.416 137.78C359.573 137.785 359.729 137.752 359.869 137.683C359.99 137.617 360.087 137.516 360.146 137.393C360.211 137.277 360.245 137.148 360.245 137.016C360.26 136.952 360.26 136.886 360.245 136.823C360.216 136.767 360.169 136.722 360.112 136.693L359.924 136.586C359.906 136.576 359.885 136.572 359.864 136.572C359.842 136.572 359.822 136.576 359.803 136.586C359.803 136.586 359.736 136.586 359.714 136.715C359.692 136.844 359.515 137.006 359.371 137.016C359.184 137.024 358.999 136.975 358.841 136.876C358.727 136.806 358.623 136.723 358.531 136.629C358.418 136.513 358.321 136.383 358.243 136.242C358.156 136.084 358.086 135.918 358.033 135.747C357.971 135.54 357.934 135.327 357.923 135.112C357.912 134.918 357.912 134.724 357.923 134.531C357.924 134.351 357.958 134.172 358.022 134.003Z" fill="#455A64"/>
<path d="M372.289 141.127C372.171 140.906 372.027 140.7 371.858 140.513C371.692 140.339 371.502 140.187 371.294 140.061C371.109 139.938 370.887 139.877 370.664 139.889C370.523 139.904 370.393 139.97 370.299 140.072V139.814C370.296 139.749 370.277 139.687 370.243 139.631C370.215 139.576 370.173 139.528 370.122 139.491L369.889 139.362C369.834 139.362 369.801 139.362 369.768 139.362C369.735 139.362 369.768 139.427 369.768 139.491V143.375C369.748 143.439 369.748 143.506 369.768 143.569C369.793 143.624 369.836 143.669 369.889 143.698L370.122 143.838C370.14 143.849 370.161 143.854 370.182 143.854C370.204 143.854 370.225 143.849 370.243 143.838C370.279 143.804 370.298 143.758 370.299 143.709V141.503C370.299 141.073 370.376 140.804 370.542 140.685C370.638 140.621 370.752 140.587 370.868 140.587C370.985 140.587 371.098 140.621 371.194 140.685C371.482 140.845 371.713 141.085 371.858 141.374C372.027 141.708 372.111 142.078 372.101 142.45V144.656C372.087 144.716 372.087 144.779 372.101 144.839C372.13 144.894 372.172 144.942 372.223 144.979L372.466 145.108C372.483 145.123 372.505 145.131 372.527 145.131C372.55 145.131 372.572 145.123 372.588 145.108C372.607 145.092 372.622 145.072 372.632 145.05C372.642 145.027 372.646 145.003 372.643 144.979V142.655C372.646 142.371 372.609 142.089 372.533 141.815C372.484 141.576 372.402 141.345 372.289 141.127Z" fill="#455A64"/>
<path d="M377.764 144.193C377.646 143.97 377.497 143.764 377.322 143.58C377.161 143.4 376.97 143.247 376.758 143.128C376.574 143.002 376.351 142.942 376.127 142.956C375.988 142.976 375.86 143.041 375.762 143.139V142.88C375.779 142.821 375.779 142.757 375.762 142.698C375.733 142.642 375.692 142.594 375.64 142.558L375.397 142.429C375.38 142.415 375.358 142.408 375.336 142.408C375.314 142.408 375.293 142.415 375.276 142.429C375.24 142.463 375.22 142.509 375.22 142.558V146.453C375.223 146.517 375.242 146.58 375.276 146.636C375.301 146.693 375.343 146.742 375.397 146.776L375.64 146.905C375.658 146.918 375.679 146.925 375.701 146.925C375.723 146.925 375.745 146.918 375.762 146.905C375.779 146.863 375.779 146.817 375.762 146.776V144.624C375.762 144.193 375.851 143.913 376.017 143.795C376.182 143.677 376.393 143.698 376.669 143.849C376.952 144.014 377.181 144.253 377.333 144.538C377.493 144.874 377.573 145.242 377.565 145.614V147.766C377.569 147.83 377.588 147.892 377.62 147.948C377.649 148.004 377.69 148.052 377.742 148.088L377.974 148.217C378.029 148.217 378.063 148.217 378.096 148.217C378.129 148.217 378.096 148.153 378.096 148.088V145.764C378.096 145.478 378.063 145.193 377.996 144.914C377.948 144.666 377.87 144.424 377.764 144.193Z" fill="#455A64"/>
<path d="M368.673 139.534C368.601 139.304 368.508 139.081 368.396 138.867C368.285 138.661 368.144 138.473 367.976 138.307C367.811 138.15 367.629 138.009 367.434 137.888C367.288 137.806 367.126 137.754 366.958 137.737C366.83 137.715 366.699 137.715 366.571 137.737C366.461 137.773 366.365 137.841 366.295 137.931C366.23 138.024 366.192 138.131 366.184 138.243C366.179 138.312 366.199 138.38 366.239 138.437C366.264 138.494 366.307 138.543 366.361 138.576L366.56 138.684C366.596 138.696 366.635 138.696 366.671 138.684C366.685 138.69 366.7 138.693 366.715 138.693C366.73 138.693 366.745 138.69 366.759 138.684C366.82 138.603 366.905 138.543 367.003 138.512C367.102 138.512 367.246 138.512 367.434 138.609C367.656 138.739 367.842 138.92 367.976 139.136C368.121 139.361 368.194 139.623 368.186 139.889V139.997L367.279 139.685C367.116 139.622 366.945 139.583 366.77 139.566C366.632 139.532 366.488 139.532 366.35 139.566C366.223 139.613 366.12 139.705 366.062 139.825C365.982 139.993 365.948 140.178 365.963 140.363C365.962 140.534 365.988 140.705 366.04 140.868C366.088 141.045 366.167 141.213 366.273 141.363C366.367 141.527 366.482 141.679 366.615 141.815C366.755 141.952 366.911 142.071 367.08 142.17C367.184 142.22 367.291 142.263 367.401 142.299C367.503 142.337 367.612 142.356 367.721 142.353C367.816 142.376 367.915 142.376 368.009 142.353C368.087 142.312 368.149 142.248 368.186 142.17V142.515C368.185 142.58 368.204 142.643 368.241 142.698C368.263 142.754 368.307 142.8 368.363 142.827L368.595 142.967C368.616 142.977 368.638 142.982 368.662 142.982C368.685 142.982 368.707 142.977 368.728 142.967C368.744 142.925 368.744 142.879 368.728 142.837V140.287C368.742 140.035 368.724 139.782 368.673 139.534ZM368.186 140.868C368.195 141.026 368.169 141.184 368.109 141.331C368.093 141.387 368.067 141.44 368.031 141.486C367.995 141.532 367.95 141.571 367.898 141.6C367.805 141.663 367.691 141.69 367.578 141.675C367.424 141.659 367.276 141.608 367.146 141.525C367.041 141.471 366.944 141.402 366.859 141.32C366.793 141.247 366.733 141.167 366.682 141.084C366.638 141.008 366.601 140.929 366.571 140.847C366.566 140.779 366.566 140.71 366.571 140.642C366.56 140.567 366.578 140.491 366.621 140.428C366.663 140.364 366.728 140.318 366.803 140.298C367.027 140.279 367.252 140.316 367.456 140.406L368.208 140.664L368.186 140.868Z" fill="#455A64"/>
<path d="M355.644 131.357L355.379 131.206C355.362 131.191 355.34 131.182 355.318 131.182C355.295 131.182 355.273 131.191 355.257 131.206C355.223 131.229 355.2 131.264 355.191 131.303L354.195 133.573L353.2 130.173C353.186 130.116 353.163 130.062 353.133 130.012C353.109 129.954 353.066 129.905 353.012 129.872L352.746 129.721C352.73 129.71 352.711 129.705 352.691 129.705C352.671 129.705 352.652 129.71 352.636 129.721C352.621 129.759 352.621 129.801 352.636 129.839C352.631 129.861 352.631 129.883 352.636 129.904L353.908 134.283L353.288 135.682V135.736C353.273 135.789 353.273 135.844 353.288 135.897C353.297 135.924 353.311 135.948 353.33 135.968C353.35 135.988 353.373 136.005 353.399 136.016L353.653 136.166C353.709 136.166 353.753 136.166 353.775 136.166C353.809 136.143 353.832 136.109 353.841 136.069L355.777 131.69C355.784 131.673 355.784 131.654 355.777 131.636C355.792 131.584 355.792 131.528 355.777 131.475C355.75 131.42 355.702 131.378 355.644 131.357Z" fill="#455A64"/>
<path d="M374.092 140.137L373.727 139.932C373.711 139.917 373.689 139.909 373.667 139.909C373.644 139.909 373.622 139.917 373.606 139.932C373.586 139.948 373.571 139.968 373.562 139.99C373.552 140.013 373.548 140.037 373.55 140.061V140.535C373.553 140.599 373.572 140.662 373.606 140.718C373.634 140.773 373.676 140.821 373.727 140.858L374.092 141.062C374.109 141.077 374.131 141.086 374.153 141.086C374.176 141.086 374.198 141.077 374.214 141.062C374.224 141.042 374.229 141.02 374.229 140.997C374.229 140.975 374.224 140.953 374.214 140.933V140.459C374.23 140.4 374.23 140.337 374.214 140.277C374.189 140.219 374.146 140.17 374.092 140.137Z" fill="#455A64"/>
<path d="M365.311 137.942C365.255 137.652 365.154 137.373 365.012 137.113C364.896 136.861 364.74 136.628 364.547 136.425C364.374 136.228 364.169 136.061 363.939 135.93C363.76 135.827 363.56 135.764 363.353 135.747C363.19 135.742 363.03 135.791 362.899 135.887C362.762 135.997 362.659 136.142 362.601 136.306C362.513 136.507 362.465 136.723 362.457 136.941C362.435 137.199 362.435 137.458 362.457 137.716C362.472 137.996 362.52 138.274 362.601 138.544C362.669 138.811 362.773 139.068 362.911 139.308C363.032 139.546 363.18 139.77 363.353 139.975C363.522 140.159 363.72 140.315 363.939 140.438C364.122 140.551 364.324 140.631 364.536 140.675C364.674 140.708 364.819 140.708 364.957 140.675C365.061 140.639 365.15 140.571 365.211 140.481C365.268 140.401 365.306 140.309 365.322 140.212C365.341 140.153 365.341 140.089 365.322 140.029C365.296 139.969 365.249 139.919 365.189 139.889L365.001 139.782C364.961 139.772 364.919 139.772 364.879 139.782H364.791C364.713 139.856 364.612 139.902 364.503 139.911C364.315 139.912 364.131 139.852 363.983 139.739C363.707 139.587 363.483 139.359 363.342 139.082C363.158 138.752 363.067 138.381 363.076 138.006L365.288 139.244C365.305 139.259 365.327 139.267 365.349 139.267C365.372 139.267 365.394 139.259 365.41 139.244C365.41 139.244 365.41 139.168 365.41 139.115V138.889C365.417 138.57 365.384 138.252 365.311 137.942ZM364.835 138.308L363.032 137.285C363.034 137.143 363.056 137.002 363.099 136.866C363.14 136.77 363.21 136.688 363.298 136.629C363.338 136.599 363.384 136.576 363.434 136.563C363.483 136.55 363.534 136.547 363.585 136.554C363.71 136.572 363.829 136.612 363.939 136.672C364.215 136.837 364.441 137.071 364.592 137.35C364.756 137.643 364.84 137.973 364.835 138.308Z" fill="#455A64"/>
<path d="M374.026 141.686L373.794 141.557C373.738 141.557 373.705 141.557 373.672 141.557C373.637 141.591 373.617 141.638 373.617 141.686V145.592C373.62 145.656 373.639 145.719 373.672 145.775C373.694 145.834 373.737 145.884 373.794 145.915L374.026 146.044C374.081 146.044 374.114 146.044 374.148 146.044C374.164 146.002 374.164 145.956 374.148 145.915V142.02C374.162 141.96 374.162 141.897 374.148 141.837C374.128 141.773 374.085 141.719 374.026 141.686Z" fill="#455A64"/>
<path d="M361.472 133.046L361.24 132.917C361.222 132.901 361.198 132.892 361.174 132.892C361.149 132.892 361.126 132.901 361.107 132.917C361.107 132.917 361.107 132.981 361.107 133.046V138.523C361.106 138.587 361.122 138.65 361.153 138.706C361.184 138.763 361.229 138.811 361.284 138.846L361.517 138.975C361.533 138.99 361.555 138.998 361.578 138.998C361.6 138.998 361.622 138.99 361.638 138.975C361.658 138.959 361.673 138.939 361.682 138.917C361.692 138.894 361.696 138.87 361.694 138.846V133.369C361.689 133.305 361.67 133.242 361.638 133.186C361.598 133.125 361.54 133.076 361.472 133.046Z" fill="#455A64"/>
</svg>
