<?xml version="1.0" encoding="UTF-8"?>
<svg version="1.1" xmlns="http://www.w3.org/2000/svg" width="522" height="478">
<path d="M0 0 C172.26 0 344.52 0 522 0 C522 157.74 522 315.48 522 478 C349.74 478 177.48 478 0 478 C0 320.26 0 162.52 0 0 Z " fill="#08124F" transform="translate(0,0)"/>
<path d="M0 0 C51.15 0 102.3 0 155 0 C155 0.99 155 1.98 155 3 C156.98 3 158.96 3 161 3 C161.33 4.32 161.66 5.64 162 7 C162.99 7 163.98 7 165 7 C165 7.99 165 8.98 165 10 C166.32 10 167.64 10 169 10 C169 10.99 169 11.98 169 13 C169.99 13.33 170.98 13.66 172 14 C172.02898816 17.93748458 172.04679464 21.87494179 172.0625 25.8125 C172.07087891 26.93205078 172.07925781 28.05160156 172.08789062 29.20507812 C172.09272461 30.81479492 172.09272461 30.81479492 172.09765625 32.45703125 C172.10551147 33.9416687 172.10551147 33.9416687 172.11352539 35.45629883 C172 38 172 38 171 41 C170.01 41 169.02 41 168 41 C168 43.31 168 45.62 168 48 C167.01 48 166.02 48 165 48 C165 50.31 165 52.62 165 55 C163.68 55 162.36 55 161 55 C161 55.99 161 56.98 161 58 C160.34 58.33 159.68 58.66 159 59 C158.34227572 62.02934491 158.34227572 62.02934491 158 65 C156.515 65.495 156.515 65.495 155 66 C154.67 66.99 154.34 67.98 154 69 C153.01 69 152.02 69 151 69 C151 71.31 151 73.62 151 76 C150.01 76 149.02 76 148 76 C147.67 77.98 147.34 79.96 147 82 C146.34 82 145.68 82 145 82 C144.67 84.31 144.34 86.62 144 89 C143.01 89 142.02 89 141 89 C141 90.32 141 91.64 141 93 C140.01 93 139.02 93 138 93 C137.87625 93.969375 137.7525 94.93875 137.625 95.9375 C137.315625 97.4534375 137.315625 97.4534375 137 99 C136.34 99.33 135.68 99.66 135 100 C134.59270772 102.32156597 134.25561323 104.6568787 134 107 C132.68 107 131.36 107 130 107 C130 107.99 130 108.98 130 110 C129.01 110 128.02 110 127 110 C127 111.32 127 112.64 127 114 C126.01 114 125.02 114 124 114 C123.67 115.98 123.34 117.96 123 120 C122.01 120 121.02 120 120 120 C120 121.32 120 122.64 120 124 C119.01 124 118.02 124 117 124 C116.87625 124.969375 116.7525 125.93875 116.625 126.9375 C116.315625 128.4534375 116.315625 128.4534375 116 130 C115.34 130.33 114.68 130.66 114 131 C113.34227572 134.02934491 113.34227572 134.02934491 113 137 C112.01 137 111.02 137 110 137 C110 139.64 110 142.28 110 145 C109.01 145 108.02 145 107 145 C106.67 146.98 106.34 148.96 106 151 C105.01 151 104.02 151 103 151 C103 152.32 103 153.64 103 155 C102.01 155 101.02 155 100 155 C99.87625 155.969375 99.7525 156.93875 99.625 157.9375 C99.41875 158.948125 99.2125 159.95875 99 161 C98.34 161.33 97.68 161.66 97 162 C96.67 162.99 96.34 163.98 96 165 C95.01 165 94.02 165 93 165 C93 167.31 93 169.62 93 172 C92.01 172.33 91.02 172.66 90 173 C89.67 174.98 89.34 176.96 89 179 C88.01 179 87.02 179 86 179 C85.87625 179.969375 85.7525 180.93875 85.625 181.9375 C85.41875 182.948125 85.2125 183.95875 85 185 C84.34 185.33 83.68 185.66 83 186 C82.67 186.99 82.34 187.98 82 189 C81.01 189 80.02 189 79 189 C79 191.31 79 193.62 79 196 C77.68 196 76.36 196 75 196 C75 197.32 75 198.64 75 200 C74.01 200 73.02 200 72 200 C72 201.98 72 203.96 72 206 C71.01 206 70.02 206 69 206 C69 207.32 69 208.64 69 210 C68.01 210 67.02 210 66 210 C65.67 212.31 65.34 214.62 65 217 C64.01 217 63.02 217 62 217 C62 219.31 62 221.62 62 224 C61.01 224 60.02 224 59 224 C58.67 225.98 58.34 227.96 58 230 C57.01 230 56.02 230 55 230 C55 231.32 55 232.64 55 234 C54.01 234 53.02 234 52 234 C51.67 236.31 51.34 238.62 51 241 C50.01 241 49.02 241 48 241 C48 242.32 48 243.64 48 245 C47.01 245 46.02 245 45 245 C44.67 247.97 44.34 250.94 44 254 C43.34 254 42.68 254 42 254 C41.67 256.31 41.34 258.62 41 261 C40.01 261 39.02 261 38 261 C38 262.32 38 263.64 38 265 C37.01 265 36.02 265 35 265 C34.67 268.3 34.34 271.6 34 275 C33.01 275 32.02 275 31 275 C31 276.32 31 277.64 31 279 C30.01 279 29.02 279 28 279 C27.67 280.32 27.34 281.64 27 283 C26.34 283 25.68 283 25 283 C24.67 283.99 24.34 284.98 24 286 C23.01 286 22.02 286 21 286 C21 286.99 21 287.98 21 289 C14.07 289 7.14 289 0 289 C0 288.01 0 287.02 0 286 C-2.31 286 -4.62 286 -7 286 C-7 283.69 -7 281.38 -7 279 C-8.32 278.67 -9.64 278.34 -11 278 C-11 277.34 -11 276.68 -11 276 C-11.99 275.67 -12.98 275.34 -14 275 C-14 274.01 -14 273.02 -14 272 C-14.99 272 -15.98 272 -17 272 C-17 269.69 -17 267.38 -17 265 C-17.99 265 -18.98 265 -20 265 C-20.33 262.69 -20.66 260.38 -21 258 C-21.99 258 -22.98 258 -24 258 C-24 256.68 -24 255.36 -24 254 C-24.99 254 -25.98 254 -27 254 C-27.495 250.535 -27.495 250.535 -28 247 C-28.66 247 -29.32 247 -30 247 C-30.33 245.02 -30.66 243.04 -31 241 C-31.99 241 -32.98 241 -34 241 C-34 239.68 -34 238.36 -34 237 C-34.99 237 -35.98 237 -37 237 C-37.495 233.535 -37.495 233.535 -38 230 C-38.99 230 -39.98 230 -41 230 C-41 227.69 -41 225.38 -41 223 C-41.99 223 -42.98 223 -44 223 C-44.33 221.02 -44.66 219.04 -45 217 C-45.99 217 -46.98 217 -48 217 C-48 214.69 -48 212.38 -48 210 C-49.32 210 -50.64 210 -52 210 C-52 209.01 -52 208.02 -52 207 C-52.99 207 -53.98 207 -55 207 C-55 205.68 -55 204.36 -55 203 C-55.99 203 -56.98 203 -58 203 C-58.33 201.02 -58.66 199.04 -59 197 C-59.66 197 -60.32 197 -61 197 C-61.103125 196.360625 -61.20625 195.72125 -61.3125 195.0625 C-61.539375 194.381875 -61.76625 193.70125 -62 193 C-62.99 192.67 -63.98 192.34 -65 192 C-65 188.7 -65 185.4 -65 182 C-65.99 182 -66.98 182 -68 182 C-68.495 178.535 -68.495 178.535 -69 175 C-69.66 175 -70.32 175 -71 175 C-71.33 173.02 -71.66 171.04 -72 169 C-73.32 168.67 -74.64 168.34 -76 168 C-76 167.01 -76 166.02 -76 165 C-76.66 165 -77.32 165 -78 165 C-78.495 161.535 -78.495 161.535 -79 158 C-80.98 158 -82.96 158 -85 158 C-85.495 154.535 -85.495 154.535 -86 151 C-86.99 151 -87.98 151 -89 151 C-89 148.69 -89 146.38 -89 144 C-89.99 144 -90.98 144 -92 144 C-92.33 142.02 -92.66 140.04 -93 138 C-94.32 138 -95.64 138 -97 138 C-97 137.01 -97 136.02 -97 135 C-97.99 134.67 -98.98 134.34 -100 134 C-100 132.02 -100 130.04 -100 128 C-100.99 128 -101.98 128 -103 128 C-103 126.35 -103 124.7 -103 123 C-103.99 123 -104.98 123 -106 123 C-106.33 121.02 -106.66 119.04 -107 117 C-107.66 117 -108.32 117 -109 117 C-109.495 113.535 -109.495 113.535 -110 110 C-110.99 110 -111.98 110 -113 110 C-113.33 108.02 -113.66 106.04 -114 104 C-114.66 104 -115.32 104 -116 104 C-116.495 100.535 -116.495 100.535 -117 97 C-117.99 97 -118.98 97 -120 97 C-120 94.36 -120 91.72 -120 89 C-120.99 89 -121.98 89 -123 89 C-123 88.01 -123 87.02 -123 86 C-124.32 86 -125.64 86 -127 86 C-127 84.02 -127 82.04 -127 80 C-128.32 80 -129.64 80 -131 80 C-131 77.69 -131 75.38 -131 73 C-131.99 73 -132.98 73 -134 73 C-134 71.35 -134 69.7 -134 68 C-134.99 68 -135.98 68 -137 68 C-137 66.02 -137 64.04 -137 62 C-138.32 62 -139.64 62 -141 62 C-141 59.69 -141 57.38 -141 55 C-141.99 55 -142.98 55 -144 55 C-144.33 53.02 -144.66 51.04 -145 49 C-145.66 49 -146.32 49 -147 49 C-147.33 46.69 -147.66 44.38 -148 42 C-148.99 42 -149.98 42 -151 42 C-151 33.75 -151 25.5 -151 17 C-150.01 17 -149.02 17 -148 17 C-148 16.01 -148 15.02 -148 14 C-146.68 14 -145.36 14 -144 14 C-144 13.01 -144 12.02 -144 11 C-140.52674819 9.8422494 -137.63932552 9.93133348 -134 10 C-134 9.01 -134 8.02 -134 7 C-132.68 7 -131.36 7 -130 7 C-130 6.01 -130 5.02 -130 4 C-124.39 4 -118.78 4 -113 4 C-113 4.99 -113 5.98 -113 7 C-109.37 7 -105.74 7 -102 7 C-102 7.99 -102 8.98 -102 10 C-101.01 10 -100.02 10 -99 10 C-99 12.64 -99 15.28 -99 18 C-98.34 18 -97.68 18 -97 18 C-96.505 18.99 -96.505 18.99 -96 20 C-95.01 20.33 -94.02 20.66 -93 21 C-92.505 23.97 -92.505 23.97 -92 27 C-91.01 27 -90.02 27 -89 27 C-89 28.32 -89 29.64 -89 31 C-88.01 31 -87.02 31 -86 31 C-86 33.31 -86 35.62 -86 38 C-84.68 38 -83.36 38 -82 38 C-82 39.98 -82 41.96 -82 44 C-81.01 44 -80.02 44 -79 44 C-78.505 47.465 -78.505 47.465 -78 51 C-77.34 51 -76.68 51 -76 51 C-76 52.32 -76 53.64 -76 55 C-74.68 55 -73.36 55 -72 55 C-72 57.31 -72 59.62 -72 62 C-70.68 62 -69.36 62 -68 62 C-68 63.98 -68 65.96 -68 68 C-67.01 68 -66.02 68 -65 68 C-65 70.31 -65 72.62 -65 75 C-64.01 75 -63.02 75 -62 75 C-61.896875 75.598125 -61.79375 76.19625 -61.6875 76.8125 C-61.16745356 79.07972457 -61.16745356 79.07972457 -59.4375 80.5 C-58 82 -58 82 -58 86 C-57.01 86 -56.02 86 -55 86 C-54.7834375 87.6396875 -54.7834375 87.6396875 -54.5625 89.3125 C-54.11711896 92.93122987 -54.11711896 92.93122987 -53 96 C-51.35 96.33 -49.7 96.66 -48 97 C-47.87625 97.969375 -47.7525 98.93875 -47.625 99.9375 C-47.41875 100.948125 -47.2125 101.95875 -47 103 C-46.34 103.33 -45.68 103.66 -45 104 C-45 105.98 -45 107.96 -45 110 C-43.68 110 -42.36 110 -41 110 C-41 112.31 -41 114.62 -41 117 C-40.01 117 -39.02 117 -38 117 C-38 118.32 -38 119.64 -38 121 C-37.01 121 -36.02 121 -35 121 C-34.505 124.465 -34.505 124.465 -34 128 C-33.01 128 -32.02 128 -31 128 C-30.87625 128.969375 -30.7525 129.93875 -30.625 130.9375 C-30.315625 132.4534375 -30.315625 132.4534375 -30 134 C-29.34 134.33 -28.68 134.66 -28 135 C-27.375 138.0625 -27.375 138.0625 -27 141 C-25.68 141 -24.36 141 -23 141 C-23 141.99 -23 142.98 -23 144 C-22.01 144.33 -21.02 144.66 -20 145 C-20 146.98 -20 148.96 -20 151 C-19.21625 150.938125 -18.4325 150.87625 -17.625 150.8125 C-16.75875 150.874375 -15.8925 150.93625 -15 151 C-12.5705484 154.6441774 -12.83820425 156.71241272 -13 161 C-12.01 161 -11.02 161 -10 161 C-10 163.64 -10 166.28 -10 169 C-8.68 169 -7.36 169 -6 169 C-6 170.98 -6 172.96 -6 175 C-5.01 175 -4.02 175 -3 175 C-3 177.31 -3 179.62 -3 182 C-2.01 182 -1.02 182 0 182 C0.33 184.31 0.66 186.62 1 189 C1.66 189 2.32 189 3 189 C3.33 189.99 3.66 190.98 4 192 C4.99 192.33 5.98 192.66 7 193 C7 194.98 7 196.96 7 199 C7.99 199 8.98 199 10 199 C10 198.01 10 197.02 10 196 C11.32 196 12.64 196 14 196 C14 194.02 14 192.04 14 190 C14.99 189.67 15.98 189.34 17 189 C17.33 188.01 17.66 187.02 18 186 C18.99 186 19.98 186 21 186 C21 183.69 21 181.38 21 179 C22.32 179 23.64 179 25 179 C25 177.02 25 175.04 25 173 C25.66 172.67 26.32 172.34 27 172 C27.65772428 168.97065509 27.65772428 168.97065509 28 166 C28.99 166 29.98 166 31 166 C31 164.35 31 162.7 31 161 C31.99 161 32.98 161 34 161 C34 159.02 34 157.04 34 155 C35.32 155 36.64 155 38 155 C38 152.69 38 150.38 38 148 C38.99 148 39.98 148 41 148 C41.12375 147.030625 41.2475 146.06125 41.375 145.0625 C41.58125 144.051875 41.7875 143.04125 42 142 C42.66 141.67 43.32 141.34 44 141 C44.65772428 137.97065509 44.65772428 137.97065509 45 135 C45.99 135 46.98 135 48 135 C48 133.35 48 131.7 48 130 C48.99 130 49.98 130 51 130 C51 128.02 51 126.04 51 124 C52.32 124 53.64 124 55 124 C55 122.68 55 121.36 55 120 C55.99 120 56.98 120 58 120 C58 118.02 58 116.04 58 114 C59.32 114 60.64 114 62 114 C62 111.69 62 109.38 62 107 C63.32 107 64.64 107 66 107 C66 105.68 66 104.36 66 103 C66.66 103 67.32 103 68 103 C68.33 101.02 68.66 99.04 69 97 C69.99 97 70.98 97 72 97 C72 94.36 72 91.72 72 89 C72.99 89 73.98 89 75 89 C75.33 87.02 75.66 85.04 76 83 C76.99 83 77.98 83 79 83 C79 80.36 79 77.72 79 75 C79.99 75 80.98 75 82 75 C82 74.01 82 73.02 82 72 C83.32 72 84.64 72 86 72 C86 69.69 86 67.38 86 65 C86.99 65 87.98 65 89 65 C89 64.01 89 63.02 89 62 C88.01 62 87.02 62 86 62 C86 61.01 86 60.02 86 59 C85.07007233 59.00222061 84.14014465 59.00444122 83.18203735 59.00672913 C74.38489928 59.02683108 65.58776901 59.04202444 56.79061317 59.05181217 C52.26876464 59.05701341 47.7469352 59.06406054 43.22509766 59.07543945 C38.85493153 59.0863669 34.48478369 59.09229758 30.11460495 59.09487724 C28.45379728 59.09671382 26.79299052 59.10029994 25.1321907 59.10573006 C16.69535872 59.13219837 8.38656488 59.06210221 0 58 C0 57.34 0 56.68 0 56 C-2.31 55.67 -4.62 55.34 -7 55 C-7 54.01 -7 53.02 -7 52 C-8.32 52 -9.64 52 -11 52 C-11 51.01 -11 50.02 -11 49 C-11.66 49 -12.32 49 -13 49 C-13.103125 48.360625 -13.20625 47.72125 -13.3125 47.0625 C-13.539375 46.381875 -13.76625 45.70125 -14 45 C-14.99 44.67 -15.98 44.34 -17 44 C-17 34.1 -17 24.2 -17 14 C-16.01 14 -15.02 14 -14 14 C-14 12.68 -14 11.36 -14 10 C-12.68 10 -11.36 10 -10 10 C-10 9.01 -10 8.02 -10 7 C-9.01 7 -8.02 7 -7 7 C-7 5.68 -7 4.36 -7 3 C-4.69 3 -2.38 3 0 3 C0 2.01 0 1.02 0 0 Z " fill="#CACACA" transform="translate(254,103)"/>
<path d="M0 0 C0.33 1.65 0.66 3.3 1 5 C-0.423125 6.0828125 -0.423125 6.0828125 -1.875 7.1875 C-4.70901527 9.52256892 -5.82843 11.48529 -7 15 C-7.99 15.495 -7.99 15.495 -9 16 C-9 20.62 -9 25.24 -9 30 C-8.34 30.33 -7.68 30.66 -7 31 C-5.73770492 35.47540984 -5.73770492 35.47540984 -7 38 C-5.68 38 -4.36 38 -3 38 C-3 38.99 -3 39.98 -3 41 C-2.34 41 -1.68 41 -1 41 C-1.33 41.99 -1.66 42.98 -2 44 C-1.195625 44.515625 -0.39125 45.03125 0.4375 45.5625 C3.66447078 48.63205757 3.74896257 50.64868459 4 55 C4.99 55 5.98 55 7 55 C7.33 55.99 7.66 56.98 8 58 C8.66 58.33 9.32 58.66 10 59 C10.66666667 61 11.33333333 63 12 65 C12.66 65.33 13.32 65.66 14 66 C14.67939174 67.99571323 15.34561559 69.99594773 16 72 C16.66 72.66 17.32 73.32 18 74 C18 75.32 18 76.64 18 78 C19.32 78.66 20.64 79.32 22 80 C22 80.66 22 81.32 22 82 C22.99 82.495 22.99 82.495 24 83 C24.40729228 85.32156597 24.74438677 87.6568787 25 90 C25.99 90.33 26.98 90.66 28 91 C29.29567005 93.66755598 30.10069008 96.34234628 30.9375 99.1875 C31.79544031 102.28419743 31.79544031 102.28419743 35 104 C35 104.99 35 105.98 35 107 C35.99 107 36.98 107 38 107 C39.125 110.75 39.125 110.75 38 113 C38.99 113 39.98 113 41 113 C41.33 114.98 41.66 116.96 42 119 C42.99 119.33 43.98 119.66 45 120 C45.495 123.465 45.495 123.465 46 127 C46.66 127 47.32 127 48 127 C48 128.32 48 129.64 48 131 C48.99 131 49.98 131 51 131 C51.495 134.465 51.495 134.465 52 138 C52.99 138 53.98 138 55 138 C56.625 139.0625 56.625 139.0625 58 141 C58.6875 144.6875 58.6875 144.6875 59 148 C59.99 148 60.98 148 62 148 C63.55932754 150.33899132 64.75323461 152.50646922 66 155 C66.515625 155.845625 67.03125 156.69125 67.5625 157.5625 C69 160 69 160 70 163 C69.67 163.66 69.34 164.32 69 165 C69.99 165 70.98 165 72 165 C72.33 165.99 72.66 166.98 73 168 C73.66 168.33 74.32 168.66 75 169 C75.40729228 171.32156597 75.74438677 173.6568787 76 176 C76.99 176.33 77.98 176.66 79 177 C79 178.65 79 180.3 79 182 C79.598125 182.020625 80.19625 182.04125 80.8125 182.0625 C83 183 83 183 84.75 186.375 C86 190 86 190 86 193 C86.99 193 87.98 193 89 193 C89.33 194.98 89.66 196.96 90 199 C90.99 199.33 91.98 199.66 93 200 C93.75 201.9375 93.75 201.9375 94 204 C93.67 204.66 93.34 205.32 93 206 C93.99 206.33 94.98 206.66 96 207 C96.33 208.98 96.66 210.96 97 213 C97.99 213.33 98.98 213.66 100 214 C100 214.99 100 215.98 100 217 C100.99 217 101.98 217 103 217 C104.04449911 220.13349732 103.93423645 220.98968256 103 224 C104.32 224.33 105.64 224.66 107 225 C107.12375 225.804375 107.2475 226.60875 107.375 227.4375 C107.58125 228.283125 107.7875 229.12875 108 230 C108.66 230.33 109.32 230.66 110 231 C110 231.99 110 232.98 110 234 C110.99 234 111.98 234 113 234 C113.28875 234.969375 113.5775 235.93875 113.875 236.9375 C114.64214682 240.10664203 114.64214682 240.10664203 117 241 C117 243.31 117 245.62 117 248 C117.99 248 118.98 248 120 248 C120.33 249.98 120.66 251.96 121 254 C119.68 254.33 118.36 254.66 117 255 C116.67 252.69 116.34 250.38 116 248 C115.01 248 114.02 248 113 248 C113 246.68 113 245.36 113 244 C112.01 244 111.02 244 110 244 C109.505 240.535 109.505 240.535 109 237 C108.34 237 107.68 237 107 237 C106.67 235.02 106.34 233.04 106 231 C105.01 231 104.02 231 103 231 C103 229.68 103 228.36 103 227 C102.01 227 101.02 227 100 227 C99.505 223.535 99.505 223.535 99 220 C98.01 220 97.02 220 96 220 C96 217.69 96 215.38 96 213 C95.01 213 94.02 213 93 213 C92.67 211.02 92.34 209.04 92 207 C91.01 207 90.02 207 89 207 C89 204.69 89 202.38 89 200 C87.68 200 86.36 200 85 200 C85 199.01 85 198.02 85 197 C84.01 197 83.02 197 82 197 C82 195.68 82 194.36 82 193 C81.01 193 80.02 193 79 193 C78.67 191.02 78.34 189.04 78 187 C77.34 187 76.68 187 76 187 C75.896875 186.360625 75.79375 185.72125 75.6875 185.0625 C75.460625 184.381875 75.23375 183.70125 75 183 C74.01 182.67 73.02 182.34 72 182 C72 178.7 72 175.4 72 172 C71.01 172 70.02 172 69 172 C68.505 168.535 68.505 168.535 68 165 C67.34 165 66.68 165 66 165 C65.67 163.02 65.34 161.04 65 159 C63.68 158.67 62.36 158.34 61 158 C61 157.01 61 156.02 61 155 C60.34 155 59.68 155 59 155 C58.505 151.535 58.505 151.535 58 148 C56.02 148 54.04 148 52 148 C51.505 144.535 51.505 144.535 51 141 C50.01 141 49.02 141 48 141 C48 138.69 48 136.38 48 134 C47.01 134 46.02 134 45 134 C44.67 132.02 44.34 130.04 44 128 C42.68 128 41.36 128 40 128 C40 127.01 40 126.02 40 125 C39.01 124.67 38.02 124.34 37 124 C37 122.02 37 120.04 37 118 C36.01 118 35.02 118 34 118 C34 116.35 34 114.7 34 113 C33.01 113 32.02 113 31 113 C30.67 111.02 30.34 109.04 30 107 C29.34 107 28.68 107 28 107 C27.505 103.535 27.505 103.535 27 100 C26.01 100 25.02 100 24 100 C23.67 98.02 23.34 96.04 23 94 C22.34 94 21.68 94 21 94 C20.505 90.535 20.505 90.535 20 87 C19.01 87 18.02 87 17 87 C17 84.36 17 81.72 17 79 C16.01 79 15.02 79 14 79 C14 78.01 14 77.02 14 76 C12.68 76 11.36 76 10 76 C10 74.02 10 72.04 10 70 C8.68 70 7.36 70 6 70 C6 67.69 6 65.38 6 63 C5.01 63 4.02 63 3 63 C3 61.35 3 59.7 3 58 C2.01 58 1.02 58 0 58 C0 56.02 0 54.04 0 52 C-1.32 52 -2.64 52 -4 52 C-4 49.69 -4 47.38 -4 45 C-4.99 45 -5.98 45 -7 45 C-7.33 43.02 -7.66 41.04 -8 39 C-8.66 39 -9.32 39 -10 39 C-10.33 36.69 -10.66 34.38 -11 32 C-11.99 32 -12.98 32 -14 32 C-14 23.75 -14 15.5 -14 7 C-13.01 7 -12.02 7 -11 7 C-11 6.01 -11 5.02 -11 4 C-9.68 4 -8.36 4 -7 4 C-7 3.01 -7 2.02 -7 1 C-4 0 -4 0 0 0 Z " fill="#828493" transform="translate(117,113)"/>
<path d="M0 0 C0.99 0.33 1.98 0.66 3 1 C3.33 3.31 3.66 5.62 4 8 C4.99 8 5.98 8 7 8 C8.55932754 10.33899132 9.75323461 12.50646922 11 15 C11.7734375 16.2684375 11.7734375 16.2684375 12.5625 17.5625 C14 20 14 20 15 23 C14.67 23.66 14.34 24.32 14 25 C14.99 25 15.98 25 17 25 C17.33 25.99 17.66 26.98 18 28 C18.66 28.33 19.32 28.66 20 29 C20.40729228 31.32156597 20.74438677 33.6568787 21 36 C22.485 36.495 22.485 36.495 24 37 C24 38.65 24 40.3 24 42 C24.598125 42.020625 25.19625 42.04125 25.8125 42.0625 C28 43 28 43 29.75 46.375 C31 50 31 50 31 53 C31.99 53 32.98 53 34 53 C34.495 55.97 34.495 55.97 35 59 C35.99 59.33 36.98 59.66 38 60 C38.75 61.9375 38.75 61.9375 39 64 C38.67 64.66 38.34 65.32 38 66 C38.99 66.33 39.98 66.66 41 67 C41.33 68.98 41.66 70.96 42 73 C42.99 73.33 43.98 73.66 45 74 C45 74.99 45 75.98 45 77 C45.99 77 46.98 77 48 77 C49.04449911 80.13349732 48.93423645 80.98968256 48 84 C49.32 84.33 50.64 84.66 52 85 C52.12375 85.804375 52.2475 86.60875 52.375 87.4375 C52.58125 88.283125 52.7875 89.12875 53 90 C53.99 90.495 53.99 90.495 55 91 C55 91.99 55 92.98 55 94 C55.99 94 56.98 94 58 94 C58.28875 94.969375 58.5775 95.93875 58.875 96.9375 C59.64214682 100.10664203 59.64214682 100.10664203 62 101 C62 103.31 62 105.62 62 108 C62.99 108 63.98 108 65 108 C65.33 109.98 65.66 111.96 66 114 C64.68 114.33 63.36 114.66 62 115 C61.505 111.535 61.505 111.535 61 108 C60.01 108 59.02 108 58 108 C58 106.68 58 105.36 58 104 C57.01 104 56.02 104 55 104 C54.505 100.535 54.505 100.535 54 97 C53.34 97 52.68 97 52 97 C51.67 95.02 51.34 93.04 51 91 C50.01 91 49.02 91 48 91 C48 89.68 48 88.36 48 87 C47.01 87 46.02 87 45 87 C44.505 83.535 44.505 83.535 44 80 C43.01 80 42.02 80 41 80 C41 77.69 41 75.38 41 73 C40.01 73 39.02 73 38 73 C37.67 71.02 37.34 69.04 37 67 C36.01 67 35.02 67 34 67 C34 64.69 34 62.38 34 60 C32.68 60 31.36 60 30 60 C30 59.01 30 58.02 30 57 C29.01 57 28.02 57 27 57 C27 55.68 27 54.36 27 53 C26.01 53 25.02 53 24 53 C23.67 51.02 23.34 49.04 23 47 C22.34 47 21.68 47 21 47 C20.896875 46.360625 20.79375 45.72125 20.6875 45.0625 C20.460625 44.381875 20.23375 43.70125 20 43 C18.515 42.505 18.515 42.505 17 42 C17 38.7 17 35.4 17 32 C16.01 32 15.02 32 14 32 C13.67 29.69 13.34 27.38 13 25 C12.34 25 11.68 25 11 25 C10.67 23.02 10.34 21.04 10 19 C8.68 18.67 7.36 18.34 6 18 C6 17.01 6 16.02 6 15 C5.34 15 4.68 15 4 15 C3.67 12.69 3.34 10.38 3 8 C2.01 8 1.02 8 0 8 C0 5.36 0 2.72 0 0 Z " fill="#838694" transform="translate(172,253)"/>
<path d="M0 0 C2.64 0.33 5.28 0.66 8 1 C8 1.99 8 2.98 8 4 C6.02 4.66 4.04 5.32 2 6 C1.896875 6.763125 1.79375 7.52625 1.6875 8.3125 C0.93200845 11.26578515 0.13007477 11.95867834 -2 14 C-2.71447643 16.10332891 -2.71447643 16.10332891 -3 18 C-3.66 18 -4.32 18 -5 18 C-5.33 20.31 -5.66 22.62 -6 25 C-6.99 25 -7.98 25 -9 25 C-8.505 26.485 -8.505 26.485 -8 28 C-8.598125 28.556875 -9.19625 29.11375 -9.8125 29.6875 C-13.28682868 33.36036175 -15.24989126 37.28816878 -17 42 C-17.66 42 -18.32 42 -19 42 C-19.0825 42.86625 -19.165 43.7325 -19.25 44.625 C-20.11362922 48.5113315 -21.58949816 50.85904306 -24 54 C-24.99 54.495 -24.99 54.495 -26 55 C-27.62700009 58.5590627 -28.78941273 62.28176767 -30 66 C-30.66 66 -31.32 66 -32 66 C-32.28875 66.804375 -32.5775 67.60875 -32.875 68.4375 C-34 71 -34 71 -36 72 C-36.165 72.66 -36.33 73.32 -36.5 74 C-36.665 74.66 -36.83 75.32 -37 76 C-37.99 76.495 -37.99 76.495 -39 77 C-39.65772428 80.02934491 -39.65772428 80.02934491 -40 83 C-41.485 83.495 -41.485 83.495 -43 84 C-43.103125 84.928125 -43.20625 85.85625 -43.3125 86.8125 C-44.00841257 90.03900374 -44.29607863 91.19738575 -47 93 C-48.32 93 -49.64 93 -51 93 C-51 90.69 -51 88.38 -51 86 C-50.01 86 -49.02 86 -48 86 C-47.87625 85.030625 -47.7525 84.06125 -47.625 83.0625 C-47.41875 82.051875 -47.2125 81.04125 -47 80 C-46.01 79.505 -46.01 79.505 -45 79 C-44.34227572 75.97065509 -44.34227572 75.97065509 -44 73 C-43.01 73 -42.02 73 -41 73 C-41 71.35 -41 69.7 -41 68 C-40.01 68 -39.02 68 -38 68 C-38 66.02 -38 64.04 -38 62 C-36.68 62 -35.36 62 -34 62 C-34 60.68 -34 59.36 -34 58 C-33.01 58 -32.02 58 -31 58 C-31 56.02 -31 54.04 -31 52 C-29.68 52 -28.36 52 -27 52 C-27 49.69 -27 47.38 -27 45 C-25.68 45 -24.36 45 -23 45 C-23 43.68 -23 42.36 -23 41 C-22.34 41 -21.68 41 -21 41 C-20.67 39.02 -20.34 37.04 -20 35 C-19.01 35 -18.02 35 -17 35 C-17 32.36 -17 29.72 -17 27 C-16.01 27 -15.02 27 -14 27 C-13.67 25.02 -13.34 23.04 -13 21 C-12.01 21 -11.02 21 -10 21 C-10 18.36 -10 15.72 -10 13 C-9.01 13 -8.02 13 -7 13 C-7 12.01 -7 11.02 -7 10 C-5.68 10 -4.36 10 -3 10 C-3 7.69 -3 5.38 -3 3 C-2.01 3 -1.02 3 0 3 C0 2.01 0 1.02 0 0 Z " fill="#838695" transform="translate(343,165)"/>
<path d="M0 0 C51.15 0 102.3 0 155 0 C155 0.99 155 1.98 155 3 C112.1 3 69.2 3 25 3 C25 2.34 25 1.68 25 1 C19.06 1 13.12 1 7 1 C7 1.99 7 2.98 7 4 C3.7 4 0.4 4 -3 4 C-3 4.99 -3 5.98 -3 7 C-4.32 7 -5.64 7 -7 7 C-7 5.68 -7 4.36 -7 3 C-4.69 3 -2.38 3 0 3 C0 2.01 0 1.02 0 0 Z " fill="#BFC2CF" transform="translate(254,103)"/>
<path d="M0 0 C47.52 0 95.04 0 144 0 C144 0.99 144 1.98 144 3 C96.48 3 48.96 3 0 3 C0 2.01 0 1.02 0 0 Z " fill="#3A436F" transform="translate(261,100)"/>
<path d="M0 0 C0.99 0 1.98 0 3 0 C2.32823171 3.80668696 1.39463134 7.39036593 0 11 C-0.99 11.495 -0.99 11.495 -2 12 C-2.33 19.26 -2.66 26.52 -3 34 C-2.01 34 -1.02 34 0 34 C2.75 36.75 2.75 36.75 5 40 C4.8125 42.375 4.8125 42.375 4 44 C5.98 44.33 7.96 44.66 10 45 C10 45.99 10 46.98 10 48 C10.81339844 47.98839844 11.62679687 47.97679687 12.46484375 47.96484375 C22.01739002 47.88962685 31.47281995 48.35408949 41 49 C41 49.66 41 50.32 41 51 C60.14 51 79.28 51 99 51 C99 52.32 99 53.64 99 55 C98.01 55 97.02 55 96 55 C96 54.01 96 53.02 96 52 C95.07007233 52.00222061 94.14014465 52.00444122 93.18203735 52.00672913 C84.38489928 52.02683108 75.58776901 52.04202444 66.79061317 52.05181217 C62.26876464 52.05701341 57.7469352 52.06406054 53.22509766 52.07543945 C48.85493153 52.0863669 44.48478369 52.09229758 40.11460495 52.09487724 C38.45379728 52.09671382 36.79299052 52.10029994 35.1321907 52.10573006 C26.69535872 52.13219837 18.38656488 52.06210221 10 51 C10 50.34 10 49.68 10 49 C7.69 48.67 5.38 48.34 3 48 C3 47.01 3 46.02 3 45 C1.68 45 0.36 45 -1 45 C-1 44.01 -1 43.02 -1 42 C-1.66 42 -2.32 42 -3 42 C-3.103125 41.360625 -3.20625 40.72125 -3.3125 40.0625 C-3.539375 39.381875 -3.76625 38.70125 -4 38 C-4.99 37.67 -5.98 37.34 -7 37 C-7 27.1 -7 17.2 -7 7 C-6.01 7 -5.02 7 -4 7 C-4 5.68 -4 4.36 -4 3 C-2.68 3 -1.36 3 0 3 C0 2.01 0 1.02 0 0 Z " fill="#6E738E" transform="translate(244,110)"/>
<path d="M0 0 C1.32 0 2.64 0 4 0 C4 3.3 4 6.6 4 10 C3.34 10 2.68 10 2 10 C0.13448574 13.58752742 -1.42535928 17.27812193 -3 21 C-3.66 21 -4.32 21 -5 21 C-5.66 22.32 -6.32 23.64 -7 25 C-7.66 25 -8.32 25 -9 25 C-8.7525 25.5775 -8.505 26.155 -8.25 26.75 C-8.12625 27.86375 -8.12625 27.86375 -8 29 C-9.31129922 30.35500919 -10.64691687 31.68671343 -12 33 C-12.36442233 34.66014616 -12.69972883 36.32706064 -13 38 C-14.375 39.5625 -14.375 39.5625 -16 41 C-17.58841199 42.96963087 -18.89514966 44.78374616 -20 47.0625 C-21.09458574 49.18325987 -22.13743115 50.50994492 -24 52 C-24.99 52 -25.98 52 -27 52 C-27 50.68 -27 49.36 -27 48 C-28.32 48 -29.64 48 -31 48 C-31 44.7 -31 41.4 -31 38 C-31.99 38 -32.98 38 -34 38 C-34 35.69 -34 33.38 -34 31 C-33.67 31.99 -33.34 32.98 -33 34 C-32.34 34 -31.68 34 -31 34 C-30.67 34.99 -30.34 35.98 -30 37 C-29.01 37.33 -28.02 37.66 -27 38 C-27 39.98 -27 41.96 -27 44 C-26.01 44 -25.02 44 -24 44 C-24 43.01 -24 42.02 -24 41 C-22.68 41 -21.36 41 -20 41 C-20 39.02 -20 37.04 -20 35 C-18.515 34.505 -18.515 34.505 -17 34 C-16.67 33.01 -16.34 32.02 -16 31 C-15.01 31 -14.02 31 -13 31 C-13 28.69 -13 26.38 -13 24 C-11.68 24 -10.36 24 -9 24 C-9 22.02 -9 20.04 -9 18 C-8.34 17.67 -7.68 17.34 -7 17 C-6.34227572 13.97065509 -6.34227572 13.97065509 -6 11 C-5.01 11 -4.02 11 -3 11 C-3 9.35 -3 7.7 -3 6 C-2.01 6 -1.02 6 0 6 C0 4.02 0 2.04 0 0 Z " fill="#8E919C" transform="translate(288,258)"/>
<path d="M0 0 C25.08 0 50.16 0 76 0 C76 0.99 76 1.98 76 3 C76.99 3 77.98 3 79 3 C79 3.99 79 4.98 79 6 C78.01 6 77.02 6 76 6 C76 8.31 76 10.62 76 13 C75.01 13 74.02 13 73 13 C73 12.01 73 11.02 73 10 C73.66 10 74.32 10 75 10 C75 9.34 75 8.68 75 8 C74.34 8 73.68 8 73 8 C73 7.34 73 6.68 73 6 C73.66 6 74.32 6 75 6 C75 5.01 75 4.02 75 3 C73.96668297 3.02212303 73.96668297 3.02212303 72.91249084 3.04469299 C66.33979353 3.18419815 59.76699699 3.31707349 53.19402409 3.4429636 C49.81684723 3.50786715 46.43975469 3.57511089 43.06274414 3.64819336 C14.33211703 4.26061637 14.33211703 4.26061637 0 3 C0 2.01 0 1.02 0 0 Z " fill="#21275D" transform="translate(264,162)"/>
<path d="M0 0 C0.99 0 1.98 0 3 0 C4.66666667 3.33333333 6.33333333 6.66666667 8 10 C8.99 10 9.98 10 11 10 C11 10.99 11 11.98 11 13 C11.99 13.33 12.98 13.66 14 14 C14 14.99 14 15.98 14 17 C14.99 17 15.98 17 17 17 C17 17.99 17 18.98 17 20 C23.93 20 30.86 20 38 20 C38 19.34 38 18.68 38 18 C39.98 17.67 41.96 17.34 44 17 C43.01 17.495 43.01 17.495 42 18 C41.505 19.485 41.505 19.485 41 21 C40.01 21 39.02 21 38 21 C38 21.99 38 22.98 38 24 C31.07 24 24.14 24 17 24 C17 23.01 17 22.02 17 21 C14.69 21 12.38 21 10 21 C10 18.69 10 16.38 10 14 C8.68 13.67 7.36 13.34 6 13 C6 12.34 6 11.68 6 11 C5.01 10.67 4.02 10.34 3 10 C3 9.01 3 8.02 3 7 C2.01 7 1.02 7 0 7 C0 4.69 0 2.38 0 0 Z " fill="#80849F" transform="translate(237,368)"/>
<path d="M0 0 C51.15 0 102.3 0 155 0 C155 0.99 155 1.98 155 3 C153.68 3 152.36 3 151 3 C151 2.34 151 1.68 151 1 C103.48 1 55.96 1 7 1 C7 1.99 7 2.98 7 4 C3.7 4 0.4 4 -3 4 C-3 4.99 -3 5.98 -3 7 C-4.32 7 -5.64 7 -7 7 C-7 5.68 -7 4.36 -7 3 C-4.69 3 -2.38 3 0 3 C0 2.01 0 1.02 0 0 Z " fill="#9399B2" transform="translate(254,103)"/>
<path d="M0 0 C0.33 0 0.66 0 1 0 C0.67 4.29 0.34 8.58 0 13 C-0.66 13 -1.32 13 -2 13 C-2.12375 13.969375 -2.2475 14.93875 -2.375 15.9375 C-2.684375 17.4534375 -2.684375 17.4534375 -3 19 C-3.66 19.33 -4.32 19.66 -5 20 C-5.165 20.66 -5.33 21.32 -5.5 22 C-5.665 22.66 -5.83 23.32 -6 24 C-6.66 24.33 -7.32 24.66 -8 25 C-8.65772428 28.02934491 -8.65772428 28.02934491 -9 31 C-9.99 31.33 -10.98 31.66 -12 32 C-12.1546875 33.3921875 -12.1546875 33.3921875 -12.3125 34.8125 C-13.00841257 38.03900374 -13.29607863 39.19738575 -16 41 C-17.32 41 -18.64 41 -20 41 C-20 38.69 -20 36.38 -20 34 C-19.01 34 -18.02 34 -17 34 C-16.87625 33.030625 -16.7525 32.06125 -16.625 31.0625 C-16.41875 30.051875 -16.2125 29.04125 -16 28 C-15.34 27.67 -14.68 27.34 -14 27 C-13.34227572 23.97065509 -13.34227572 23.97065509 -13 21 C-12.01 21 -11.02 21 -10 21 C-10 19.35 -10 17.7 -10 16 C-9.01 16 -8.02 16 -7 16 C-7 14.02 -7 12.04 -7 10 C-5.68 10 -4.36 10 -3 10 C-3 8.68 -3 7.36 -3 6 C-2.01 6 -1.02 6 0 6 C0 4.02 0 2.04 0 0 Z " fill="#8F919B" transform="translate(312,217)"/>
<path d="M0 0 C0.99 0 1.98 0 3 0 C2.32823171 3.80668696 1.39463134 7.39036593 0 11 C-0.99 11.495 -0.99 11.495 -2 12 C-2.33 19.26 -2.66 26.52 -3 34 C-2.01 34 -1.02 34 0 34 C1.9249647 35.82193842 3.37535531 37.89235283 5 40 C4 41 4 41 1.4375 41.0625 C0.633125 41.041875 -0.17125 41.02125 -1 41 C-1 40.01 -1 39.02 -1 38 C-2.98 37.67 -4.96 37.34 -7 37 C-7 27.1 -7 17.2 -7 7 C-6.01 7 -5.02 7 -4 7 C-4 5.68 -4 4.36 -4 3 C-2.68 3 -1.36 3 0 3 C0 2.01 0 1.02 0 0 Z " fill="#86899A" transform="translate(244,110)"/>
<path d="M0 0 C0.99 0.33 1.98 0.66 3 1 C3.33 2.98 3.66 4.96 4 7 C4.99 7 5.98 7 7 7 C7.33 8.98 7.66 10.96 8 13 C8.66 13 9.32 13 10 13 C10.33 15.64 10.66 18.28 11 21 C11.66 21 12.32 21 13 21 C13 21.99 13 22.98 13 24 C14.65 24 16.3 24 18 24 C18.33 24.99 18.66 25.98 19 27 C19.66 27 20.32 27 21 27 C21 28.32 21 29.64 21 31 C21.99 31 22.98 31 24 31 C24.33 33.31 24.66 35.62 25 38 C25.99 38 26.98 38 28 38 C28 41.3 28 44.6 28 48 C27.01 48 26.02 48 25 48 C24.67 45.69 24.34 43.38 24 41 C23.01 41 22.02 41 21 41 C21 38.69 21 36.38 21 34 C20.01 34 19.02 34 18 34 C17.67 32.02 17.34 30.04 17 28 C15.68 28 14.36 28 13 28 C13 27.01 13 26.02 13 25 C12.01 24.67 11.02 24.34 10 24 C10 22.02 10 20.04 10 18 C9.01 18 8.02 18 7 18 C7 16.35 7 14.7 7 13 C6.01 13 5.02 13 4 13 C3.67 11.02 3.34 9.04 3 7 C2.34 7 1.68 7 1 7 C0.67 4.69 0.34 2.38 0 0 Z " fill="#72768B" transform="translate(144,213)"/>
<path d="M0 0 C0.99 0.33 1.98 0.66 3 1 C3.33 3.31 3.66 5.62 4 8 C4.99 8 5.98 8 7 8 C8.55932754 10.33899132 9.75323461 12.50646922 11 15 C11.7734375 16.2684375 11.7734375 16.2684375 12.5625 17.5625 C14 20 14 20 15 23 C14.67 23.66 14.34 24.32 14 25 C14.99 25 15.98 25 17 25 C17.33 25.99 17.66 26.98 18 28 C18.66 28.33 19.32 28.66 20 29 C20.40729228 31.32156597 20.74438677 33.6568787 21 36 C22.485 36.495 22.485 36.495 24 37 C24 38.65 24 40.3 24 42 C25.32 42.33 26.64 42.66 28 43 C28 43.99 28 44.98 28 46 C26.68 46 25.36 46 24 46 C23.67 45.01 23.34 44.02 23 43 C22.34 42.67 21.68 42.34 21 42 C20.375 38.9375 20.375 38.9375 20 36 C19.01 36 18.02 36 17 36 C17 34.68 17 33.36 17 32 C16.01 32 15.02 32 14 32 C13.67 29.69 13.34 27.38 13 25 C12.34 25 11.68 25 11 25 C10.67 23.02 10.34 21.04 10 19 C8.68 18.67 7.36 18.34 6 18 C6 17.01 6 16.02 6 15 C5.34 15 4.68 15 4 15 C3.67 12.69 3.34 10.38 3 8 C2.01 8 1.02 8 0 8 C0 5.36 0 2.72 0 0 Z " fill="#7F8192" transform="translate(172,253)"/>
<path d="M0 0 C50.82 0 101.64 0 154 0 C154.33 1.32 154.66 2.64 155 4 C153.68 4 152.36 4 151 4 C151 3.01 151 2.02 151 1 C103.48 1 55.96 1 7 1 C7 1.99 7 2.98 7 4 C4.69 4 2.38 4 0 4 C0 2.68 0 1.36 0 0 Z " fill="#1A255D" transform="translate(254,99)"/>
<path d="M0 0 C0.99 0 1.98 0 3 0 C3 3.3 3 6.6 3 10 C2.01 10 1.02 10 0 10 C0 11.32 0 12.64 0 14 C-0.99 14 -1.98 14 -3 14 C-3 14.99 -3 15.98 -3 17 C-4.32 17 -5.64 17 -7 17 C-7.33 18.32 -7.66 19.64 -8 21 C-8.66 21 -9.32 21 -10 21 C-10 24.3 -10 27.6 -10 31 C-11.32 31 -12.64 31 -14 31 C-14 31.99 -14 32.98 -14 34 C-14.99 34 -15.98 34 -17 34 C-17 32.68 -17 31.36 -17 30 C-16.34 30 -15.68 30 -15 30 C-14.505 25.545 -14.505 25.545 -14 21 C-13.01 21 -12.02 21 -11 21 C-11 19.68 -11 18.36 -11 17 C-10.01 17 -9.02 17 -8 17 C-7.67 14.69 -7.34 12.38 -7 10 C-6.01 10 -5.02 10 -4 10 C-4 8.68 -4 7.36 -4 6 C-3.01 6 -2.02 6 -1 6 C-0.67 4.02 -0.34 2.04 0 0 Z " fill="#8186A2" transform="translate(313,327)"/>
<path d="M0 0 C3.63 0 7.26 0 11 0 C11 0.66 11 1.32 11 2 C52.58 2 94.16 2 137 2 C137 2.33 137 2.66 137 3 C121.05693229 3.13103012 105.11385969 3.26144798 89.17078114 3.39115143 C81.76692789 3.45139883 74.36307632 3.5118411 66.95922852 3.57275391 C60.50056785 3.62588998 54.04190422 3.67864842 47.58323687 3.73096704 C44.16841735 3.75864172 40.75359951 3.78649621 37.33878517 3.81480408 C33.51207481 3.84643117 29.68535957 3.87739087 25.85864258 3.90820312 C24.74588959 3.91755386 23.6331366 3.9269046 22.48666382 3.9365387 C14.99096966 3.9959699 7.4959156 4.01011464 0 4 C0 2.68 0 1.36 0 0 Z " fill="#D5D5DA" transform="translate(268,104)"/>
<path d="M0 0 C0.33 0.99 0.66 1.98 1 3 C1.99 3.33 2.98 3.66 4 4 C4 5.98 4 7.96 4 10 C4.78375 9.938125 5.5675 9.87625 6.375 9.8125 C7.24125 9.874375 8.1075 9.93625 9 10 C11.4294516 13.6441774 11.16179575 15.71241272 11 20 C11.99 20 12.98 20 14 20 C14 22.64 14 25.28 14 28 C15.32 28 16.64 28 18 28 C18 29.98 18 31.96 18 34 C18.99 34 19.98 34 21 34 C21 36.31 21 38.62 21 41 C20.67 40.01 20.34 39.02 20 38 C19.34 38 18.68 38 18 38 C17.67 35.69 17.34 33.38 17 31 C15.68 31 14.36 31 13 31 C13 30.01 13 29.02 13 28 C12.34 28 11.68 28 11 28 C10.67 26.68 10.34 25.36 10 24 C9.01 24 8.02 24 7 24 C7 20.7 7 17.4 7 14 C5.68 14 4.36 14 3 14 C3 11.69 3 9.38 3 7 C2.01 7 1.02 7 0 7 C0 4.69 0 2.38 0 0 Z " fill="#363F6C" transform="translate(230,244)"/>
<path d="M0 0 C0.33 0.66 0.66 1.32 1 2 C1.99 2.33 2.98 2.66 4 3 C5.29567005 5.66755598 6.10069008 8.34234628 6.9375 11.1875 C7.79544031 14.28419743 7.79544031 14.28419743 11 16 C11 16.99 11 17.98 11 19 C11.99 19 12.98 19 14 19 C15.125 22.75 15.125 22.75 14 25 C14.99 25 15.98 25 17 25 C17.33 26.98 17.66 28.96 18 31 C18.99 31.33 19.98 31.66 21 32 C21 33.32 21 34.64 21 36 C19.35 36 17.7 36 16 36 C16 35.01 16 34.02 16 33 C15.34 33 14.68 33 14 33 C13.67 30.36 13.34 27.72 13 25 C12.34 25 11.68 25 11 25 C10.67 23.02 10.34 21.04 10 19 C9.01 19 8.02 19 7 19 C6.67 17.02 6.34 15.04 6 13 C5.01 12.67 4.02 12.34 3 12 C3 9.69 3 7.38 3 5 C2.01 5 1.02 5 0 5 C0 3.35 0 1.7 0 0 Z " fill="#8C8D98" transform="translate(141,201)"/>
<path d="M0 0 C0.33 0 0.66 0 1 0 C1 1.98 1 3.96 1 6 C0.01 6.33 -0.98 6.66 -2 7 C-2.33 8.98 -2.66 10.96 -3 13 C-3.99 13 -4.98 13 -6 13 C-6.33 15.31 -6.66 17.62 -7 20 C-7.99 20 -8.98 20 -10 20 C-10 21.32 -10 22.64 -10 24 C-10.99 24 -11.98 24 -13 24 C-13 25.32 -13 26.64 -13 28 C-13.99 28 -14.98 28 -16 28 C-16.33 29.98 -16.66 31.96 -17 34 C-17.99 34 -18.98 34 -20 34 C-20 32.68 -20 31.36 -20 30 C-19.01 30 -18.02 30 -17 30 C-17 28.02 -17 26.04 -17 24 C-16.01 23.67 -15.02 23.34 -14 23 C-13.67 21.02 -13.34 19.04 -13 17 C-12.01 17 -11.02 17 -10 17 C-10 15.68 -10 14.36 -10 13 C-9.01 13 -8.02 13 -7 13 C-6.67 11.02 -6.34 9.04 -6 7 C-5.01 7 -4.02 7 -3 7 C-3 5.68 -3 4.36 -3 3 C-2.01 3 -1.02 3 0 3 C0 2.01 0 1.02 0 0 Z " fill="#575D83" transform="translate(384,210)"/>
<path d="M0 0 C1.32 0 2.64 0 4 0 C4 0.99 4 1.98 4 3 C3.01 3 2.02 3 1 3 C1 5.64 1 8.28 1 11 C0.01 11 -0.98 11 -2 11 C-1.938125 12.27875 -1.87625 13.5575 -1.8125 14.875 C-1.70703125 17.0546875 -1.70703125 17.0546875 -2 19 C-2.99 19.66 -3.98 20.32 -5 21 C-5 20.01 -5 19.02 -5 18 C-6.32 18 -7.64 18 -9 18 C-9 21.3 -9 24.6 -9 28 C-10.32 28 -11.64 28 -13 28 C-13 25.69 -13 23.38 -13 21 C-12.01 21 -11.02 21 -10 21 C-9.67 18.69 -9.34 16.38 -9 14 C-8.01 14 -7.02 14 -6 14 C-6 12.68 -6 11.36 -6 10 C-5.01 10 -4.02 10 -3 10 C-3 8.02 -3 6.04 -3 4 C-2.01 4 -1.02 4 0 4 C0 2.68 0 1.36 0 0 Z " fill="#3D4472" transform="translate(329,299)"/>
<path d="M0 0 C0.99 0 1.98 0 3 0 C3.33 1.98 3.66 3.96 4 6 C4.99 6.33 5.98 6.66 7 7 C7 7.99 7 8.98 7 10 C9.97 10.495 9.97 10.495 13 11 C13.33 12.98 13.66 14.96 14 17 C14.99 17 15.98 17 17 17 C17 19.31 17 21.62 17 24 C15.68 24 14.36 24 13 24 C13 23.01 13 22.02 13 21 C12.01 21 11.02 21 10 21 C10 19.68 10 18.36 10 17 C9.01 17 8.02 17 7 17 C6.67 15.02 6.34 13.04 6 11 C5.34 11 4.68 11 4 11 C3.896875 10.360625 3.79375 9.72125 3.6875 9.0625 C3.460625 8.381875 3.23375 7.70125 3 7 C2.01 6.67 1.02 6.34 0 6 C0 4.02 0 2.04 0 0 Z " fill="#838593" transform="translate(189,289)"/>
<path d="M0 0 C0.99 0 1.98 0 3 0 C3.33 0.99 3.66 1.98 4 3 C4.66 3.33 5.32 3.66 6 4 C6 4.66 6 5.32 6 6 C8.64 6 11.28 6 14 6 C14 7.32 14 8.64 14 10 C11.69 10 9.38 10 7 10 C7 9.01 7 8.02 7 7 C1.39 7 -4.22 7 -10 7 C-10 7.99 -10 8.98 -10 10 C-11.32 10 -12.64 10 -14 10 C-14 8.68 -14 7.36 -14 6 C-13.01 6 -12.02 6 -11 6 C-11 5.01 -11 4.02 -11 3 C-7.37 3 -3.74 3 0 3 C0 2.01 0 1.02 0 0 Z " fill="#4F557E" transform="translate(134,100)"/>
<path d="M0 0 C0.99 0 1.98 0 3 0 C3 6.6 3 13.2 3 20 C2.01 20 1.02 20 0 20 C0 21.32 0 22.64 0 24 C-0.99 24 -1.98 24 -3 24 C-2.979375 25.093125 -2.95875 26.18625 -2.9375 27.3125 C-3 31 -3 31 -4 34 C-4.99 34 -5.98 34 -7 34 C-7 31.69 -7 29.38 -7 27 C-6.01 27 -5.02 27 -4 27 C-4 24.69 -4 22.38 -4 20 C-3.01 20 -2.02 20 -1 20 C-0.67 13.4 -0.34 6.8 0 0 Z " fill="#5E658C" transform="translate(426,124)"/>
<path d="M0 0 C-0.7115625 0.6496875 -0.7115625 0.6496875 -1.4375 1.3125 C-3.23686957 3.02309613 -3.23686957 3.02309613 -4 6 C-4.99 6.33 -5.98 6.66 -7 7 C-7.33 7.99 -7.66 8.98 -8 10 C-8.99 10 -9.98 10 -11 10 C-11 11.98 -11 13.96 -11 16 C-11.66 16 -12.32 16 -13 16 C-13 20.62 -13 25.24 -13 30 C-12.01 30 -11.02 30 -10 30 C-10.33 31.32 -10.66 32.64 -11 34 C-11 33.01 -11 32.02 -11 31 C-11.99 31 -12.98 31 -14 31 C-14 22.75 -14 14.5 -14 6 C-13.01 6 -12.02 6 -11 6 C-11 5.01 -11 4.02 -11 3 C-9.68 3 -8.36 3 -7 3 C-7 2.01 -7 1.02 -7 0 C-3.86650268 -1.04449911 -3.01031744 -0.93423645 0 0 Z " fill="#626783" transform="translate(117,114)"/>
<path d="M0 0 C1.98 0 3.96 0 6 0 C6.33 1.32 6.66 2.64 7 4 C7.99 4 8.98 4 10 4 C10 4.99 10 5.98 10 7 C11.32 7 12.64 7 14 7 C14 7.99 14 8.98 14 10 C14.99 10.33 15.98 10.66 17 11 C17 18.92 17 26.84 17 35 C16.67 35 16.34 35 16 35 C16 29.39 16 23.78 16 18 C15.01 18 14.02 18 13 18 C13 16.68 13 15.36 13 14 C12.01 14 11.02 14 10 14 C10 12.02 10 10.04 10 8 C8.68 7.67 7.36 7.34 6 7 C6 6.01 6 5.02 6 4 C5.01 4 4.02 4 3 4 C3 3.01 3 2.02 3 1 C2.01 0.67 1.02 0.34 0 0 Z " fill="#B3B7CA" transform="translate(409,106)"/>
<path d="M0 0 C19.14 0 38.28 0 58 0 C58 0.33 58 0.66 58 1 C41.17 1 24.34 1 7 1 C7 1.99 7 2.98 7 4 C3.7 4 0.4 4 -3 4 C-3 4.99 -3 5.98 -3 7 C-4.32 7 -5.64 7 -7 7 C-7 5.68 -7 4.36 -7 3 C-4.69 3 -2.38 3 0 3 C0 2.01 0 1.02 0 0 Z " fill="#9498B2" transform="translate(254,103)"/>
<path d="M0 0 C0.99 0 1.98 0 3 0 C3 6.6 3 13.2 3 20 C2.01 20 1.02 20 0 20 C0 22.31 0 24.62 0 27 C-1.32 27 -2.64 27 -4 27 C-4.125 20.375 -4.125 20.375 -3 17 C-2.01 17 -1.02 17 0 17 C0 11.39 0 5.78 0 0 Z " fill="#D9DBE5" transform="translate(422,124)"/>
<path d="M0 0 C2.475 0.495 2.475 0.495 5 1 C5 1.99 5 2.98 5 4 C5.66 4.33 6.32 4.66 7 5 C7 8.3 7 11.6 7 15 C7.99 15 8.98 15 10 15 C10 17.31 10 19.62 10 22 C9.01 22 8.02 22 7 22 C6.67 20.02 6.34 18.04 6 16 C5.34 16 4.68 16 4 16 C3.67 13.69 3.34 11.38 3 9 C2.01 9 1.02 9 0 9 C0 6.03 0 3.06 0 0 Z " fill="#7A7D8E" transform="translate(134,191)"/>
<path d="M0 0 C0.99 0 1.98 0 3 0 C4.66666667 3.33333333 6.33333333 6.66666667 8 10 C8.99 10 9.98 10 11 10 C11 10.99 11 11.98 11 13 C11.99 13.33 12.98 13.66 14 14 C14 14.99 14 15.98 14 17 C14.99 17 15.98 17 17 17 C17 17.99 17 18.98 17 20 C15.68 20 14.36 20 13 20 C13 19.34 13 18.68 13 18 C12.01 17.67 11.02 17.34 10 17 C10 16.01 10 15.02 10 14 C8.68 13.67 7.36 13.34 6 13 C6 12.34 6 11.68 6 11 C5.01 10.67 4.02 10.34 3 10 C3 9.01 3 8.02 3 7 C2.01 7 1.02 7 0 7 C0 4.69 0 2.38 0 0 Z " fill="#9A9BA7" transform="translate(237,368)"/>
<path d="M0 0 C0.99 0.33 1.98 0.66 3 1 C2.34 1 1.68 1 1 1 C0.9175 1.86625 0.835 2.7325 0.75 3.625 C-0.11362922 7.5113315 -1.58949816 9.85904306 -4 13 C-4.99 13.495 -4.99 13.495 -6 14 C-7.62700009 17.5590627 -8.78941273 21.28176767 -10 25 C-10.66 25 -11.32 25 -12 25 C-12.33 25.66 -12.66 26.32 -13 27 C-13 26.01 -13 25.02 -13 24 C-12.34 24 -11.68 24 -11 24 C-10.67 19.71 -10.34 15.42 -10 11 C-9.01 11 -8.02 11 -7 11 C-7 8.69 -7 6.38 -7 4 C-5.5459375 3.566875 -5.5459375 3.566875 -4.0625 3.125 C-0.89335797 2.35785318 -0.89335797 2.35785318 0 0 Z " fill="#8E909B" transform="translate(323,206)"/>
<path d="M0 0 C0.33 0 0.66 0 1 0 C1 3.63 1 7.26 1 11 C0.01 11 -0.98 11 -2 11 C-2 11.99 -2 12.98 -2 14 C-3.32 14 -4.64 14 -6 14 C-6 16.31 -6 18.62 -6 21 C-6.99 21 -7.98 21 -9 21 C-9 21.99 -9 22.98 -9 24 C-10.32 24 -11.64 24 -13 24 C-13 23.01 -13 22.02 -13 21 C-12.01 21 -11.02 21 -10 21 C-10 18.69 -10 16.38 -10 14 C-9.01 14 -8.02 14 -7 14 C-6.67 12.68 -6.34 11.36 -6 10 C-5.01 10 -4.02 10 -3 10 C-3 8.02 -3 6.04 -3 4 C-2.01 3.67 -1.02 3.34 0 3 C0 2.01 0 1.02 0 0 Z " fill="#2D3566" transform="translate(415,158)"/>
<path d="M0 0 C9.24 0 18.48 0 28 0 C28 0.99 28 1.98 28 3 C18.57130123 4.32368341 9.44343382 3.71960516 0 3 C0 2.01 0 1.02 0 0 Z " fill="#182059" transform="translate(264,162)"/>
<path d="M0 0 C26.07 0 52.14 0 79 0 C79 1.32 79 2.64 79 4 C78.01 4 77.02 4 76 4 C76 3.01 76 2.02 76 1 C50.92 1 25.84 1 0 1 C0 0.67 0 0.34 0 0 Z " fill="#5E6388" transform="translate(264,161)"/>
<path d="M0 0 C1.32 0 2.64 0 4 0 C4 2.31 4 4.62 4 7 C4.99 7 5.98 7 7 7 C7 8.32 7 9.64 7 11 C7.99 11 8.98 11 10 11 C10.33 13.31 10.66 15.62 11 18 C11.99 18 12.98 18 14 18 C14 18.99 14 19.98 14 21 C12.68 21 11.36 21 10 21 C10 19.68 10 18.36 10 17 C9.34 17 8.68 17 8 17 C7.67 16.01 7.34 15.02 7 14 C6.01 13.67 5.02 13.34 4 13 C4 12.01 4 11.02 4 10 C3.34 10 2.68 10 2 10 C2 9.34 2 8.68 2 8 C1.34 8 0.68 8 0 8 C0 5.36 0 2.72 0 0 Z " fill="#B1B4C4" transform="translate(209,213)"/>
<path d="M0 0 C0.99 0 1.98 0 3 0 C2.32823171 3.80668696 1.39463134 7.39036593 0 11 C-0.99 11.495 -0.99 11.495 -2 12 C-2.31241371 14.54941373 -2.51303421 17.00361513 -2.625 19.5625 C-2.66367188 20.27341797 -2.70234375 20.98433594 -2.7421875 21.71679688 C-2.83671783 23.47742425 -2.91945817 25.23867728 -3 27 C-3.33 27 -3.66 27 -4 27 C-4 22.71 -4 18.42 -4 14 C-4.99 14 -5.98 14 -7 14 C-7 11.69 -7 9.38 -7 7 C-6.01 7 -5.02 7 -4 7 C-4 5.68 -4 4.36 -4 3 C-2.68 3 -1.36 3 0 3 C0 2.01 0 1.02 0 0 Z " fill="#818496" transform="translate(244,110)"/>
<path d="M0 0 C0.33 0.99 0.66 1.98 1 3 C1.66 3 2.32 3 3 3 C3.33 3.99 3.66 4.98 4 6 C4.99 6.33 5.98 6.66 7 7 C7 8.98 7 10.96 7 13 C7.99 13 8.98 13 10 13 C10 12.01 10 11.02 10 10 C11.32 10.33 12.64 10.66 14 11 C12.4375 14 12.4375 14 10 17 C6.25 17.375 6.25 17.375 3 17 C3 13.7 3 10.4 3 7 C2.01 7 1.02 7 0 7 C0 4.69 0 2.38 0 0 Z " fill="#7F849A" transform="translate(254,289)"/>
<path d="M0 0 C0.33 0 0.66 0 1 0 C0.67 4.29 0.34 8.58 0 13 C-0.66 13 -1.32 13 -2 13 C-2 14.32 -2 15.64 -2 17 C-4.31 17 -6.62 17 -9 17 C-9 18.98 -9 20.96 -9 23 C-10.32 23.33 -11.64 23.66 -13 24 C-13 23.01 -13 22.02 -13 21 C-12.01 21 -11.02 21 -10 21 C-10 19.35 -10 17.7 -10 16 C-9.01 16 -8.02 16 -7 16 C-7 14.02 -7 12.04 -7 10 C-5.68 10 -4.36 10 -3 10 C-3 8.68 -3 7.36 -3 6 C-2.01 6 -1.02 6 0 6 C0 4.02 0 2.04 0 0 Z " fill="#73768A" transform="translate(312,217)"/>
<path d="M0 0 C0.99 0 1.98 0 3 0 C3.33 1.98 3.66 3.96 4 6 C3.401875 6.268125 2.80375 6.53625 2.1875 6.8125 C-0.03166187 7.83932834 -0.03166187 7.83932834 -1.27661133 9.5559082 C-3.75755629 11.63478473 -5.56346238 11.34167316 -8.76171875 11.29296875 C-9.87998047 11.28330078 -10.99824219 11.27363281 -12.15039062 11.26367188 C-13.31763672 11.23853516 -14.48488281 11.21339844 -15.6875 11.1875 C-16.86634766 11.17396484 -18.04519531 11.16042969 -19.25976562 11.14648438 C-22.17363411 11.11109326 -25.08658945 11.06171809 -28 11 C-28 10.67 -28 10.34 -28 10 C-21.07 10 -14.14 10 -7 10 C-7 9.01 -7 8.02 -7 7 C-6.01 6.67 -5.02 6.34 -4 6 C-1.63493157 3.99878825 -1.0106678 3.03200339 0 0 Z " fill="#313868" transform="translate(282,382)"/>
<path d="M0 0 C0.99 0 1.98 0 3 0 C3 3.3 3 6.6 3 10 C2.01 10 1.02 10 0 10 C0 11.32 0 12.64 0 14 C-0.99 14 -1.98 14 -3 14 C-3 14.99 -3 15.98 -3 17 C-4.32 17 -5.64 17 -7 17 C-7 16.01 -7 15.02 -7 14 C-6.01 14 -5.02 14 -4 14 C-4 11.36 -4 8.72 -4 6 C-3.01 6 -2.02 6 -1 6 C-0.67 4.02 -0.34 2.04 0 0 Z " fill="#363D6C" transform="translate(313,327)"/>
<path d="M0 0 C0.99 0.33 1.98 0.66 3 1 C3.33 2.98 3.66 4.96 4 7 C4.99 7 5.98 7 7 7 C7.33 8.98 7.66 10.96 8 13 C8.66 13 9.32 13 10 13 C10.33 15.64 10.66 18.28 11 21 C11.66 21 12.32 21 13 21 C13.33 23.31 13.66 25.62 14 28 C13.67 27.01 13.34 26.02 13 25 C12.01 24.67 11.02 24.34 10 24 C10 22.02 10 20.04 10 18 C9.01 18 8.02 18 7 18 C7 16.35 7 14.7 7 13 C6.01 13 5.02 13 4 13 C3.67 11.02 3.34 9.04 3 7 C2.34 7 1.68 7 1 7 C0.67 4.69 0.34 2.38 0 0 Z " fill="#333965" transform="translate(144,213)"/>
<path d="M0 0 C0.33 1.32 0.66 2.64 1 4 C0.01 4 -0.98 4 -2 4 C-2 7.3 -2 10.6 -2 14 C-3.65 14 -5.3 14 -7 14 C-7 14.99 -7 15.98 -7 17 C-7.66 17 -8.32 17 -9 17 C-9 18.32 -9 19.64 -9 21 C-9.99 21 -10.98 21 -12 21 C-12.33 21.99 -12.66 22.98 -13 24 C-13 21.69 -13 19.38 -13 17 C-12.01 17 -11.02 17 -10 17 C-9.67 15.68 -9.34 14.36 -9 13 C-8.34 13 -7.68 13 -7 13 C-6.67 11.02 -6.34 9.04 -6 7 C-5.01 7 -4.02 7 -3 7 C-2.87625 6.030625 -2.7525 5.06125 -2.625 4.0625 C-2.41875 3.051875 -2.2125 2.04125 -2 1 C-1.34 0.67 -0.68 0.34 0 0 Z " fill="#404875" transform="translate(346,275)"/>
<path d="M0 0 C0.99 0 1.98 0 3 0 C3.33 2.31 3.66 4.62 4 7 C4.66 7 5.32 7 6 7 C6.33 7.99 6.66 8.98 7 10 C7.99 10.33 8.98 10.66 10 11 C10.33 12.98 10.66 14.96 11 17 C11.66 17 12.32 17 13 17 C13 18.32 13 19.64 13 21 C12.01 21 11.02 21 10 21 C10 19.68 10 18.36 10 17 C9.01 17 8.02 17 7 17 C6.67 15.02 6.34 13.04 6 11 C5.01 11 4.02 11 3 11 C3 9.68 3 8.36 3 7 C2.01 7 1.02 7 0 7 C0 4.69 0 2.38 0 0 Z " fill="#3F466C" transform="translate(172,261)"/>
<path d="M0 0 C0.99 0 1.98 0 3 0 C3.33 2.31 3.66 4.62 4 7 C4.99 7 5.98 7 7 7 C7 8.32 7 9.64 7 11 C8.32 11 9.64 11 11 11 C11 12.98 11 14.96 11 17 C11.99 17 12.98 17 14 17 C14 19.31 14 21.62 14 24 C13.67 23.01 13.34 22.02 13 21 C12.34 21 11.68 21 11 21 C10.67 18.69 10.34 16.38 10 14 C8.68 14 7.36 14 6 14 C6 13.01 6 12.02 6 11 C5.34 11 4.68 11 4 11 C3.67 9.68 3.34 8.36 3 7 C2.01 7 1.02 7 0 7 C0 4.69 0 2.38 0 0 Z " fill="#A5A8B8" transform="translate(237,261)"/>
<path d="M0 0 C0.99 0.33 1.98 0.66 3 1 C3 1.99 3 2.98 3 4 C4.65 4.33 6.3 4.66 8 5 C8.12375 5.804375 8.2475 6.60875 8.375 7.4375 C8.58125 8.283125 8.7875 9.12875 9 10 C9.66 10.33 10.32 10.66 11 11 C11 14.3 11 17.6 11 21 C10.67 19.68 10.34 18.36 10 17 C9.34 17 8.68 17 8 17 C7.67 15.02 7.34 13.04 7 11 C6.01 11 5.02 11 4 11 C4 9.68 4 8.36 4 7 C3.01 7 2.02 7 1 7 C0.67 4.69 0.34 2.38 0 0 Z " fill="#818493" transform="translate(216,333)"/>
<path d="M0 0 C0.33 0 0.66 0 1 0 C0.67 2.31 0.34 4.62 0 7 C-0.66 7 -1.32 7 -2 7 C-2 8.98 -2 10.96 -2 13 C-3.65 13.33 -5.3 13.66 -7 14 C-7 14.99 -7 15.98 -7 17 C-7.66 17 -8.32 17 -9 17 C-9 17.99 -9 18.98 -9 20 C-10.32 20 -11.64 20 -13 20 C-13 19.01 -13 18.02 -13 17 C-12.01 17 -11.02 17 -10 17 C-9.67 15.68 -9.34 14.36 -9 13 C-8.34 13 -7.68 13 -7 13 C-6.67 11.02 -6.34 9.04 -6 7 C-5.01 7 -4.02 7 -3 7 C-3 5.68 -3 4.36 -3 3 C-2.01 3 -1.02 3 0 3 C0 2.01 0 1.02 0 0 Z " fill="#3D436F" transform="translate(360,251)"/>
<path d="M0 0 C0.99 0 1.98 0 3 0 C3.33 1.98 3.66 3.96 4 6 C4.99 6 5.98 6 7 6 C7 8.31 7 10.62 7 13 C7.99 13 8.98 13 10 13 C10.33 15.31 10.66 17.62 11 20 C11.99 20 12.98 20 14 20 C13.67 21.32 13.34 22.64 13 24 C13 23.01 13 22.02 13 21 C12.030625 20.855625 11.06125 20.71125 10.0625 20.5625 C7 20 7 20 6 19 C5.85884839 16.32941149 5.95752893 13.67567762 6 11 C5.34 11 4.68 11 4 11 C3.67 8.69 3.34 6.38 3 4 C2.01 4 1.02 4 0 4 C0 2.68 0 1.36 0 0 Z " fill="#363B66" transform="translate(206,320)"/>
<path d="M0 0 C1 3 1 3 0 6 C-0.99 6.495 -0.99 6.495 -2 7 C-2.40729228 9.32156597 -2.74438677 11.6568787 -3 14 C-4.32 14 -5.64 14 -7 14 C-7 14.99 -7 15.98 -7 17 C-7.99 17 -8.98 17 -10 17 C-9.67 15.02 -9.34 13.04 -9 11 C-8.34 11 -7.68 11 -7 11 C-7 9.02 -7 7.04 -7 5 C-6.401875 4.731875 -5.80375 4.46375 -5.1875 4.1875 C-3.02775192 3.01506533 -1.64209744 1.80630718 0 0 Z " fill="#B8B9C8" transform="translate(391,196)"/>
<path d="M0 0 C0.99 0 1.98 0 3 0 C2.625 2.9375 2.625 2.9375 2 6 C1.01 6.495 1.01 6.495 0 7 C-0.33 7.99 -0.66 8.98 -1 10 C-1.99 10 -2.98 10 -4 10 C-4 12.31 -4 14.62 -4 17 C-4.99 17.33 -5.98 17.66 -7 18 C-7.33 18.66 -7.66 19.32 -8 20 C-8.125 12.25 -8.125 12.25 -7 10 C-6.34 10 -5.68 10 -5 10 C-4.8453125 8.824375 -4.8453125 8.824375 -4.6875 7.625 C-4 5 -4 5 -1 3 C-0.67 2.01 -0.34 1.02 0 0 Z " fill="#B4B7C6" transform="translate(351,258)"/>
<path d="M0 0 C2.64 0.33 5.28 0.66 8 1 C8 1.99 8 2.98 8 4 C6.02 4.66 4.04 5.32 2 6 C1.9175 6.78375 1.835 7.5675 1.75 8.375 C1.5025 9.24125 1.255 10.1075 1 11 C-0.98 11.99 -0.98 11.99 -3 13 C-3 9.7 -3 6.4 -3 3 C-2.01 3 -1.02 3 0 3 C0 2.01 0 1.02 0 0 Z " fill="#95979D" transform="translate(343,165)"/>
<path d="M0 0 C0.99 0 1.98 0 3 0 C3.33 1.98 3.66 3.96 4 6 C4.66 6 5.32 6 6 6 C6.33 8.31 6.66 10.62 7 13 C7.99 13 8.98 13 10 13 C10 14.32 10 15.64 10 17 C9.01 17 8.02 17 7 17 C7 16.01 7 15.02 7 14 C5.68 13.67 4.36 13.34 3 13 C3 11.02 3 9.04 3 7 C2.01 7 1.02 7 0 7 C0 4.69 0 2.38 0 0 Z " fill="#3B4168" transform="translate(220,344)"/>
<path d="M0 0 C0.99 0.33 1.98 0.66 3 1 C3.33 3.31 3.66 5.62 4 8 C4.99 8.33 5.98 8.66 7 9 C7 10.65 7 12.3 7 14 C8.32 14.33 9.64 14.66 11 15 C11 15.99 11 16.98 11 18 C9.68 18 8.36 18 7 18 C6.67 17.01 6.34 16.02 6 15 C5.34 14.67 4.68 14.34 4 14 C3.375 10.9375 3.375 10.9375 3 8 C2.01 8 1.02 8 0 8 C0 5.36 0 2.72 0 0 Z " fill="#93949D" transform="translate(189,281)"/>
<path d="M0 0 C0.99 0 1.98 0 3 0 C3.33 1.98 3.66 3.96 4 6 C4.99 6.33 5.98 6.66 7 7 C7 7.99 7 8.98 7 10 C7.99 10 8.98 10 10 10 C10 12.31 10 14.62 10 17 C9.01 17 8.02 17 7 17 C6.67 15.02 6.34 13.04 6 11 C5.34 11 4.68 11 4 11 C3.896875 10.360625 3.79375 9.72125 3.6875 9.0625 C3.460625 8.381875 3.23375 7.70125 3 7 C2.01 6.67 1.02 6.34 0 6 C0 4.02 0 2.04 0 0 Z " fill="#575C79" transform="translate(189,289)"/>
<path d="M0 0 C6.6 0 13.2 0 20 0 C20 0.99 20 1.98 20 3 C13.4 3 6.8 3 0 3 C0 2.01 0 1.02 0 0 Z " fill="#575D82" transform="translate(261,100)"/>
<path d="M0 0 C9.36749815 -0.1820896 18.6587308 0.38673965 28 1 C28 1.66 28 2.32 28 3 C20.08 3 12.16 3 4 3 C4 2.34 4 1.68 4 1 C2.68 0.67 1.36 0.34 0 0 Z " fill="#898CA6" transform="translate(257,158)"/>
<path d="M0 0 C0.99 0 1.98 0 3 0 C3 7.59 3 15.18 3 23 C3.99 23.33 4.98 23.66 6 24 C4.68 24 3.36 24 2 24 C2 21.36 2 18.72 2 16 C1.34 16 0.68 16 0 16 C0 10.72 0 5.44 0 0 Z " fill="#323965" transform="translate(234,124)"/>
<path d="M0 0 C0.99 0 1.98 0 3 0 C3 2.31 3 4.62 3 7 C2.01 7 1.02 7 0 7 C0 8.32 0 9.64 0 11 C-0.99 11 -1.98 11 -3 11 C-3.33 12.98 -3.66 14.96 -4 17 C-4.99 17 -5.98 17 -7 17 C-7 15.68 -7 14.36 -7 13 C-6.01 13 -5.02 13 -4 13 C-4 11.02 -4 9.04 -4 7 C-3.01 6.67 -2.02 6.34 -1 6 C-0.67 4.02 -0.34 2.04 0 0 Z " fill="#717696" transform="translate(371,227)"/>
<path d="M0 0 C1.32 0.33 2.64 0.66 4 1 C4 1.66 4 2.32 4 3 C4.99 3 5.98 3 7 3 C7.33 4.98 7.66 6.96 8 9 C8.99 9.33 9.98 9.66 11 10 C11 11.32 11 12.64 11 14 C9.35 14 7.7 14 6 14 C6 13.01 6 12.02 6 11 C5.34 11 4.68 11 4 11 C3.67 8.36 3.34 5.72 3 3 C2.34 3 1.68 3 1 3 C0.67 2.01 0.34 1.02 0 0 Z " fill="#828593" transform="translate(151,223)"/>
<path d="M0 0 C5.61 0 11.22 0 17 0 C17 0.99 17 1.98 17 3 C15.75283203 2.96519531 15.75283203 2.96519531 14.48046875 2.9296875 C13.39378906 2.91164063 12.30710938 2.89359375 11.1875 2.875 C10.10855469 2.85179688 9.02960938 2.82859375 7.91796875 2.8046875 C4.80597132 2.76976283 4.80597132 2.76976283 2 5 C1.34 4.34 0.68 3.68 0 3 C0 2.01 0 1.02 0 0 Z " fill="#B2B4BE" transform="translate(124,107)"/>
<path d="M0 0 C1.32 0.33 2.64 0.66 4 1 C3.01 1 2.02 1 1 1 C1 2.98 1 4.96 1 7 C0.01 7.33 -0.98 7.66 -2 8 C-2 9.98 -2 11.96 -2 14 C-3.32 14 -4.64 14 -6 14 C-6 16.31 -6 18.62 -6 21 C-6.99 21 -7.98 21 -9 21 C-9.33 21.99 -9.66 22.98 -10 24 C-10 22.68 -10 21.36 -10 20 C-9.01 20 -8.02 20 -7 20 C-7 17.03 -7 14.06 -7 11 C-5.68 10.67 -4.36 10.34 -3 10 C-2.67 8.02 -2.34 6.04 -2 4 C-1.34 4 -0.68 4 0 4 C0 2.68 0 1.36 0 0 Z " fill="#454B72" transform="translate(281,268)"/>
<path d="M0 0 C1.98 0 3.96 0 6 0 C5.875 1.875 5.875 1.875 5 4 C4.05125 4.28875 3.1025 4.5775 2.125 4.875 C-1.28668446 5.73106523 -1.28668446 5.73106523 -2.875 9.125 C-3.24625 10.07375 -3.6175 11.0225 -4 12 C-4.99 12 -5.98 12 -7 12 C-6.30058404 8.85262818 -5.23921302 5.97411124 -4 3 C-2.68 3 -1.36 3 0 3 C0 2.01 0 1.02 0 0 Z " fill="#ADAEB5" transform="translate(251,107)"/>
<path d="M0 0 C0.99 0.33 1.98 0.66 3 1 C3.33 3.31 3.66 5.62 4 8 C4.99 8 5.98 8 7 8 C8.74627478 10.61941217 9.38722388 12.03824877 10 15 C9.01 15 8.02 15 7 15 C7 14.01 7 13.02 7 12 C5.68 12 4.36 12 3 12 C3 10.68 3 9.36 3 8 C2.01 8 1.02 8 0 8 C0 5.36 0 2.72 0 0 Z " fill="#8B8C98" transform="translate(172,253)"/>
<path d="M0 0 C-0.7115625 0.6496875 -0.7115625 0.6496875 -1.4375 1.3125 C-3.23686957 3.02309613 -3.23686957 3.02309613 -4 6 C-8.455 6.495 -8.455 6.495 -13 7 C-13 8.98 -13 10.96 -13 13 C-13.33 13 -13.66 13 -14 13 C-14 10.69 -14 8.38 -14 6 C-13.01 6 -12.02 6 -11 6 C-11 5.01 -11 4.02 -11 3 C-9.68 3 -8.36 3 -7 3 C-7 2.01 -7 1.02 -7 0 C-3.86650268 -1.04449911 -3.01031744 -0.93423645 0 0 Z " fill="#4A5176" transform="translate(117,114)"/>
<path d="M0 0 C1.98 0 3.96 0 6 0 C6.33 1.32 6.66 2.64 7 4 C7.99 4 8.98 4 10 4 C10 4.99 10 5.98 10 7 C11.32 7 12.64 7 14 7 C14 7.99 14 8.98 14 10 C14.99 10.33 15.98 10.66 17 11 C17 11.99 17 12.98 17 14 C16.01 14 15.02 14 14 14 C13.67 12.02 13.34 10.04 13 8 C11.02 8 9.04 8 7 8 C6.67 6.68 6.34 5.36 6 4 C5.01 4 4.02 4 3 4 C3 3.01 3 2.02 3 1 C2.01 0.67 1.02 0.34 0 0 Z " fill="#9095B0" transform="translate(409,106)"/>
<path d="M0 0 C3.519934 3.05060947 4.65772597 5.58967104 6 10 C6.66 10.66 7.32 11.32 8 12 C7.625 14.625 7.625 14.625 7 17 C6.01 17 5.02 17 4 17 C3.67 14.03 3.34 11.06 3 8 C2.01 7.67 1.02 7.34 0 7 C0 4.69 0 2.38 0 0 Z " fill="#888B97" transform="translate(127,175)"/>
<path d="M0 0 C5.875 0.875 5.875 0.875 7 2 C7.04080783 3.99958364 7.04254356 6.00045254 7 8 C7.66 8 8.32 8 9 8 C9.33 9.98 9.66 11.96 10 14 C9.01 14 8.02 14 7 14 C6.67 12.02 6.34 10.04 6 8 C5.01 7.67 4.02 7.34 3 7 C3 5.02 3 3.04 3 1 C2.01 0.67 1.02 0.34 0 0 Z " fill="#3B426F" transform="translate(220,230)"/>
<path d="M0 0 C9.24 0 18.48 0 28 0 C28 0.33 28 0.66 28 1 C21.07 1 14.14 1 7 1 C7 1.99 7 2.98 7 4 C4.69 4 2.38 4 0 4 C0 2.68 0 1.36 0 0 Z " fill="#20275D" transform="translate(254,99)"/>
<path d="M0 0 C1.32 0 2.64 0 4 0 C4 0.99 4 1.98 4 3 C4.99 3 5.98 3 7 3 C7 5.64 7 8.28 7 11 C7.66 11 8.32 11 9 11 C9.33 11.99 9.66 12.98 10 14 C8.68 14 7.36 14 6 14 C6 12.68 6 11.36 6 10 C5.34 10 4.68 10 4 10 C3.67 7.69 3.34 5.38 3 3 C2.01 3 1.02 3 0 3 C0 2.01 0 1.02 0 0 Z " fill="#999DB3" transform="translate(148,110)"/>
<path d="M0 0 C2.31 0 4.62 0 7 0 C7 1.32 7 2.64 7 4 C3.7 4 0.4 4 -3 4 C-3 4.99 -3 5.98 -3 7 C-4.32 7 -5.64 7 -7 7 C-7 5.68 -7 4.36 -7 3 C-4.69 3 -2.38 3 0 3 C0 2.01 0 1.02 0 0 Z " fill="#8287A0" transform="translate(254,103)"/>
<path d="M0 0 C0.99 0 1.98 0 3 0 C3 0.99 3 1.98 3 3 C4.32 3 5.64 3 7 3 C7 5.31 7 7.62 7 10 C5.68 10 4.36 10 3 10 C3 8.68 3 7.36 3 6 C2.01 6 1.02 6 0 6 C0 4.02 0 2.04 0 0 Z " fill="#252C5D" transform="translate(199,310)"/>
<path d="M0 0 C2.31 0 4.62 0 7 0 C7 3.3 7 6.6 7 10 C6.01 10 5.02 10 4 10 C3.67 7.69 3.34 5.38 3 3 C2.01 3 1.02 3 0 3 C0 2.01 0 1.02 0 0 Z " fill="#71738B" transform="translate(165,251)"/>
<path d="M0 0 C0.33 0.99 0.66 1.98 1 3 C1.99 3 2.98 3 4 3 C4 4.32 4 5.64 4 7 C4.99 7 5.98 7 7 7 C7.33 7.99 7.66 8.98 8 10 C8.66 10.33 9.32 10.66 10 11 C10 12.98 10 14.96 10 17 C9.01 17 8.02 17 7 17 C7 15.02 7 13.04 7 11 C5.68 11 4.36 11 3 11 C3 8.69 3 6.38 3 4 C2.01 4 1.02 4 0 4 C0 2.68 0 1.36 0 0 Z " fill="#444A6F" transform="translate(120,172)"/>
<path d="M0 0 C0.99 0 1.98 0 3 0 C3.33 0.99 3.66 1.98 4 3 C6.00121175 5.36506843 6.96799661 5.9893322 10 7 C10 7.99 10 8.98 10 10 C7.69 10 5.38 10 3 10 C3 8.02 3 6.04 3 4 C2.01 4 1.02 4 0 4 C0 2.68 0 1.36 0 0 Z " fill="#2F3664" transform="translate(237,375)"/>
<path d="M0 0 C0.99 0 1.98 0 3 0 C5.44697666 4.36200187 6.50269348 8.02693484 7 13 C6.67 12.34 6.34 11.68 6 11 C5.01 10.67 4.02 10.34 3 10 C3 9.01 3 8.02 3 7 C2.01 7 1.02 7 0 7 C0 4.69 0 2.38 0 0 Z " fill="#838695" transform="translate(237,368)"/>
<path d="M0 0 C0.99 0 1.98 0 3 0 C3 1.32 3 2.64 3 4 C2.01 4 1.02 4 0 4 C0 7.3 0 10.6 0 14 C-1.32 14 -2.64 14 -4 14 C-4 11.69 -4 9.38 -4 7 C-3.01 7 -2.02 7 -1 7 C-0.67 4.69 -0.34 2.38 0 0 Z " fill="#686D8F" transform="translate(320,313)"/>
<path d="M0 0 C0.33 0 0.66 0 1 0 C1 2.31 1 4.62 1 7 C0.01 7 -0.98 7 -2 7 C-2 8.65 -2 10.3 -2 12 C-3.98 12.99 -3.98 12.99 -6 14 C-6 11.36 -6 8.72 -6 6 C-4.68 6 -3.36 6 -2 6 C-2 5.01 -2 4.02 -2 3 C-1.34 3 -0.68 3 0 3 C0 2.01 0 1.02 0 0 Z " fill="#283063" transform="translate(353,265)"/>
<path d="M0 0 C0.66 0 1.32 0 2 0 C1.40138258 2.35171131 0.73075648 4.6859378 0 7 C-0.99 7.495 -0.99 7.495 -2 8 C-2.0825 8.7425 -2.165 9.485 -2.25 10.25 C-3.35352662 14.29626427 -5.67726068 15.52561966 -9 18 C-9.33 17.34 -9.66 16.68 -10 16 C-9.34 16 -8.68 16 -8 16 C-7.67 14.02 -7.34 12.04 -7 10 C-6.01 10 -5.02 10 -4 10 C-4 8.68 -4 7.36 -4 6 C-3.01 6 -2.02 6 -1 6 C-0.67 4.02 -0.34 2.04 0 0 Z " fill="#AFAFAF" transform="translate(258,310)"/>
<path d="M0 0 C0.99 0 1.98 0 3 0 C3 0.99 3 1.98 3 3 C4.32 3 5.64 3 7 3 C7.33 5.31 7.66 7.62 8 10 C8.66 10 9.32 10 10 10 C10 10.99 10 11.98 10 13 C9.34 13 8.68 13 8 13 C0 4.17948718 0 4.17948718 0 0 Z " fill="#BFC1CF" transform="translate(240,272)"/>
<path d="M0 0 C0.99 0 1.98 0 3 0 C3.33 2.31 3.66 4.62 4 7 C4.99 7 5.98 7 7 7 C7 9.31 7 11.62 7 14 C6.01 14 5.02 14 4 14 C2.8422494 10.52674819 2.93133348 7.63932552 3 4 C2.01 3.67 1.02 3.34 0 3 C0 2.01 0 1.02 0 0 Z " fill="#43486E" transform="translate(230,361)"/>
<path d="M0 0 C10.23 0 20.46 0 31 0 C31 1.32 31 2.64 31 4 C30.01 4 29.02 4 28 4 C28 3.01 28 2.02 28 1 C18.76 1 9.52 1 0 1 C0 0.67 0 0.34 0 0 Z " fill="#6B7191" transform="translate(312,161)"/>
<path d="M0 0 C4.29 0 8.58 0 13 0 C13 0.99 13 1.98 13 3 C8.71 3 4.42 3 0 3 C0 2.01 0 1.02 0 0 Z " fill="#19245A" transform="translate(261,393)"/>
<path d="M0 0 C0.99 0.33 1.98 0.66 3 1 C3 1.66 3 2.32 3 3 C4.98567708 2.96744792 6.97135417 2.93489583 8.95703125 2.90234375 C11 3 11 3 14 4 C14 4.99 14 5.98 14 7 C11.69 7 9.38 7 7 7 C7 6.01 7 5.02 7 4 C4.69 4 2.38 4 0 4 C0 2.68 0 1.36 0 0 Z " fill="#696D8B" transform="translate(247,385)"/>
<path d="M0 0 C0.99 0 1.98 0 3 0 C3 0.66 3 1.32 3 2 C2.34 2.66 1.68 3.32 1 4 C0.690625 4.639375 0.38125 5.27875 0.0625 5.9375 C-1.06114585 8.11869488 -2.08680914 9.46944731 -4 11 C-4.99 11 -5.98 11 -7 11 C-7 9.68 -7 8.36 -7 7 C-6.01 7 -5.02 7 -4 7 C-3.71125 6.401875 -3.4225 5.80375 -3.125 5.1875 C-2 3 -2 3 0 0 Z " fill="#999AA1" transform="translate(268,299)"/>
<path d="M0 0 C1.32 0.33 2.64 0.66 4 1 C4 8.92 4 16.84 4 25 C2.68 24.67 1.36 24.34 0 24 C0.99 24 1.98 24 3 24 C3 17.4 3 10.8 3 4 C2.01 4 1.02 4 0 4 C0 2.68 0 1.36 0 0 Z " fill="#222B5F" transform="translate(426,120)"/>
<path d="M0 0 C0.99 0 1.98 0 3 0 C3 0.99 3 1.98 3 3 C4.093125 2.979375 5.18625 2.95875 6.3125 2.9375 C10 3 10 3 13 4 C13 4.99 13 5.98 13 7 C10.69 7 8.38 7 6 7 C6 6.01 6 5.02 6 4 C3.03 3.505 3.03 3.505 0 3 C0 2.01 0 1.02 0 0 Z " fill="#AEB1B7" transform="translate(248,151)"/>
<path d="M0 0 C0.66 0 1.32 0 2 0 C2 1.98 2 3.96 2 6 C1.34 6 0.68 6 0 6 C0 7.32 0 8.64 0 10 C-1.32 10 -2.64 10 -4 10 C-4 8.02 -4 6.04 -4 4 C-3.01 3.67 -2.02 3.34 -1 3 C-0.67 2.01 -0.34 1.02 0 0 Z " fill="#7E8292" transform="translate(272,289)"/>
<path d="M0 0 C0.33 0.99 0.66 1.98 1 3 C1.66 3 2.32 3 3 3 C3.33 3.99 3.66 4.98 4 6 C4.99 6.33 5.98 6.66 7 7 C7 8.98 7 10.96 7 13 C6.01 13 5.02 13 4 13 C3.67 11.02 3.34 9.04 3 7 C2.01 7 1.02 7 0 7 C0 4.69 0 2.38 0 0 Z " fill="#787B98" transform="translate(254,289)"/>
<path d="M0 0 C0.33 0.99 0.66 1.98 1 3 C1.99 3 2.98 3 4 3 C4 6.3 4 9.6 4 13 C4.99 13.33 5.98 13.66 7 14 C5.68 14 4.36 14 3 14 C3 12.68 3 11.36 3 10 C2.01 9.67 1.02 9.34 0 9 C0 6.03 0 3.06 0 0 Z " fill="#1E2459" transform="translate(185,282)"/>
<path d="M0 0 C0.33 0.99 0.66 1.98 1 3 C1.99 3.33 2.98 3.66 4 4 C4 5.98 4 7.96 4 10 C4.99 10 5.98 10 7 10 C7 11.32 7 12.64 7 14 C5.68 14 4.36 14 3 14 C3 11.69 3 9.38 3 7 C2.01 7 1.02 7 0 7 C0 4.69 0 2.38 0 0 Z " fill="#6C7195" transform="translate(230,244)"/>
<path d="M0 0 C1.32 0 2.64 0 4 0 C4 1.32 4 2.64 4 4 C4.99 4 5.98 4 7 4 C7 6.31 7 8.62 7 11 C7.99 11 8.98 11 10 11 C10 11.99 10 12.98 10 14 C8.68 14 7.36 14 6 14 C6 12.02 6 10.04 6 8 C5.01 7.67 4.02 7.34 3 7 C3 5.02 3 3.04 3 1 C2.01 0.67 1.02 0.34 0 0 Z " fill="#3B436F" transform="translate(203,199)"/>
<path d="M0 0 C1.32 0 2.64 0 4 0 C3.67 1.32 3.34 2.64 3 4 C2.34 4 1.68 4 1 4 C1 4.99 1 5.98 1 7 C0.01 7 -0.98 7 -2 7 C-2 8.98 -2 10.96 -2 13 C-3.32 13.33 -4.64 13.66 -6 14 C-6 13.01 -6 12.02 -6 11 C-5.01 11 -4.02 11 -3 11 C-3 9.35 -3 7.7 -3 6 C-2.01 6 -1.02 6 0 6 C0 4.02 0 2.04 0 0 Z " fill="#4E537A" transform="translate(305,227)"/>
<path d="M0 0 C0.99 0 1.98 0 3 0 C3 0.99 3 1.98 3 3 C3.99 3 4.98 3 6 3 C6 5.31 6 7.62 6 10 C5.01 10 4.02 10 3 10 C2.67 8.02 2.34 6.04 2 4 C1.34 4 0.68 4 0 4 C0 2.68 0 1.36 0 0 Z " fill="#535879" transform="translate(138,203)"/>
<path d="M0 0 C0.99 0 1.98 0 3 0 C3 1.32 3 2.64 3 4 C2.01 4 1.02 4 0 4 C0 7.3 0 10.6 0 14 C-1.32 14 -2.64 14 -4 14 C-4 12.68 -4 11.36 -4 10 C-3.01 10 -2.02 10 -1 10 C-1.020625 8.906875 -1.04125 7.81375 -1.0625 6.6875 C-1 3 -1 3 0 0 Z " fill="#60678B" transform="translate(289,368)"/>
<path d="M0 0 C0.99 0 1.98 0 3 0 C4.1577506 3.47325181 4.06866652 6.36067448 4 10 C4.99 10 5.98 10 7 10 C6.67 11.32 6.34 12.64 6 14 C6 13.01 6 12.02 6 11 C5.01 11 4.02 11 3 11 C3 9.68 3 8.36 3 7 C2.01 7 1.02 7 0 7 C0 4.69 0 2.38 0 0 Z " fill="#313867" transform="translate(213,213)"/>
<path d="M0 0 C0.33 0 0.66 0 1 0 C1 2.31 1 4.62 1 7 C-0.32 7 -1.64 7 -3 7 C-3 7.99 -3 8.98 -3 10 C-3.99 10 -4.98 10 -6 10 C-6 8.68 -6 7.36 -6 6 C-5.34 6 -4.68 6 -4 6 C-4 5.01 -4 4.02 -4 3 C-2.68 3 -1.36 3 0 3 C0 2.01 0 1.02 0 0 Z " fill="#474E79" transform="translate(302,351)"/>
<path d="M0 0 C0.99 0 1.98 0 3 0 C3.28875 0.969375 3.5775 1.93875 3.875 2.9375 C4.64214682 6.10664203 4.64214682 6.10664203 7 7 C6.67 7.99 6.34 8.98 6 10 C5.34 10 4.68 10 4 10 C4 9.01 4 8.02 4 7 C2.68 7 1.36 7 0 7 C0 4.69 0 2.38 0 0 Z " fill="#9697A0" transform="translate(227,347)"/>
<path d="M0 0 C0.99 0 1.98 0 3 0 C3 1.65 3 3.3 3 5 C1.02 5.99 1.02 5.99 -1 7 C-1 7.99 -1 8.98 -1 10 C-1.99 10 -2.98 10 -4 10 C-4 8.68 -4 7.36 -4 6 C-3.01 6 -2.02 6 -1 6 C-0.67 4.02 -0.34 2.04 0 0 Z " fill="#293162" transform="translate(334,296)"/>
<path d="M0 0 C1.32 0 2.64 0 4 0 C4 0.99 4 1.98 4 3 C3.01 3 2.02 3 1 3 C0.67 5.31 0.34 7.62 0 10 C-0.99 10 -1.98 10 -3 10 C-3 8.02 -3 6.04 -3 4 C-2.01 4 -1.02 4 0 4 C0 2.68 0 1.36 0 0 Z " fill="#757B99" transform="translate(329,299)"/>
<path d="M0 0 C1.32 0 2.64 0 4 0 C4 2.31 4 4.62 4 7 C2.02 7 0.04 7 -2 7 C-2.33 7.99 -2.66 8.98 -3 10 C-3 8.68 -3 7.36 -3 6 C-2.01 6 -1.02 6 0 6 C0 4.02 0 2.04 0 0 Z " fill="#70738D" transform="translate(288,258)"/>
<path d="M0 0 C1.32 0 2.64 0 4 0 C4 1.32 4 2.64 4 4 C3.01 4 2.02 4 1 4 C0.67 5.98 0.34 7.96 0 10 C-0.99 10 -1.98 10 -3 10 C-2.67 8.02 -2.34 6.04 -2 4 C-1.34 4 -0.68 4 0 4 C0 2.68 0 1.36 0 0 Z " fill="#9195AC" transform="translate(360,244)"/>
<path d="M0 0 C0.99 0 1.98 0 3 0 C3.33 1.98 3.66 3.96 4 6 C4.99 6 5.98 6 7 6 C7 7.32 7 8.64 7 10 C6.01 10 5.02 10 4 10 C3.67 9.01 3.34 8.02 3 7 C2.01 6.67 1.02 6.34 0 6 C0 4.02 0 2.04 0 0 Z " fill="#8589A6" transform="translate(158,124)"/>
<path d="M0 0 C1 3 1 3 0 6 C-0.66 6 -1.32 6 -2 6 C-2 7.32 -2 8.64 -2 10 C-2.99 10 -3.98 10 -5 10 C-5.33 10.99 -5.66 11.98 -6 13 C-6 10.69 -6 8.38 -6 6 C-5.01 6 -4.02 6 -3 6 C-2.67 4.68 -2.34 3.36 -2 2 C-1.34 2 -0.68 2 0 2 C0 1.34 0 0.68 0 0 Z " fill="#696F91" transform="translate(339,286)"/>
<path d="M0 0 C1.32 0 2.64 0 4 0 C4 1.98 4 3.96 4 6 C4.99 6 5.98 6 7 6 C7 8.31 7 10.62 7 13 C6.67 12.01 6.34 11.02 6 10 C5.34 10 4.68 10 4 10 C3.67 7.69 3.34 5.38 3 3 C2.01 3 1.02 3 0 3 C0 2.01 0 1.02 0 0 Z " fill="#6E7496" transform="translate(244,272)"/>
<path d="M0 0 C0.99 0 1.98 0 3 0 C3 1.98 3 3.96 3 6 C1.02 6.33 -0.96 6.66 -3 7 C-3.33 7.99 -3.66 8.98 -4 10 C-3.625 7.0625 -3.625 7.0625 -3 4 C-2.34 3.67 -1.68 3.34 -1 3 C-0.67 2.01 -0.34 1.02 0 0 Z " fill="#72768C" transform="translate(299,241)"/>
<path d="M0 0 C0.99 0 1.98 0 3 0 C3.33 2.31 3.66 4.62 4 7 C4.66 7 5.32 7 6 7 C6 7.99 6 8.98 6 10 C5.01 10 4.02 10 3 10 C2.34 9.01 1.68 8.02 1 7 C0.67 6.67 0.34 6.34 0 6 C-0.04080783 4.00041636 -0.04254356 1.99954746 0 0 Z " fill="#262C5E" transform="translate(103,145)"/>
<path d="M0 0 C0.99 0 1.98 0 3 0 C3 0.99 3 1.98 3 3 C4.32 3.33 5.64 3.66 7 4 C7 5.98 7 7.96 7 10 C6.67 9.01 6.34 8.02 6 7 C3.98491642 6.26676204 3.98491642 6.26676204 2 6 C2 5.34 2 4.68 2 4 C1.34 4 0.68 4 0 4 C0 2.68 0 1.36 0 0 Z " fill="#3F4672" transform="translate(155,117)"/>
<path d="M0 0 C-0.66 0 -1.32 0 -2 0 C-2.33 0.99 -2.66 1.98 -3 3 C-9.6 3 -16.2 3 -23 3 C-23 2.67 -23 2.34 -23 2 C-17.39 2 -11.78 2 -6 2 C-6 1.34 -6 0.68 -6 0 C-3 -1 -3 -1 0 0 Z " fill="#9B9DB0" transform="translate(281,386)"/>
<path d="M0 0 C0.99 0.33 1.98 0.66 3 1 C3.33 2.98 3.66 4.96 4 7 C4.99 7 5.98 7 7 7 C7 7.99 7 8.98 7 10 C5.68 10 4.36 10 3 10 C3 9.01 3 8.02 3 7 C2.34 7 1.68 7 1 7 C0.67 4.69 0.34 2.38 0 0 Z " fill="#A2A6BC" transform="translate(223,237)"/>
<path d="M0 0 C0.99 0 1.98 0 3 0 C3.33 2.31 3.66 4.62 4 7 C4.99 7 5.98 7 7 7 C7 7.99 7 8.98 7 10 C5.68 10 4.36 10 3 10 C3 8.68 3 7.36 3 6 C2.34 6 1.68 6 1 6 C0.67 4.02 0.34 2.04 0 0 Z " fill="#858AA5" transform="translate(216,224)"/>
<path d="M0 0 C0.33 0 0.66 0 1 0 C1 2.31 1 4.62 1 7 C-0.32 7 -1.64 7 -3 7 C-3 8.98 -3 10.96 -3 13 C-3.99 13 -4.98 13 -6 13 C-6 10.69 -6 8.38 -6 6 C-4.02 6 -2.04 6 0 6 C0 4.02 0 2.04 0 0 Z " fill="#262D5E" transform="translate(315,210)"/>
<path d="M0 0 C0.99 0.33 1.98 0.66 3 1 C3.33 2.98 3.66 4.96 4 7 C4.99 7 5.98 7 7 7 C7 7.99 7 8.98 7 10 C5.68 10 4.36 10 3 10 C3 9.01 3 8.02 3 7 C2.34 7 1.68 7 1 7 C0.67 4.69 0.34 2.38 0 0 Z " fill="#515676" transform="translate(144,213)"/>
<path d="M0 0 C0 1.32 0 2.64 0 4 C-1.32 4 -2.64 4 -4 4 C-4 4.99 -4 5.98 -4 7 C-4.99 7 -5.98 7 -7 7 C-6.625 4.0625 -6.625 4.0625 -6 1 C-4 0 -4 0 0 0 Z " fill="#8C90AA" transform="translate(388,206)"/>
<path d="M0 0 C1.98 0 3.96 0 6 0 C5.01 0.33 4.02 0.66 3 1 C2.67 2.98 2.34 4.96 2 7 C1.34 7 0.68 7 0 7 C0 8.32 0 9.64 0 11 C-1.32 10.67 -2.64 10.34 -4 10 C-3.01 10 -2.02 10 -1 10 C-0.67 6.7 -0.34 3.4 0 0 Z " fill="#373D69" transform="translate(320,199)"/>
<path d="M0 0 C0.99 0 1.98 0 3 0 C3 1.98 3 3.96 3 6 C1.02 6.33 -0.96 6.66 -3 7 C-3 8.98 -3 10.96 -3 13 C-3.33 13 -3.66 13 -4 13 C-4 10.69 -4 8.38 -4 6 C-3.01 6 -2.02 6 -1 6 C-0.67 4.02 -0.34 2.04 0 0 Z " fill="#555A7B" transform="translate(330,186)"/>
<path d="M0 0 C3 0 3 0 4.38671875 1.3125 C5.59114583 2.875 6.79557292 4.4375 8 6 C7 7 7 7 4.4375 7.0625 C3.2309375 7.0315625 3.2309375 7.0315625 2 7 C2 6.01 2 5.02 2 4 C1.34 4 0.68 4 0 4 C0 2.68 0 1.36 0 0 Z " fill="#9D9FA8" transform="translate(241,144)"/>
<path d="M0 0 C0.33 0.99 0.66 1.98 1 3 C1.99 3 2.98 3 4 3 C4 3.99 4 4.98 4 6 C4.99 6 5.98 6 7 6 C7 7.32 7 8.64 7 10 C6.01 10 5.02 10 4 10 C4 9.01 4 8.02 4 7 C2.68 6.67 1.36 6.34 0 6 C0 4.02 0 2.04 0 0 Z " fill="#2B3261" transform="translate(223,351)"/>
<path d="M0 0 C0.33 0 0.66 0 1 0 C1 1.98 1 3.96 1 6 C0.01 6.33 -0.98 6.66 -2 7 C-2 7.99 -2 8.98 -2 10 C-3.32 10 -4.64 10 -6 10 C-6 9.01 -6 8.02 -6 7 C-5.01 7 -4.02 7 -3 7 C-3 5.68 -3 4.36 -3 3 C-2.01 3 -1.02 3 0 3 C0 2.01 0 1.02 0 0 Z " fill="#353D6C" transform="translate(367,241)"/>
<path d="M0 0 C1.32 0 2.64 0 4 0 C4 2.31 4 4.62 4 7 C4.99 7 5.98 7 7 7 C7 9.31 7 11.62 7 14 C6.67 12.68 6.34 11.36 6 10 C5.34 10 4.68 10 4 10 C3.67 7.69 3.34 5.38 3 3 C2.01 3 1.02 3 0 3 C0 2.01 0 1.02 0 0 Z " fill="#49507A" transform="translate(172,144)"/>
<path d="M0 0 C1.32 0.33 2.64 0.66 4 1 C4 1.99 4 2.98 4 4 C4.99 4 5.98 4 7 4 C7 5.98 7 7.96 7 10 C6.67 9.34 6.34 8.68 6 8 C5.01 7.67 4.02 7.34 3 7 C3 5.68 3 4.36 3 3 C2.01 3 1.02 3 0 3 C0 2.01 0 1.02 0 0 Z " fill="#494E7A" transform="translate(189,175)"/>
<path d="M0 0 C3 0 3 0 4.625 1.0625 C6.62066174 3.87456882 6.68138504 6.62268141 7 10 C7.99 10 8.98 10 10 10 C10.33 10.99 10.66 11.98 11 13 C10.34 13 9.68 13 9 13 C9 12.34 9 11.68 9 11 C8.01 11 7.02 11 6 11 C6 9.68 6 8.36 6 7 C5.01 7 4.02 7 3 7 C2.87625 6.030625 2.7525 5.06125 2.625 4.0625 C2.41875 3.051875 2.2125 2.04125 2 1 C1.34 0.67 0.68 0.34 0 0 Z " fill="#95979D" transform="translate(114,158)"/>
<path d="M0 0 C0.99 0 1.98 0 3 0 C3 1.32 3 2.64 3 4 C2.01 4 1.02 4 0 4 C-0.33 5.98 -0.66 7.96 -1 10 C-1.99 10 -2.98 10 -4 10 C-4 8.68 -4 7.36 -4 6 C-3.01 6 -2.02 6 -1 6 C-0.67 4.02 -0.34 2.04 0 0 Z " fill="#6B7192" transform="translate(313,327)"/>
<path d="M0 0 C0.66 0 1.32 0 2 0 C2.82638376 2.89234315 3 4.88742431 3 8 C1.68 8 0.36 8 -1 8 C-1.04241723 5.66705225 -1.04092937 3.33297433 -1 1 C-0.67 0.67 -0.34 0.34 0 0 Z " fill="#20295C" transform="translate(245,264)"/>
<path d="M0 0 C0.33 0 0.66 0 1 0 C1.125 6.625 1.125 6.625 0 10 C-0.99 10 -1.98 10 -3 10 C-3 7.69 -3 5.38 -3 3 C-2.01 3 -1.02 3 0 3 C0 2.01 0 1.02 0 0 Z " fill="#4C5277" transform="translate(336,175)"/>
<path d="M0 0 C1.32 0 2.64 0 4 0 C4 0.99 4 1.98 4 3 C3.01 3 2.02 3 1 3 C1 4.32 1 5.64 1 7 C-0.32 7 -1.64 7 -3 7 C-3 5.68 -3 4.36 -3 3 C-2.01 3 -1.02 3 0 3 C0 2.01 0 1.02 0 0 Z " fill="#484F76" transform="translate(123,103)"/>
<path d="M0 0 C0.93423645 3.01031744 1.04449911 3.86650268 0 7 C-0.66 7 -1.32 7 -2 7 C-2 7.99 -2 8.98 -2 10 C-3.32 10 -4.64 10 -6 10 C-6 9.01 -6 8.02 -6 7 C-5.01 7 -4.02 7 -3 7 C-2.67 5.68 -2.34 4.36 -2 3 C-1.34 3 -0.68 3 0 3 C0 2.01 0 1.02 0 0 Z " fill="#686E90" transform="translate(353,261)"/>
<path d="M0 0 C0.99 0 1.98 0 3 0 C3 1.32 3 2.64 3 4 C2.01 4 1.02 4 0 4 C-0.33 5.98 -0.66 7.96 -1 10 C-1.99 10 -2.98 10 -4 10 C-3.67 8.68 -3.34 7.36 -3 6 C-2.34 6 -1.68 6 -1 6 C-0.67 4.02 -0.34 2.04 0 0 Z " fill="#49507C" transform="translate(392,196)"/>
<path d="M0 0 C2.97 0 5.94 0 9 0 C9 0.99 9 1.98 9 3 C6.03 3 3.06 3 0 3 C0 2.01 0 1.02 0 0 Z " fill="#171D56" transform="translate(320,162)"/>
<path d="M0 0 C0.99 0 1.98 0 3 0 C3 2.97 3 5.94 3 9 C2.01 9 1.02 9 0 9 C0 6.03 0 3.06 0 0 Z " fill="#323A68" transform="translate(100,128)"/>
<path d="M0 0 C2.31 0 4.62 0 7 0 C7 0.66 7 1.32 7 2 C7.99 2.33 8.98 2.66 10 3 C5.71 3 1.42 3 -3 3 C-2.01 2.67 -1.02 2.34 0 2 C0 1.34 0 0.68 0 0 Z " fill="#878CA1" transform="translate(127,104)"/>
<path d="M0 0 C0.99 0 1.98 0 3 0 C3.33 2.31 3.66 4.62 4 7 C2.68 7 1.36 7 0 7 C0 4.69 0 2.38 0 0 Z " fill="#848794" transform="translate(165,244)"/>
<path d="M0 0 C1.32 0.33 2.64 0.66 4 1 C3.01 1 2.02 1 1 1 C1 2.98 1 4.96 1 7 C0.01 7.33 -0.98 7.66 -2 8 C-2.33 8.66 -2.66 9.32 -3 10 C-3 8.02 -3 6.04 -3 4 C-2.01 3.67 -1.02 3.34 0 3 C0 2.01 0 1.02 0 0 Z " fill="#22295C" transform="translate(298,237)"/>
<path d="M0 0 C0.33 0.99 0.66 1.98 1 3 C1.99 3 2.98 3 4 3 C4 5.31 4 7.62 4 10 C3.34 10 2.68 10 2 10 C-0.4294516 6.3558226 -0.16179575 4.28758728 0 0 Z " fill="#5E658C" transform="translate(199,189)"/>
<path d="M0 0 C3.3 0 6.6 0 10 0 C6.67692308 3.93846154 6.67692308 3.93846154 3.25 4.25 C2.5075 4.1675 1.765 4.085 1 4 C0.67 2.68 0.34 1.36 0 0 Z " fill="#D8D9D8" transform="translate(345,161)"/>
<path d="M0 0 C2.31 0.33 4.62 0.66 7 1 C7 1.66 7 2.32 7 3 C10.3 3 13.6 3 17 3 C17 3.33 17 3.66 17 4 C12.38 4 7.76 4 3 4 C3 3.01 3 2.02 3 1 C2.01 0.67 1.02 0.34 0 0 Z " fill="#313869" transform="translate(247,158)"/>
<path d="M0 0 C0.99 0 1.98 0 3 0 C3.33 2.31 3.66 4.62 4 7 C2.68 7 1.36 7 0 7 C0 4.69 0 2.38 0 0 Z " fill="#2E3667" transform="translate(182,158)"/>
<path d="M0 0 C0.66 1.32 1.32 2.64 2 4 C0.50260417 5.23697917 -0.99479167 6.47395833 -2.4921875 7.7109375 C-3.71051161 8.75250992 -4.86660097 9.86660097 -6 11 C-6 9.35 -6 7.7 -6 6 C-5.01 6 -4.02 6 -3 6 C-2.67 4.68 -2.34 3.36 -2 2 C-1.34 2 -0.68 2 0 2 C0 1.34 0 0.68 0 0 Z " fill="#9DA1AB" transform="translate(116,114)"/>
<path d="M0 0 C0.99 0 1.98 0 3 0 C3 0.99 3 1.98 3 3 C2.01 3 1.02 3 0 3 C0 5.64 0 8.28 0 11 C-0.99 11 -1.98 11 -3 11 C-3.33 11.99 -3.66 12.98 -4 14 C-4 12.68 -4 11.36 -4 10 C-3.01 10 -2.02 10 -1 10 C-1.01160156 9.36191406 -1.02320313 8.72382813 -1.03515625 8.06640625 C-1.04869141 6.82697266 -1.04869141 6.82697266 -1.0625 5.5625 C-1.07410156 4.73878906 -1.08570313 3.91507812 -1.09765625 3.06640625 C-1 1 -1 1 0 0 Z " fill="#353C65" transform="translate(275,278)"/>
<path d="M0 0 C1.2380014 3.57644848 0.74926071 6.33694766 0 10 C-0.99 10 -1.98 10 -3 10 C-3 7.69 -3 5.38 -3 3 C-2.01 3 -1.02 3 0 3 C0 2.01 0 1.02 0 0 Z " fill="#6D7289" transform="translate(343,165)"/>
<path d="M0 0 C1.32 0 2.64 0 4 0 C4 1.98 4 3.96 4 6 C4.99 6 5.98 6 7 6 C6.67 7.32 6.34 8.64 6 10 C6 9.01 6 8.02 6 7 C5.01 7 4.02 7 3 7 C3 6.01 3 5.02 3 4 C2.01 4 1.02 4 0 4 C0 2.68 0 1.36 0 0 Z " fill="#7F85A3" transform="translate(182,165)"/>
<path d="M0 0 C3.63 0 7.26 0 11 0 C11 0.99 11 1.98 11 3 C8.69 3 6.38 3 4 3 C4 2.34 4 1.68 4 1 C2.68 0.67 1.36 0.34 0 0 Z " fill="#7F819A" transform="translate(257,158)"/>
<path d="M0 0 C1.32 0 2.64 0 4 0 C3.67 2.31 3.34 4.62 3 7 C2.01 7 1.02 7 0 7 C0 4.69 0 2.38 0 0 Z " fill="#434974" transform="translate(419,151)"/>
<path d="M0 0 C0.99 0 1.98 0 3 0 C3 1.98 3 3.96 3 6 C3.99 6 4.98 6 6 6 C6 7.32 6 8.64 6 10 C5.01 10 4.02 10 3 10 C2.67 7.69 2.34 5.38 2 3 C1.34 3 0.68 3 0 3 C0 2.01 0 1.02 0 0 Z " fill="#8C91AE" transform="translate(169,141)"/>
<path d="M0 0 C0.99 0 1.98 0 3 0 C3 1.98 3 3.96 3 6 C2.01 6 1.02 6 0 6 C0 5.34 0 4.68 0 4 C-2.31 4 -4.62 4 -7 4 C-7 3.67 -7 3.34 -7 3 C-4.69 3 -2.38 3 0 3 C0 2.01 0 1.02 0 0 Z " fill="#5A6188" transform="translate(134,100)"/>
<path d="M0 0 C0.33 0.99 0.66 1.98 1 3 C2.32 3 3.64 3 5 3 C5 3.99 5 4.98 5 6 C5.99 6 6.98 6 8 6 C7.67 7.32 7.34 8.64 7 10 C7 9.01 7 8.02 7 7 C6.030625 6.855625 5.06125 6.71125 4.0625 6.5625 C1 6 1 6 0 5 C-0.04063832 3.33382885 -0.042721 1.66611905 0 0 Z " fill="#282F60" transform="translate(212,334)"/>
<path d="M0 0 C0.99 0 1.98 0 3 0 C3 0.99 3 1.98 3 3 C3.99 3 4.98 3 6 3 C6 4.32 6 5.64 6 7 C4.68 6.67 3.36 6.34 2 6 C2 5.01 2 4.02 2 3 C1.34 3 0.68 3 0 3 C0 2.01 0 1.02 0 0 Z " fill="#74798C" transform="translate(176,265)"/>
<path d="M0 0 C0.99 0 1.98 0 3 0 C3.33 0.66 3.66 1.32 4 2 C4.99 2.33 5.98 2.66 7 3 C7 4.98 7 6.96 7 9 C6.67 8.01 6.34 7.02 6 6 C5.01 6 4.02 6 3 6 C3 5.01 3 4.02 3 3 C2.01 2.67 1.02 2.34 0 2 C0 1.34 0 0.68 0 0 Z " fill="#E4E5EA" transform="translate(412,111)"/>
<path d="M0 0 C1.32 0 2.64 0 4 0 C3.67 1.98 3.34 3.96 3 6 C2.01 6.33 1.02 6.66 0 7 C0 4.69 0 2.38 0 0 Z " fill="#A5A7BA" transform="translate(336,282)"/>
<path d="M0 0 C0.99 0 1.98 0 3 0 C3.33 2.31 3.66 4.62 4 7 C2.68 7 1.36 7 0 7 C0 4.69 0 2.38 0 0 Z " fill="#7C8090" transform="translate(337,175)"/>
<path d="M0 0 C2.31 0 4.62 0 7 0 C7 0.99 7 1.98 7 3 C7.99 3.33 8.98 3.66 10 4 C7.03 3.67 4.06 3.34 1 3 C0.67 2.01 0.34 1.02 0 0 Z " fill="#111953" transform="translate(275,162)"/>
<path d="M0 0 C0.99 0.33 1.98 0.66 3 1 C3.33 2.98 3.66 4.96 4 7 C2.68 7 1.36 7 0 7 C0 4.69 0 2.38 0 0 Z " fill="#5F6581" transform="translate(113,158)"/>
<path d="M0 0 C0.99 0 1.98 0 3 0 C3.33 1.98 3.66 3.96 4 6 C2.68 6.33 1.36 6.66 0 7 C0 4.69 0 2.38 0 0 Z " fill="#888A97" transform="translate(234,361)"/>
<path d="M0 0 C0.99 0 1.98 0 3 0 C3.33 1.98 3.66 3.96 4 6 C4.99 6 5.98 6 7 6 C6.67 7.32 6.34 8.64 6 10 C6 9.01 6 8.02 6 7 C5.01 7 4.02 7 3 7 C3 6.01 3 5.02 3 4 C2.01 4 1.02 4 0 4 C0 2.68 0 1.36 0 0 Z " fill="#4B5074" transform="translate(206,320)"/>
<path d="M0 0 C0.99 0.33 1.98 0.66 3 1 C2.34 1 1.68 1 1 1 C0.896875 1.94875 0.79375 2.8975 0.6875 3.875 C0 7 0 7 -3 9 C-3.36923077 3.46153846 -3.36923077 3.46153846 -1.5 1.125 C-1.005 0.75375 -0.51 0.3825 0 0 Z " fill="#9998A0" transform="translate(323,206)"/>
<path d="M0 0 C0.99 0 1.98 0 3 0 C3 0.99 3 1.98 3 3 C2.01 3 1.02 3 0 3 C0 3.99 0 4.98 0 6 C-1.32 6 -2.64 6 -4 6 C-4 5.01 -4 4.02 -4 3 C-3.01 2.67 -2.02 2.34 -1 2 C-0.67 1.34 -0.34 0.68 0 0 Z " fill="#333B68" transform="translate(406,176)"/>
<path d="M0 0 C0.33 0 0.66 0 1 0 C1 2.31 1 4.62 1 7 C0.01 7 -0.98 7 -2 7 C-2.33 7.99 -2.66 8.98 -3 10 C-3 7.69 -3 5.38 -3 3 C-2.01 3 -1.02 3 0 3 C0 2.01 0 1.02 0 0 Z " fill="#757B9C" transform="translate(425,141)"/>
<path d="M0 0 C0.99 0 1.98 0 3 0 C3.33 2.31 3.66 4.62 4 7 C2.68 6.67 1.36 6.34 0 6 C0 4.02 0 2.04 0 0 Z " fill="#656886" transform="translate(237,141)"/>
<path d="M0 0 C0.99 0 1.98 0 3 0 C3 2.31 3 4.62 3 7 C2.01 7 1.02 7 0 7 C0 4.69 0 2.38 0 0 Z " fill="#636783" transform="translate(196,299)"/>
<path d="M0 0 C0.99 0 1.98 0 3 0 C4.74627478 2.61941217 5.38722388 4.03824877 6 7 C5.01 7 4.02 7 3 7 C2.67 6.01 2.34 5.02 2 4 C1.34 3.67 0.68 3.34 0 3 C0 2.01 0 1.02 0 0 Z " fill="#9999A0" transform="translate(176,261)"/>
<path d="M0 0 C0.99 0 1.98 0 3 0 C3 2.31 3 4.62 3 7 C2.01 7 1.02 7 0 7 C0 4.69 0 2.38 0 0 Z " fill="#6D7389" transform="translate(292,251)"/>
<path d="M0 0 C0.99 0 1.98 0 3 0 C3 2.31 3 4.62 3 7 C2.01 7 1.02 7 0 7 C0 4.69 0 2.38 0 0 Z " fill="#64698B" transform="translate(371,227)"/>
<path d="M0 0 C0.99 0.495 0.99 0.495 2 1 C2 1.66 2 2.32 2 3 C3.65 3.33 5.3 3.66 7 4 C7 4.99 7 5.98 7 7 C5.68 7 4.36 7 3 7 C3 6.01 3 5.02 3 4 C2.01 4 1.02 4 0 4 C0 2.68 0 1.36 0 0 Z " fill="#9499B2" transform="translate(199,196)"/>
<path d="M0 0 C0.99 0 1.98 0 3 0 C3 2.31 3 4.62 3 7 C2.01 7 1.02 7 0 7 C0 4.69 0 2.38 0 0 Z " fill="#ABAFC4" transform="translate(196,189)"/>
<path d="M0 0 C1.32 0.33 2.64 0.66 4 1 C3.34 1 2.68 1 2 1 C1.67 3.31 1.34 5.62 1 8 C0.01 8 -0.98 8 -2 8 C-2 6.68 -2 5.36 -2 4 C-1.34 4 -0.68 4 0 4 C0 2.68 0 1.36 0 0 Z " fill="#96979D" transform="translate(336,182)"/>
<path d="M0 0 C0.33 0 0.66 0 1 0 C1 2.31 1 4.62 1 7 C0.01 7 -0.98 7 -2 7 C-2.33 7.66 -2.66 8.32 -3 9 C-3 7.02 -3 5.04 -3 3 C-2.01 3 -1.02 3 0 3 C0 2.01 0 1.02 0 0 Z " fill="#6C7293" transform="translate(408,169)"/>
<path d="M0 0 C0.99 0 1.98 0 3 0 C3 2.31 3 4.62 3 7 C2.01 7 1.02 7 0 7 C0 4.69 0 2.38 0 0 Z " fill="#9599B4" transform="translate(179,158)"/>
<path d="M0 0 C0.99 0 1.98 0 3 0 C3 2.31 3 4.62 3 7 C2.01 7 1.02 7 0 7 C0 4.69 0 2.38 0 0 Z " fill="#5A6082" transform="translate(237,117)"/>
<path d="M0 0 C1.98 0 3.96 0 6 0 C6 0.99 6 1.98 6 3 C6.99 3.33 7.98 3.66 9 4 C6.1875 4.25 6.1875 4.25 3 4 C1.125 2 1.125 2 0 0 Z " fill="#D1D4DE" transform="translate(406,107)"/>
<path d="M0 0 C2.31 0.33 4.62 0.66 7 1 C7 2.98 7 4.96 7 7 C6.67 6.34 6.34 5.68 6 5 C5.01 4.67 4.02 4.34 3 4 C3 3.01 3 2.02 3 1 C2.01 0.67 1.02 0.34 0 0 Z " fill="#232C60" transform="translate(134,99)"/>
<path d="M0 0 C2.31 0 4.62 0 7 0 C7 0.99 7 1.98 7 3 C4.69 3 2.38 3 0 3 C0 2.01 0 1.02 0 0 Z " fill="#293064" transform="translate(127,100)"/>
<path d="M0 0 C0.33 0.99 0.66 1.98 1 3 C1.99 3 2.98 3 4 3 C4 5.31 4 7.62 4 10 C3.67 9.01 3.34 8.02 3 7 C2.34 7 1.68 7 1 7 C0.67 4.69 0.34 2.38 0 0 Z " fill="#9A9FB6" transform="translate(240,265)"/>
<path d="M0 0 C1.32 0.33 2.64 0.66 4 1 C4 1.66 4 2.32 4 3 C4.66 3 5.32 3 6 3 C6 4.32 6 5.64 6 7 C5.34 7 4.68 7 4 7 C3.67 6.01 3.34 5.02 3 4 C2.01 3.67 1.02 3.34 0 3 C0 2.01 0 1.02 0 0 Z " fill="#41486C" transform="translate(148,223)"/>
<path d="M0 0 C0.99 0.33 1.98 0.66 3 1 C2.34 2.98 1.68 4.96 1 7 C-0.32 7 -1.64 7 -3 7 C-3 6.01 -3 5.02 -3 4 C-2.01 4 -1.02 4 0 4 C0 2.68 0 1.36 0 0 Z " fill="#20285A" transform="translate(388,206)"/>
<path d="M0 0 C3.3 0.33 6.6 0.66 10 1 C10 1.66 10 2.32 10 3 C7.69 3 5.38 3 3 3 C3 2.34 3 1.68 3 1 C2.01 0.67 1.02 0.34 0 0 Z " fill="#5E6284" transform="translate(251,158)"/>
<path d="M0 0 C2 2 2 2 2 6 C0.68 6 -0.64 6 -2 6 C-2 4.35 -2 2.7 -2 1 C-1.34 0.67 -0.68 0.34 0 0 Z " fill="#1D2557" transform="translate(181,152)"/>
<path d="M0 0 C0.66 0 1.32 0 2 0 C2.33 0.66 2.66 1.32 3 2 C3.99 2.33 4.98 2.66 6 3 C6 3.99 6 4.98 6 6 C4.68 6 3.36 6 2 6 C2 5.01 2 4.02 2 3 C1.34 3 0.68 3 0 3 C0 2.01 0 1.02 0 0 Z " fill="#555B7B" transform="translate(241,379)"/>
<path d="M0 0 C0.33 0 0.66 0 1 0 C1 2.31 1 4.62 1 7 C-0.32 7 -1.64 7 -3 7 C-3 5.68 -3 4.36 -3 3 C-2.01 3 -1.02 3 0 3 C0 2.01 0 1.02 0 0 Z " fill="#575D84" transform="translate(295,361)"/>
<path d="M0 0 C0.99 0.33 1.98 0.66 3 1 C3.33 2.98 3.66 4.96 4 7 C3.01 7 2.02 7 1 7 C0.67 4.69 0.34 2.38 0 0 Z " fill="#6C6F87" transform="translate(216,333)"/>
<path d="M0 0 C0.99 0 1.98 0 3 0 C2.67 1.98 2.34 3.96 2 6 C1.01 6.33 0.02 6.66 -1 7 C-0.67 4.69 -0.34 2.38 0 0 Z " fill="#A3A6B8" transform="translate(351,258)"/>
<path d="M0 0 C0.66 0.33 1.32 0.66 2 1 C2 2.98 2 4.96 2 7 C1.01 7 0.02 7 -1 7 C-1.04254356 5.00045254 -1.04080783 2.99958364 -1 1 C-0.67 0.67 -0.34 0.34 0 0 Z " fill="#121A4E" transform="translate(324,192)"/>
<path d="M0 0 C0.33 0.99 0.66 1.98 1 3 C1.99 3 2.98 3 4 3 C4 4.32 4 5.64 4 7 C2.68 7 1.36 7 0 7 C0 4.69 0 2.38 0 0 Z " fill="#3D446B" transform="translate(130,189)"/>
<path d="M0 0 C0.99 0.33 1.98 0.66 3 1 C3 2.98 3 4.96 3 7 C2.01 7 1.02 7 0 7 C0 4.69 0 2.38 0 0 Z " fill="#515779" transform="translate(127,182)"/>
<path d="M0 0 C1.32 0 2.64 0 4 0 C4 1.32 4 2.64 4 4 C3.01 4 2.02 4 1 4 C0.67 4.99 0.34 5.98 0 7 C0 4.69 0 2.38 0 0 Z " fill="#1E245A" transform="translate(329,182)"/>
<path d="M0 0 C0.93423645 3.01031744 1.04449911 3.86650268 0 7 C-1.65 7 -3.3 7 -5 7 C-4.34 5.68 -3.68 4.36 -3 3 C-2.01 3 -1.02 3 0 3 C0 2.01 0 1.02 0 0 Z " fill="#E3E3EA" transform="translate(415,151)"/>
<path d="M0 0 C1.32 0 2.64 0 4 0 C4 0.99 4 1.98 4 3 C4.99 3 5.98 3 7 3 C6.67 4.32 6.34 5.64 6 7 C6 6.01 6 5.02 6 4 C3.03 3.505 3.03 3.505 0 3 C0 2.01 0 1.02 0 0 Z " fill="#565D83" transform="translate(148,110)"/>
<path d="M0 0 C2.31 0 4.62 0 7 0 C6.01 0.33 5.02 0.66 4 1 C4 1.99 4 2.98 4 4 C2.68 4 1.36 4 0 4 C0 2.68 0 1.36 0 0 Z " fill="#5D6283" transform="translate(247,106)"/>
<path d="M0 0 C3.63 0 7.26 0 11 0 C11 0.99 11 1.98 11 3 C9.68 3 8.36 3 7 3 C7 2.34 7 1.68 7 1 C4.69 1 2.38 1 0 1 C0 0.67 0 0.34 0 0 Z " fill="#8D93AF" transform="translate(398,103)"/>
<path d="M0 0 C0.99 0 1.98 0 3 0 C3 1.98 3 3.96 3 6 C2.01 6 1.02 6 0 6 C0 4.02 0 2.04 0 0 Z " fill="#343C6B" transform="translate(289,372)"/>
<path d="M0 0 C0 1.98 0 3.96 0 6 C-0.99 6.33 -1.98 6.66 -3 7 C-3 5.02 -3 3.04 -3 1 C-1 0 -1 0 0 0 Z " fill="#262F61" transform="translate(306,347)"/>
<path d="M0 0 C0.99 0 1.98 0 3 0 C3 1.98 3 3.96 3 6 C2.01 6 1.02 6 0 6 C0 4.02 0 2.04 0 0 Z " fill="#20285F" transform="translate(313,331)"/>
<path d="M0 0 C0.99 0 1.98 0 3 0 C3 1.98 3 3.96 3 6 C2.01 6 1.02 6 0 6 C0 4.02 0 2.04 0 0 Z " fill="#363E6E" transform="translate(320,317)"/>
<path d="M0 0 C0.99 0 1.98 0 3 0 C3 1.98 3 3.96 3 6 C2.01 6 1.02 6 0 6 C0 4.02 0 2.04 0 0 Z " fill="#464C6C" transform="translate(203,313)"/>
<path d="M0 0 C0.99 0 1.98 0 3 0 C3 1.98 3 3.96 3 6 C2.01 6 1.02 6 0 6 C0 4.02 0 2.04 0 0 Z " fill="#4A4F7D" transform="translate(258,296)"/>
<path d="M0 0 C0.99 0 1.98 0 3 0 C3 1.98 3 3.96 3 6 C2.01 6 1.02 6 0 6 C0 4.02 0 2.04 0 0 Z " fill="#636682" transform="translate(268,293)"/>
<path d="M0 0 C0.99 0 1.98 0 3 0 C3 1.98 3 3.96 3 6 C2.01 6 1.02 6 0 6 C0 4.02 0 2.04 0 0 Z " fill="#4D5273" transform="translate(189,289)"/>
<path d="M0 0 C0.33 0.66 0.66 1.32 1 2 C1.99 2 2.98 2 4 2 C4 4.31 4 6.62 4 9 C3.67 8.01 3.34 7.02 3 6 C2.34 6 1.68 6 1 6 C0.67 4.02 0.34 2.04 0 0 Z " fill="#3A416D" transform="translate(254,286)"/>
<path d="M0 0 C0.33 0.99 0.66 1.98 1 3 C1.99 3 2.98 3 4 3 C4 4.32 4 5.64 4 7 C2.68 6.67 1.36 6.34 0 6 C0 4.02 0 2.04 0 0 Z " fill="#43486F" transform="translate(185,282)"/>
<path d="M0 0 C0.99 0 1.98 0 3 0 C3 1.98 3 3.96 3 6 C2.01 6 1.02 6 0 6 C0 4.02 0 2.04 0 0 Z " fill="#71748D" transform="translate(282,269)"/>
<path d="M0 0 C4 4.625 4 4.625 4 8 C2.68 7.67 1.36 7.34 0 7 C0 4.69 0 2.38 0 0 Z " fill="#9799A1" transform="translate(182,268)"/>
<path d="M0 0 C0.99 0 1.98 0 3 0 C3.33 1.98 3.66 3.96 4 6 C3.01 6 2.02 6 1 6 C0.67 4.02 0.34 2.04 0 0 Z " fill="#494F74" transform="translate(168,255)"/>
<path d="M0 0 C0.99 0 1.98 0 3 0 C2.67 1.98 2.34 3.96 2 6 C1.01 6 0.02 6 -1 6 C-0.67 4.02 -0.34 2.04 0 0 Z " fill="#3F4673" transform="translate(375,224)"/>
<path d="M0 0 C1.32 0 2.64 0 4 0 C4 2.31 4 4.62 4 7 C3.67 6.01 3.34 5.02 3 4 C2.01 3.67 1.02 3.34 0 3 C0 2.01 0 1.02 0 0 Z " fill="#8589A6" transform="translate(209,213)"/>
<path d="M0 0 C0.99 0 1.98 0 3 0 C3 1.98 3 3.96 3 6 C2.01 6 1.02 6 0 6 C0 4.02 0 2.04 0 0 Z " fill="#6C708B" transform="translate(316,210)"/>
<path d="M0 0 C0.33 0.66 0.66 1.32 1 2 C1.99 2.33 2.98 2.66 4 3 C4.33 4.65 4.66 6.3 5 8 C4.01 8.495 4.01 8.495 3 9 C3 7.68 3 6.36 3 5 C2.01 5 1.02 5 0 5 C0 3.35 0 1.7 0 0 Z " fill="#9596A1" transform="translate(141,201)"/>
<path d="M0 0 C0.99 0 1.98 0 3 0 C3 1.98 3 3.96 3 6 C2.01 6 1.02 6 0 6 C0 4.02 0 2.04 0 0 Z " fill="#161E54" transform="translate(120,176)"/>
<path d="M0 0 C0.99 0 1.98 0 3 0 C3 1.98 3 3.96 3 6 C2.01 6 1.02 6 0 6 C0 4.02 0 2.04 0 0 Z " fill="#5F6580" transform="translate(117,165)"/>
<path d="M0 0 C0.93423645 3.01031744 1.04449911 3.86650268 0 7 C-0.66 7 -1.32 7 -2 7 C-2.33 7.99 -2.66 8.98 -3 10 C-3 8.02 -3 6.04 -3 4 C-2.01 3.67 -1.02 3.34 0 3 C0 2.01 0 1.02 0 0 Z " fill="#696E8E" transform="translate(415,158)"/>
<path d="M0 0 C0.99 0 1.98 0 3 0 C3 1.98 3 3.96 3 6 C2.01 6 1.02 6 0 6 C0 4.02 0 2.04 0 0 Z " fill="#434A75" transform="translate(426,138)"/>
<path d="M0 0 C0.99 0 1.98 0 3 0 C3 1.98 3 3.96 3 6 C2.01 6 1.02 6 0 6 C0 4.02 0 2.04 0 0 Z " fill="#8589A7" transform="translate(165,134)"/>
<path d="M0 0 C1.32 0 2.64 0 4 0 C4 0.99 4 1.98 4 3 C4.99 3.33 5.98 3.66 7 4 C7 4.99 7 5.98 7 7 C6.01 7 5.02 7 4 7 C3.67 5.02 3.34 3.04 3 1 C2.01 0.67 1.02 0.34 0 0 Z " fill="#62698F" transform="translate(419,113)"/>
<path d="M0 0 C0.99 0 1.98 0 3 0 C3 0.99 3 1.98 3 3 C3.99 3.33 4.98 3.66 6 4 C3.69 4 1.38 4 -1 4 C-0.67 2.68 -0.34 1.36 0 0 Z " fill="#ACAFC0" transform="translate(145,110)"/>
<path d="M0 0 C1.98 0 3.96 0 6 0 C6 0.99 6 1.98 6 3 C4.02 3 2.04 3 0 3 C0 2.01 0 1.02 0 0 Z " fill="#7A7E9C" transform="translate(141,107)"/>
<path d="M0 0 C0.99 0.33 1.98 0.66 3 1 C3 2.65 3 4.3 3 6 C2.01 6 1.02 6 0 6 C0 4.02 0 2.04 0 0 Z " fill="#21295C" transform="translate(248,272)"/>
<path d="M0 0 C1.32 0.33 2.64 0.66 4 1 C2.25 4.875 2.25 4.875 0 6 C0 4.02 0 2.04 0 0 Z " fill="#A0A2A5" transform="translate(292,258)"/>
<path d="M0 0 C0.33 0 0.66 0 1 0 C0.67 2.31 0.34 4.62 0 7 C-0.99 7 -1.98 7 -3 7 C-3 5.68 -3 4.36 -3 3 C-2.01 3 -1.02 3 0 3 C0 2.01 0 1.02 0 0 Z " fill="#464C78" transform="translate(360,251)"/>
<path d="M0 0 C1 3 1 3 0 6 C-0.99 6.33 -1.98 6.66 -3 7 C-2.625 4.0625 -2.625 4.0625 -2 1 C-1.34 0.67 -0.68 0.34 0 0 Z " fill="#9296AF" transform="translate(391,196)"/>
<path d="M0 0 C0.33 0.99 0.66 1.98 1 3 C1.99 3 2.98 3 4 3 C4 4.32 4 5.64 4 7 C3.01 7 2.02 7 1 7 C0.67 4.69 0.34 2.38 0 0 Z " fill="#CDCFD8" transform="translate(188,179)"/>
<path d="M0 0 C1.98 0 3.96 0 6 0 C5.67 0.99 5.34 1.98 5 3 C3.35 3 1.7 3 0 3 C0 2.01 0 1.02 0 0 Z " fill="#BBBDC8" transform="translate(261,104)"/>
</svg>
